<?xml version="1.0" encoding="UTF-8"?>
<svg id="Layer_1" xmlns="http://www.w3.org/2000/svg" version="1.1" viewBox="0 0 340.7 71.12">
  <!-- Generator: Adobe Illustrator 29.8.1, SVG Export Plug-In . SVG Version: 2.1.1 Build 2)  -->
  <defs>
    <style>
      .st0 {
        fill: #6a6260;
      }
    </style>
  </defs>
  <g>
    <path class="st0" d="M16.16,8.42v6.21h8.76l1.72-1.9,3.7,2.83c-.25.29-.76.61-1.51.76v12.02c-.04.25-1.83.94-2.97.94h-.61v-2.99h-9.07v12.63c0,.43-1.54,1.33-2.91,1.33h-.72v-13.96H3.54v2.29c0,.37-1.54,1.19-3.01,1.19h-.53V13.03l3.85,1.58h8.72v-7.72l4.95.5c-.1.51-.35.86-1.33,1l-.03.03h0ZM12.54,25.25v-9.58H3.53v9.58h9.01ZM25.25,15.67h-9.07v9.58h9.07v-9.58h0Z"/>
    <path class="st0" d="M43.04,7.66l3.48,1.54h22.54l1.68-1.9,3.48,2.76c-.25.29-.82.57-1.54.76v28.03c-.04.29-1.54,1.15-2.76,1.15h-.51v-2.4h-23.18v1.4c0,.43-1.25,1.25-2.66,1.25h-.53V7.66h0ZM69.42,10.22h-23.18v26.38h23.18V10.22h0ZM58,27.87l.1.47c-1.83.96-4.56,2.29-8.4,3.99-.14.47-.43.76-.8.86l-1.86-3.56c1.97-.22,6.45-.93,10.95-1.76h0ZM61.66,11.57c-.08.43-.43.82-1.19.86l.08,3.19h3.66l.8-1c-.22-.04-.39-.1-.61-.22-.39-1.19-1.58-2.52-2.54-3.26l.33-.29c4.24.29,4.92,2.33,4.16,3.26.65.51,1.62,1.33,2.29,1.97-.1.39-.43.57-.94.57h-7.11c.18,2.83.53,5.59,1.29,8.04,1.04-1.97,1.9-4.16,2.52-6.57l3.95,1.62c-.18.43-.65.72-1.43.61-1.04,2.83-2.33,5.24-3.87,7.25.61,1.25,1.4,2.37,2.37,3.3.43.47.61.47.86-.1.39-.76.94-2.23,1.37-3.48l.43.08-.53,4.77c.9,1.47,1.04,2.15.65,2.62-1.08,1.15-3.16.08-4.34-1.11-1.11-1.11-2.05-2.37-2.8-3.73-2.29,2.37-5.02,4.09-8.07,5.35l-.37-.47c2.76-1.68,5.31-4.05,7.43-7.04-1.33-3.23-2.01-7-2.29-11.12h-10.23l-.29-1.04h10.44c-.08-1.54-.14-3.16-.14-4.81l4.16.76h-.04,0ZM48.78,18.25l2.62,1.11h2.48l1.23-1.25,2.69,1.97c-.18.22-.61.47-1.11.53v5.38c-.04.25-1.29.86-2.11.86h-.39v-1.11h-2.91v1.04c0,.18-1.11.76-2.11.76h-.35v-9.3h-.04,0ZM54.17,24.72v-4.3h-2.91v4.3s2.91,0,2.91,0Z"/>
    <path class="st0" d="M99.09,14.13c-.08.39-.43.57-.94.57h-13.35l-.29-1.04h9.65l1.76-2.23s1.97,1.54,3.16,2.69h.01ZM97.33,23.31l-.04-.07h4.2c.43-1.86.94-4.28,1.4-6.71h-3.85l-.33-1.04h4.34l.86-4.85h-5.57l-.29-1.04h13.78l1.83-2.44s2.11,1.68,3.34,2.91c-.08.39-.47.57-.94.57h-8.9l-.9,4.85h3.95l1.62-1.68,3.3,2.48c-.22.29-.76.53-1.43.68v6.28h.39l1.62-2.23s1.8,1.58,2.83,2.69c-.08.39-.39.57-.9.57h-20.1l-.18-.65c-.1.33-.39.43-.82.43h-10.3l-.29-1.04h7.14l1.54-1.97s1.58,1.25,2.66,2.26h.05,0ZM97.52,18.72c-.1.39-.43.57-.94.57h-10.3l-.29-1.04h7.14l1.54-1.97s1.76,1.37,2.83,2.44c0,0,.02,0,.02,0ZM86.81,40h-.43v-13.64l3.16,1.33h3.62l1.51-1.66,3.26,2.48c-.22.29-.76.53-1.4.68v8.5c-.04.25-1.51.93-2.54.93h-.51v-1.72h-4.09v2.11c0,.29-1.29.96-2.58.96v.03h0ZM90.48,12.33c-.29-1.66-1.54-3.66-2.66-4.85l.33-.18c8.29,1.08,5.53,7.14,2.33,5.02h0ZM93.49,28.73h-4.09v7.14h4.09v-7.14ZM100.24,40.04h-.47v-13.82l3.4,1.43h8.11l1.62-1.8,3.48,2.69c-.25.29-.8.57-1.51.72v9.5c-.04.25-1.66.9-2.72.9h-.51v-1.97h-8.64v1.25c0,.33-1.4,1.08-2.76,1.08h.01v.02h0ZM103.01,28.69v7.97h8.64v-7.97h-8.64ZM104.65,23.24h5.96v-6.71h-4.52c-.47,2.44-1,4.88-1.43,6.71,0,0-.01,0-.01,0Z"/>
    <path class="st0" d="M161.27,13.41c-.1.39-.51.57-1,.57h-31.9l-.29-1.04h27.28l2.11-2.58s2.33,1.76,3.81,3.05h0ZM156.15,18.64c-.08.39-.43.57-.96.57h-21.07l-.29-1.04h16.79l1.94-2.37s2.19,1.62,3.59,2.83h0ZM156.25,23.86c-.1.39-.47.57-.96.57h-21.17l-.29-1.04h16.9l1.94-2.37s2.19,1.62,3.59,2.83h0ZM134.69,40.18h-.47v-13.06l3.66,1.51h13.39l1.72-1.9,3.66,2.8c-.22.29-.76.57-1.47.72v8.76c-.04.25-1.83.86-2.97.86h-.57v-2.01h-14v1.23c0,.33-1.51,1.11-2.95,1.11h0v-.02ZM151.62,29.67h-14v7.14h14v-7.14ZM143.51,12.15c-.22-1.83-1.51-3.91-2.76-5.1l.33-.25c8.64,1.15,5.71,7.64,2.44,5.35h0Z"/>
    <path class="st0" d="M193.64,18.8h3.66l2.11-2.01,3.38,3.16c-.29.39-.68.47-1.58.53-1.62,4.49-3.87,8.44-7.25,11.63,3.23,2.26,7.04,3.87,11.41,4.99l-.1.39c-1.68.14-3.01,1.15-3.69,2.8-4.05-1.47-7.47-3.42-10.23-6-3.69,2.72-8.47,4.73-14.64,5.96l-.25-.51c5.45-1.68,9.83-4.13,13.21-7.21-3.19-3.73-5.35-8.62-6.57-15.15-.9,9.26-3.44,17.18-11.55,22.79l-.35-.33c7.39-7.93,8.76-18.16,8.76-29.53h-6.9l-.33-1.04h20.7l1.66-1.62,3.23,2.95c-.25.29-.82.47-1.47.51-.8,2.05-2.19,5.42-3.19,7.68h-.02ZM193.54,10.32h-10.01l-.18,3.81c1.33,7.25,4.24,12.49,8.44,16.26,2.66-3.05,4.52-6.57,5.71-10.59h-4.05l-1.15,1.19-3.12-2.01c.29-.25.76-.51,1.19-.68,1.04-2.19,2.4-5.67,3.19-7.97h-.02Z"/>
    <path class="st0" d="M248,15.38c-.1.39-.43.57-.96.57h-4.92c-1.4,5.88-3.95,10.91-8.04,14.97,4.09,2.8,9.01,4.71,14.39,5.88l-.1.43c-1.72.18-3.05,1.25-3.7,3.01-5.14-1.62-9.5-3.91-13.02-7.18-4.13,3.23-9.54,5.67-16.55,7.21l-.22-.51c6.39-2.11,11.26-5.02,14.93-8.62-3.42-3.85-5.85-8.79-7.21-15.22h-7.14l-.33-1.04h26.62l2.23-2.95s2.54,2.01,4.02,3.42v.03ZM223.32,15.95c1.62,5.57,4.52,9.87,8.4,13.17,3.19-3.81,5.16-8.21,6.14-13.17,0,0-14.54,0-14.54,0ZM231.75,13.66c-.53-2.23-2.44-4.85-4.2-6.43l.33-.25c10.12,1.86,7.43,9.07,3.87,6.68h0Z"/>
    <path class="st0" d="M262.07,18.37c.29.68.51,1.37.61,2.01h.82l-.43-12.06,3.01.68c1.19-.76,2.33-1.62,2.99-2.15l2.87,2.23c-.18.22-.57.25-1.08.07-1.11.33-2.87.76-4.67,1l.1,2.72h1.43l1.23-1.54s1.43,1.11,2.29,2.01c-.07.39-.39.57-.86.57h-4.05l.1,2.76h1.37l1.29-1.62s1.43,1.15,2.33,2.09c-.1.39-.43.57-.9.57h-4.05l.08,2.66h16.55l.14-2.66h-3.38l-.33-1.04h3.77l.14-2.76h-3.48l-.33-1.04h3.87l.14-2.76h-4.02l-.33-1h4.09l1.4-1.66,3.19,2.54c-.25.29-.57.39-1.23.47l-.53,9.91h.18l1.9-1.86,3.34,3.19c-.29.25-.65.33-1.37.37-1.19.86-3.23,2.11-4.59,2.8l-.39-.25c.37-.8.82-2.11,1.19-3.19h-23.65c.18,2.01-.43,3.59-1.9,4.28-2.4,1.11-4.05-1.8-1.4-3.23.94-.51,2.05-1.94,2.01-4.05l.5-.04h.01l.03-.02h0ZM279.94,24.57l1.97-1.9,3.38,3.01c-.29.29-.68.37-1.43.39-1.62.68-3.87,1.54-6.02,2.23h.07c-.07.51-.43.76-1.19.86v1.47h8.47l2.01-2.66s2.29,1.83,3.66,3.12c-.1.39-.47.57-.96.57h-13.17v4.24c0,2.52-.57,3.95-4.77,4.34-.1-1.08-.33-1.86-.86-2.44-.61-.53-1.47-.9-3.26-1.19v-.51s4.02.25,4.77.25c.57,0,.76-.18.76-.65v-4.05h-14.07l-.29-1.04h14.35v-2.76l2.83.25c1.08-.76,2.19-1.68,3.09-2.52h-13.42l-.33-1.04h14.43l-.03.04h0ZM279.94,14.85c-.18.37-.57.43-1.19.25-.39.5-.9,1.04-1.47,1.54,1.94,1.68,1.04,3.66-.61,2.95-.25-.53-.65-1.08-1.15-1.62-1.33.86-2.83,1.62-4.3,2.11l-.33-.53c1.19-.76,2.4-1.72,3.4-2.76-.72-.65-1.54-1.23-2.26-1.66l.33-.37c1.25.18,2.26.43,3.09.76.57-.72,1.08-1.43,1.43-2.15l3.05,1.47h.01ZM279.37,8.67c-.18.37-.57.43-1.19.25-.33.43-.76.9-1.25,1.33,1.9,1.43,1.15,3.26-.39,2.69-.29-.43-.72-.94-1.25-1.4-1.19.82-2.52,1.54-3.81,2.09l-.37-.53c1-.72,2.01-1.62,2.91-2.62-.72-.53-1.43-1-2.09-1.33l.33-.39c1.08.1,1.97.29,2.72.53.53-.72,1-1.43,1.37-2.11l3.01,1.51h0v-.02h.01Z"/>
    <path class="st0" d="M314.49,32.54c-2.72,2.33-7.35,4.95-12.06,6.35l-.29-.47c3.85-2.23,7.78-5.88,9.69-8.68l4.02,2.52c-.25.37-.57.51-1.37.29h.01ZM330.14,29.59c-.29-1.11-.94-2.37-1.72-3.55-1.97.39-4.34.82-7.11,1.33v8.72c0,2.33-.61,3.81-4.77,4.16-.07-1-.25-1.8-.76-2.26-.53-.47-1.33-.86-3.09-1.08v-.51s3.59.22,4.34.22c.57,0,.76-.18.76-.61v-8.07c-2.87.5-6.02,1-9.4,1.51-.25.47-.57.76-.9.9l-1.83-3.87s1-.1,1.51-.29c3.42-1.25,7.64-3.59,11.34-6.02-2.52.61-5.67,1.33-9.11,2.01-.22.37-.47.61-.72.72l-1.76-3.66s.76-.07,1.11-.25c3.3-1.29,7.61-4.67,9.77-6.86-4.28,1.11-9.07,2.09-13.57,2.62l-.18-.57c7.14-1.66,15.79-4.95,20.1-7.5l3.59,2.95c-.33.37-1,.39-2.05.07-1.9.72-4.24,1.43-6.78,2.15l3.26,1.9c-.22.37-.72.61-1.51.39-2.29,1.62-6.35,3.77-10.09,5.2,2.66-.1,6.28-.37,10.05-.61,2.23-1.58,4.09-3.09,5.31-4.3l3.77,2.91c-.25.33-.82.53-1.66.22-3.77,2.69-11.34,6.43-17.98,8.9,4.38-.22,10.95-.65,17.87-1.11-1-1.43-2.19-2.8-3.26-3.81l.39-.25c10.59,3.42,8.44,10.55,5.06,8.33v-.04h.02,0ZM331.36,38.5c-1.62-2.83-5.53-6.31-8.5-8.33l.33-.37c13.39,2.72,12.13,10.48,8.19,8.68h-.01v.02h-.01Z"/>
  </g>
  <g>
    <path class="st0" d="M.87,65.79h.77c.52,0,.75-.16.75-.92v-8.12c0-.76-.22-.92-.75-.92h-.77v-.6h4.99c3.45,0,5.76,1.86,5.76,5.32s-1.86,5.82-6.44,5.82H.87v-.6h0v.02ZM5.23,65.78c3.66,0,4.48-2.16,4.48-5.26,0-3.33-1.25-4.64-5.04-4.64h-.57v8.99c0,.76.36.92.89.92h.24Z"/>
    <path class="st0" d="M12.94,62.27c0-2.37,1.6-4.27,3.82-4.27s3.43,1.12,3.43,3.85h-5.59c.02,2.39.92,3.76,2.7,3.76,1.33,0,2.29-.93,2.78-1.41h.12v.8c-.65.61-1.71,1.57-3.52,1.57-2.48,0-3.74-2.13-3.74-4.31h0ZM18.58,61.23c-.03-1.22-.27-2.63-1.78-2.63s-2,1.52-2.13,2.63h3.92,0Z"/>
    <path class="st0" d="M20.92,69.47h.54c.52,0,.68-.09.68-.85v-8.84c0-.77-.16-.85-.71-.85h-.51v-.6l2.81-.22v1.06c.7-.6,1.47-1.15,2.68-1.15,2.1,0,3.22,1.88,3.22,4.15.02,2.28-1.52,4.37-3.54,4.37-1.22,0-1.64-.33-2.37-.8v2.89c0,.76.16.85.68.85h.7v.6h-4.18v-.6h0ZM27.92,62.27c0-2.14-.79-3.3-2.02-3.3-.9,0-1.58.36-2.16.84v5.28c.6.38,1.01.55,2,.55,1.12,0,2.18-1.22,2.18-3.36h0Z"/>
    <path class="st0" d="M30.84,64.49c0-1.91,1.66-2.45,5.04-3.08v-.93c0-.94-.55-1.71-1.76-1.71-.89,0-1.31.19-1.76.46.4.16.6.49.6.8,0,.42-.33.84-.93.84-.55,0-.85-.36-.85-.85,0-.87,1.41-2,3.21-2,2.21,0,3.06.89,3.06,2.77v4.18c0,.46.28.65.6.65s.68-.17.9-.3v.57c-.4.38-1.15.71-1.69.71-.63,0-1.29-.31-1.39-1.1-.63.66-1.55,1.1-2.62,1.1-1.45,0-2.42-.9-2.42-2.1h0ZM35.88,64.83v-2.81c-2.44.44-3.35.9-3.35,2.13,0,.94.49,1.52,1.41,1.52.63,0,1.47-.38,1.94-.84Z"/>
    <path class="st0" d="M39.27,65.79h.54c.52,0,.68-.09.68-.85v-5.16c0-.77-.16-.85-.71-.85h-.51v-.6l2.81-.22v1.55c.77-.98,1.52-1.64,2.42-1.64.65,0,1.09.51,1.09,1.13,0,.79-.42,1.12-.87,1.12-.55,0-.84-.3-.84-.8,0-.14.02-.3.07-.47-.59.12-1.41.8-1.86,1.34v4.61c0,.76.16.85.68.85h.75v.6h-4.23v-.6h-.02Z"/>
    <path class="st0" d="M47.3,64.68v-5.71h-1.22v-.51c1.42-.3,1.88-1.45,2.21-2.73h.59v2.56h2.02v.68h-2.02v5.14c0,.79.11,1.62,1.17,1.62.41,0,.75-.11,1.08-.31v.66c-.6.33-1.06.51-1.8.51-1.44,0-2.02-.59-2.02-1.91h0Z"/>
    <path class="st0" d="M51.62,65.79h.54c.52,0,.68-.09.68-.85v-5.16c0-.77-.16-.85-.71-.85h-.51v-.6l2.81-.22v1.06c.68-.6,1.48-1.15,2.65-1.15s1.9.57,2.21,1.37c.85-.8,1.72-1.37,2.89-1.37,1.94,0,2.48,1.41,2.48,2.92v4.01c0,.76.16.85.68.85h.54v.6h-3.92v-.6h.42c.52,0,.68-.09.68-.85v-4.3c0-.9-.4-1.67-1.36-1.67-.85,0-1.6.44-2.16.92v5.05c0,.76.16.85.68.85h.42v.6h-3.8v-.6h.42c.52,0,.68-.09.68-.85v-4.3c0-.9-.38-1.67-1.34-1.67-.87,0-1.62.36-2.18.84v5.13c0,.76.16.85.68.85h.42v.6h-3.92v-.6h.02Z"/>
    <path class="st0" d="M66.63,62.27c0-2.37,1.6-4.27,3.82-4.27s3.43,1.12,3.43,3.85h-5.59c.02,2.39.92,3.76,2.7,3.76,1.33,0,2.29-.93,2.78-1.41h.12v.8c-.65.61-1.71,1.57-3.52,1.57-2.48,0-3.74-2.13-3.74-4.31h0ZM72.26,61.23c-.03-1.22-.27-2.63-1.78-2.63s-2,1.52-2.13,2.63h3.92-.01Z"/>
    <path class="st0" d="M74.73,65.79h.54c.52,0,.68-.09.68-.85v-5.16c0-.77-.16-.85-.71-.85h-.51v-.6l2.81-.22v1.06c.7-.6,1.52-1.15,2.73-1.15,1.97,0,2.58,1.41,2.58,2.92v4.01c0,.76.16.85.68.85h.54v.6h-3.92v-.6h.42c.52,0,.68-.09.68-.85v-4.3c0-.9-.4-1.67-1.41-1.67-.9,0-1.72.36-2.3.84v5.13c0,.76.16.85.68.85h.42v.6h-3.92v-.6h.01Z"/>
    <path class="st0" d="M85.65,64.68v-5.71h-1.22v-.51c1.42-.3,1.88-1.45,2.21-2.73h.59v2.56h2.02v.68h-2.02v5.14c0,.79.11,1.62,1.17,1.62.41,0,.75-.11,1.08-.31v.66c-.6.33-1.06.51-1.8.51-1.44,0-2.02-.59-2.02-1.91h-.01Z"/>
    <path class="st0" d="M94.62,62.31c0-2.46,1.48-4.3,3.99-4.3s3.99,2.02,3.99,4.3c0,2.4-1.57,4.28-3.99,4.28s-3.99-1.71-3.99-4.28ZM100.89,62.31c0-1.64-.4-3.71-2.28-3.71s-2.28,1.83-2.28,3.71c0,1.48.31,3.69,2.28,3.69s2.28-2.37,2.28-3.69Z"/>
    <path class="st0" d="M103.34,65.79h.54c.52,0,.68-.09.68-.85v-5.99h-1.23v-.68h1.23c0-2.39,1.34-3.92,3.21-3.92,1.26,0,1.66.71,1.66,1.15,0,.63-.44.93-.87.93s-.82-.3-.82-.73c0-.24.08-.52.35-.8-.11-.03-.21-.05-.31-.07-1.57,0-1.64,1.61-1.64,3.43h1.72v.68h-1.69v5.99c0,.76.16.85.68.85h.7v.6h-4.18v-.6h-.03Z"/>
    <path class="st0" d="M113.18,60.93c0-3,1.69-5.9,5.49-5.9.75,0,1.66.22,2.46.65l.38-.55h.57v3.45h-.7c-.17-.66-.17-.85-.42-1.39-.27-.57-.87-1.57-2.49-1.57-1.93,0-3.35,1.69-3.35,5.21s1.67,4.98,3.41,4.98c2.21,0,3.1-1.45,3.25-2.94h.68c-.07,1.94-1.58,3.74-3.88,3.74-3.66,0-5.4-2.54-5.4-5.66h0v-.02Z"/>
    <path class="st0" d="M123.19,65.79h.54c.52,0,.68-.09.68-.85v-8.9c0-.77-.16-.85-.71-.85h-.51v-.6l2.81-.22v4.8c.7-.6,1.53-1.15,2.75-1.15,1.94,0,2.56,1.41,2.56,2.92v4.01c0,.76.16.85.68.85h.54v.6h-3.92v-.6h.43c.52,0,.68-.09.68-.85v-4.3c0-.9-.4-1.67-1.41-1.67-.9,0-1.72.36-2.3.84v5.13c0,.76.16.85.68.85h.42v.6h-3.92v-.6h0Z"/>
    <path class="st0" d="M133.12,65.79h.54c.52,0,.68-.09.68-.85v-5.16c0-.77-.16-.85-.71-.85h-.51v-.6l2.81-.22v6.83c0,.76.16.85.68.85h.54v.6h-4.02v-.6h-.01ZM133.97,55.48c0-.59.46-1.04,1.04-1.04s1.04.46,1.04,1.04-.46,1.04-1.04,1.04-1.04-.46-1.04-1.04Z"/>
    <path class="st0" d="M137.75,65.79h.54c.52,0,.68-.09.68-.85v-5.16c0-.77-.16-.85-.71-.85h-.51v-.6l2.81-.22v1.06c.7-.6,1.52-1.15,2.73-1.15,1.97,0,2.58,1.41,2.58,2.92v4.01c0,.76.16.85.68.85h.54v.6h-3.92v-.6h.43c.52,0,.68-.09.68-.85v-4.3c0-.9-.4-1.67-1.41-1.67-.9,0-1.72.36-2.3.84v5.13c0,.76.16.85.68.85h.43v.6h-3.92v-.6h0Z"/>
    <path class="st0" d="M147.83,62.27c0-2.37,1.6-4.27,3.82-4.27s3.43,1.12,3.43,3.85h-5.59c.02,2.39.92,3.76,2.7,3.76,1.33,0,2.29-.93,2.78-1.41h.12v.8c-.65.61-1.71,1.57-3.52,1.57-2.48,0-3.74-2.13-3.74-4.31h0ZM153.46,61.23c-.03-1.22-.27-2.63-1.78-2.63s-2,1.52-2.13,2.63h3.92-.01Z"/>
    <path class="st0" d="M157.19,65.93l-.27.54h-.49v-2.92h.6c.14.66.33,1.01.75,1.62.43.46.89.84,1.76.84,1.23,0,1.85-.73,1.85-1.45,0-.96-.87-1.28-2.05-1.62-1.26-.38-2.77-.8-2.77-2.54,0-1.25,1.33-2.39,3.06-2.39.77,0,1.47.24,2.1.52l.17-.38h.46v2.46h-.6c-.17-.65-.35-.93-.65-1.39-.24-.26-.73-.61-1.47-.61-.94,0-1.62.57-1.62,1.25,0,.96.52,1.27,1.83,1.66,1.66.51,2.92,1.03,2.92,2.61s-1.53,2.48-3.29,2.48c-.96,0-1.76-.35-2.29-.66h-.02l.02-.02Z"/>
    <path class="st0" d="M163.98,62.27c0-2.37,1.6-4.27,3.82-4.27s3.43,1.12,3.43,3.85h-5.59c.02,2.39.92,3.76,2.7,3.76,1.33,0,2.29-.93,2.78-1.41h.12v.8c-.65.61-1.71,1.57-3.52,1.57-2.48,0-3.74-2.13-3.74-4.31h0ZM169.62,61.23c-.03-1.22-.27-2.63-1.78-2.63s-2,1.52-2.13,2.63h3.92-.01Z"/>
    <path class="st0" d="M176.76,65.79h.77c.52,0,.75-.16.75-.92v-8.12c0-.76-.22-.92-.75-.92h-.77v-.6h4.83v.6h-.85c-.52,0-.75.16-.75.92v8.1c0,.76.22.92.75.92h1.13c1.85,0,2.28-.85,2.79-2.72h.7l-.49,3.33h-8.12v-.6h0Z"/>
    <path class="st0" d="M186.02,64.49c0-1.91,1.66-2.45,5.04-3.08v-.93c0-.94-.55-1.71-1.76-1.71-.89,0-1.31.19-1.76.46.4.16.6.49.6.8,0,.42-.33.84-.93.84-.55,0-.85-.36-.85-.85,0-.87,1.41-2,3.21-2,2.21,0,3.06.89,3.06,2.77v4.18c0,.46.28.65.6.65s.68-.17.9-.3v.57c-.4.38-1.15.71-1.69.71-.63,0-1.29-.31-1.39-1.1-.63.66-1.55,1.1-2.62,1.1-1.45,0-2.42-.9-2.42-2.1h.01ZM191.06,64.83v-2.81c-2.45.44-3.35.9-3.35,2.13,0,.94.49,1.52,1.41,1.52.63,0,1.47-.38,1.94-.84Z"/>
    <path class="st0" d="M194.45,65.79h.54c.52,0,.68-.09.68-.85v-5.16c0-.77-.16-.85-.71-.85h-.51v-.6l2.81-.22v1.06c.7-.6,1.52-1.15,2.73-1.15,1.97,0,2.58,1.41,2.58,2.92v4.01c0,.76.16.85.68.85h.54v.6h-3.92v-.6h.43c.52,0,.68-.09.68-.85v-4.3c0-.9-.4-1.67-1.41-1.67-.9,0-1.72.36-2.3.84v5.13c0,.76.16.85.68.85h.43v.6h-3.92v-.6h0Z"/>
    <path class="st0" d="M204.36,68.02c0-.87.89-1.55,1.57-1.64-.82-.22-1.13-.87-1.13-1.34,0-.77.61-1.36,1.42-1.71-.84-.42-1.45-1.25-1.45-2.39,0-1.58,1.31-2.94,3.25-2.94,1.03,0,1.95.3,2.46.9.44-.75.94-.9,1.39-.9.4,0,.75.25.75.71,0,.33-.17.73-.66.73-.3,0-.49-.14-.76-.44l-.4.35c.24.41.4.98.4,1.58,0,1.58-1.26,2.82-3.16,2.82-.52,0-.93-.05-1.39-.22-.28.17-.63.59-.63,1.01,0,.46.38.6,1.09.6h2.45c1.58,0,2.75.59,2.75,2.09,0,1.6-1.69,3.06-4.18,3.06-2.32,0-3.74-.98-3.74-2.28h-.03ZM210.98,67.76c0-.54-.17-1.31-1.66-1.31h-2.96c-.28.41-.44.89-.44,1.52,0,.82.94,1.66,2.49,1.66,1.66,0,2.58-.96,2.58-1.86h0ZM209.6,60.93c0-1.25-.4-2.34-1.58-2.34s-1.64,1.06-1.64,2.32c0,1.13.43,2.29,1.61,2.29s1.61-1.1,1.61-2.28h0Z"/>
    <path class="st0" d="M214.04,63.72v-3.93c0-.77-.16-.85-.71-.85h-.51v-.6l2.81-.22v5.89c0,.9.4,1.67,1.41,1.67.9,0,1.72-.36,2.3-.84v-5.05c0-.77-.16-.85-.71-.85h-.51v-.6l2.81-.22v6.76c0,.77.16.85.71.85h.51v.6l-2.81.22v-1.06c-.7.6-1.53,1.15-2.75,1.15-1.95,0-2.56-1.41-2.56-2.92h.01Z"/>
    <path class="st0" d="M222.99,64.49c0-1.91,1.66-2.45,5.04-3.08v-.93c0-.94-.55-1.71-1.76-1.71-.89,0-1.31.19-1.76.46.4.16.6.49.6.8,0,.42-.33.84-.93.84-.55,0-.85-.36-.85-.85,0-.87,1.41-2,3.21-2,2.21,0,3.06.89,3.06,2.77v4.18c0,.46.28.65.6.65s.68-.17.9-.3v.57c-.4.38-1.15.71-1.69.71-.63,0-1.29-.31-1.39-1.1-.63.66-1.55,1.1-2.62,1.1-1.45,0-2.42-.9-2.42-2.1h.01ZM228.03,64.83v-2.81c-2.45.44-3.35.9-3.35,2.13,0,.94.49,1.52,1.41,1.52.63,0,1.47-.38,1.94-.84Z"/>
    <path class="st0" d="M231.39,68.02c0-.87.89-1.55,1.57-1.64-.82-.22-1.13-.87-1.13-1.34,0-.77.61-1.36,1.42-1.71-.84-.42-1.45-1.25-1.45-2.39,0-1.58,1.31-2.94,3.25-2.94,1.03,0,1.95.3,2.46.9.44-.75.94-.9,1.39-.9.4,0,.75.25.75.71,0,.33-.17.73-.66.73-.3,0-.49-.14-.76-.44l-.4.35c.24.41.4.98.4,1.58,0,1.58-1.26,2.82-3.16,2.82-.52,0-.93-.05-1.39-.22-.28.17-.63.59-.63,1.01,0,.46.38.6,1.09.6h2.45c1.58,0,2.75.59,2.75,2.09,0,1.6-1.69,3.06-4.18,3.06-2.32,0-3.74-.98-3.74-2.28h-.03ZM238.01,67.76c0-.54-.17-1.31-1.66-1.31h-2.96c-.28.41-.44.89-.44,1.52,0,.82.94,1.66,2.49,1.66,1.66,0,2.58-.96,2.58-1.86h0ZM236.63,60.93c0-1.25-.4-2.34-1.58-2.34s-1.64,1.06-1.64,2.32c0,1.13.43,2.29,1.61,2.29s1.61-1.1,1.61-2.28h0Z"/>
    <path class="st0" d="M239.99,62.27c0-2.37,1.6-4.27,3.82-4.27s3.43,1.12,3.43,3.85h-5.59c.02,2.39.92,3.76,2.7,3.76,1.33,0,2.29-.93,2.78-1.41h.12v.8c-.65.61-1.71,1.57-3.52,1.57-2.48,0-3.74-2.13-3.74-4.31h0ZM245.62,61.23c-.03-1.22-.27-2.63-1.78-2.63s-2,1.52-2.13,2.63h3.92-.01Z"/>
    <path class="st0" d="M252.84,63.6c0-1.85,1.33-2.73,2.61-3.31-.65-.9-1.06-1.41-1.06-2.39,0-1.1.96-2.42,2.73-2.42,1.44,0,2.54.75,2.54,2.09s-1.09,2.18-2.28,2.77c.79.99,1.88,2.19,2.73,3.17.4-.63.87-1.57.87-2.37,0-.36-.11-.7-.65-.7h-.41v-.61h3.31v.61h-.38c-.63,0-.85.36-1.08,1.1-.12.43-.51,1.39-1.25,2.43.31.35.61.65.85.89.46.47.84.92,1.44.92h.63v.61h-2.73l-1.23-1.33c-.82.9-1.76,1.53-3.38,1.53s-3.29-1.08-3.29-3h.03ZM259.13,64.64c-1.13-1.28-2.42-2.7-3.29-3.87-.92.44-1.36,1.28-1.36,2.28,0,1.13.89,2.49,2.56,2.49.79,0,1.31-.25,2.09-.9h0ZM258.33,57.5c0-.63-.33-1.43-1.28-1.43-.85,0-1.25.73-1.25,1.29,0,.85.55,1.66,1.2,2.51,1.09-.61,1.33-1.57,1.33-2.37Z"/>
    <path class="st0" d="M268.63,65.79h.77c.52,0,.75-.16.75-.92v-8.12c0-.76-.22-.92-.75-.92h-.77v-.6h4.83v.6h-.85c-.52,0-.75.16-.75.92v8.1c0,.76.22.92.75.92h1.13c1.85,0,2.28-.85,2.79-2.72h.7l-.49,3.33h-8.12v-.6h0Z"/>
    <path class="st0" d="M277.9,65.79h.54c.52,0,.68-.09.68-.85v-5.16c0-.77-.16-.85-.71-.85h-.51v-.6l2.81-.22v6.83c0,.76.16.85.68.85h.54v.6h-4.02v-.6h-.01ZM278.75,55.48c0-.59.46-1.04,1.04-1.04s1.04.46,1.04,1.04-.46,1.04-1.04,1.04-1.04-.46-1.04-1.04Z"/>
    <path class="st0" d="M283.52,64.68v-5.71h-1.22v-.51c1.42-.3,1.88-1.45,2.21-2.73h.59v2.56h2.02v.68h-2.02v5.14c0,.79.11,1.62,1.17,1.62.41,0,.75-.11,1.08-.31v.66c-.6.33-1.06.51-1.8.51-1.44,0-2.02-.59-2.02-1.91h-.01Z"/>
    <path class="st0" d="M288.07,62.27c0-2.37,1.6-4.27,3.82-4.27s3.43,1.12,3.43,3.85h-5.59c.02,2.39.92,3.76,2.7,3.76,1.33,0,2.29-.93,2.78-1.41h.12v.8c-.65.61-1.71,1.57-3.52,1.57-2.48,0-3.74-2.13-3.74-4.31h0ZM293.71,61.23c-.03-1.22-.27-2.63-1.78-2.63s-2,1.52-2.13,2.63h3.92-.01Z"/>
    <path class="st0" d="M296.17,65.79h.54c.52,0,.68-.09.68-.85v-5.16c0-.77-.16-.85-.71-.85h-.51v-.6l2.81-.22v1.55c.77-.98,1.52-1.64,2.42-1.64.65,0,1.09.51,1.09,1.13,0,.79-.42,1.12-.87,1.12-.55,0-.84-.3-.84-.8,0-.14.02-.3.07-.47-.59.12-1.41.8-1.86,1.34v4.61c0,.76.16.85.68.85h.75v.6h-4.23v-.6h-.02Z"/>
    <path class="st0" d="M302.96,64.49c0-1.91,1.66-2.45,5.04-3.08v-.93c0-.94-.55-1.71-1.76-1.71-.89,0-1.31.19-1.76.46.4.16.6.49.6.8,0,.42-.33.84-.93.84-.55,0-.85-.36-.85-.85,0-.87,1.41-2,3.21-2,2.21,0,3.06.89,3.06,2.77v4.18c0,.46.28.65.6.65s.68-.17.9-.3v.57c-.4.38-1.15.71-1.69.71-.63,0-1.29-.31-1.39-1.1-.63.66-1.55,1.1-2.62,1.1-1.45,0-2.42-.9-2.42-2.1h.01ZM308,64.83v-2.81c-2.45.44-3.35.9-3.35,2.13,0,.94.49,1.52,1.41,1.52.63,0,1.47-.38,1.94-.84h0Z"/>
    <path class="st0" d="M312.38,64.68v-5.71h-1.22v-.51c1.42-.3,1.88-1.45,2.21-2.73h.59v2.56h2.02v.68h-2.02v5.14c0,.79.11,1.62,1.17,1.62.41,0,.75-.11,1.08-.31v.66c-.6.33-1.06.51-1.8.51-1.44,0-2.02-.59-2.02-1.91h-.01Z"/>
    <path class="st0" d="M317.71,63.72v-3.93c0-.77-.16-.85-.71-.85h-.51v-.6l2.81-.22v5.89c0,.9.4,1.67,1.41,1.67.9,0,1.72-.36,2.3-.84v-5.05c0-.77-.16-.85-.71-.85h-.51v-.6l2.81-.22v6.76c0,.77.16.85.71.85h.51v.6l-2.81.22v-1.06c-.7.6-1.53,1.15-2.75,1.15-1.95,0-2.56-1.41-2.56-2.92h.01Z"/>
    <path class="st0" d="M326.51,65.79h.54c.52,0,.68-.09.68-.85v-5.16c0-.77-.16-.85-.71-.85h-.51v-.6l2.81-.22v1.55c.77-.98,1.52-1.64,2.42-1.64.65,0,1.09.51,1.09,1.13,0,.79-.42,1.12-.87,1.12-.55,0-.84-.3-.84-.8,0-.14.02-.3.07-.47-.59.12-1.41.8-1.86,1.34v4.61c0,.76.16.85.68.85h.75v.6h-4.23v-.6h-.02Z"/>
    <path class="st0" d="M333.44,62.27c0-2.37,1.6-4.27,3.82-4.27s3.43,1.12,3.43,3.85h-5.59c.02,2.39.92,3.76,2.7,3.76,1.33,0,2.29-.93,2.78-1.41h.12v.8c-.65.61-1.71,1.57-3.52,1.57-2.48,0-3.74-2.13-3.74-4.31h0ZM339.08,61.23c-.03-1.22-.27-2.63-1.78-2.63s-2,1.52-2.13,2.63h3.92,0Z"/>
  </g>
</svg>