<?xml version="1.0" encoding="UTF-8"?>
<svg id="Layer_1" xmlns="http://www.w3.org/2000/svg" version="1.1" viewBox="0 0 116.29 71.12">
  <!-- Generator: Adobe Illustrator 29.8.1, SVG Export Plug-In . SVG Version: 2.1.1 Build 2)  -->
  <defs>
    <style>
      .st0 {
        fill: #6a6260;
      }
    </style>
  </defs>
  <path class="st0" d="M9.42,56.64c-.15-.76-.27-1.13-.54-1.54-.3-.53-.73-.69-2.18-.69h-1.45c-.55,0-.62.04-.62.6v4.56h1.98c1.74,0,1.82-.17,2.07-1.4h.53v3.68h-.53c-.25-1.3-.33-1.53-2.07-1.53h-1.98v3.47c0,1.65.15,1.76,1.9,1.88v.54H1.32v-.54c1.53-.12,1.69-.23,1.69-1.88v-7.62c0-1.67-.16-1.77-1.63-1.88v-.54h8.43c0,.69.09,1.92.19,2.82l-.58.08h0Z"/>
  <path class="st0" d="M16.98,66.43c-.29,0-.68-.18-.9-.37-.25-.27-.36-.54-.46-.86-.77.52-1.68,1.23-2.26,1.23-1.36,0-2.3-1.13-2.3-2.34,0-.94.5-1.54,1.55-1.9,1.15-.38,2.55-.9,2.97-1.24v-.35c0-1.38-.65-2.17-1.61-2.17-.38,0-.67.15-.86.39-.25.25-.42.67-.58,1.26-.07.31-.28.44-.55.44-.35,0-.84-.38-.84-.82,0-.29.24-.5.61-.77.54-.38,1.78-1.13,2.87-1.34.58,0,1.15.17,1.57.52.67.56.86,1.34.86,2.34v3.56c0,.87.34,1.15.67,1.15.24,0,.5-.1.69-.21l.19.5-1.63.98h0ZM15.58,61.6c-.4.21-1.32.61-1.72.81-.75.35-1.17.7-1.17,1.4,0,.99.77,1.48,1.36,1.48.5-.02,1.17-.35,1.53-.69v-2.99h0Z"/>
  <path class="st0" d="M26.54,64.47c-.85,1.11-2.14,1.96-3.27,1.96-2.41,0-3.83-1.96-3.83-4.01,0-1.47.63-2.76,1.92-3.76,1-.76,2.15-1.07,2.89-1.07s1.4.25,1.71.5c.25.21.31.38.31.59,0,.4-.42.82-.63.82-.09,0-.19-.06-.36-.21-.58-.54-1.26-.78-1.92-.78-1.27,0-2.38,1.05-2.38,3.06,0,2.67,1.82,3.55,2.9,3.55.82,0,1.45-.23,2.34-1.05l.33.4s-.01,0,0,0h0Z"/>
  <path class="st0" d="M36.88,65.75c-.89.13-1.87.4-2.82.69l-.12-.12v-1.35c-.43.33-.89.67-1.42,1-.56.32-.96.48-1.47.48-1.29,0-2.37-.79-2.37-2.86v-3.75c0-1.06-.08-1.13-1.17-1.34v-.44c.91-.05,1.82-.18,2.75-.34-.06.6-.06,1.49-.06,2.8v2.57c0,1.71.82,2.17,1.69,2.17.69,0,1.42-.29,2.06-.93v-4.47c0-1.09-.11-1.17-1.48-1.36v-.44c1-.05,1.98-.13,3-.34v6.41c0,.96.15,1.09.89,1.13l.53.04v.48h0v-.03s0,0-.01,0Z"/>
  <path class="st0" d="M37.5,66.2v-.5c1.21-.11,1.38-.23,1.38-1.49v-9.07c0-1.3-.11-1.36-1.31-1.45v-.46c.98-.12,2.17-.44,2.82-.67v11.65c0,1.26.16,1.38,1.38,1.49v.5h-4.27Z"/>
  <path class="st0" d="M46.26,66.18c-.34.18-.65.25-.81.25-1.22,0-1.89-.77-1.89-2.28v-5.58h-1.31l-.08-.2.51-.55h.89v-1.4l1.25-1.27.27.04v2.63h2.18c.15.19.11.61-.13.75h-2.05v4.92c0,1.56.64,1.84,1.12,1.84s.93-.19,1.2-.33l.15.5-1.29.67h0Z"/>
  <path class="st0" d="M56.91,58.3c-1.02.16-1.2.31-1.71,1.4-.46,1.01-1.07,2.61-2.4,5.77-1.27,3.06-1.69,4.15-1.96,5.19-.11.37-.36.46-.63.46-.54,0-1.08-.46-1.08-.92,0-.31.18-.47.48-.68.6-.39.98-.87,1.42-1.71.36-.67.51-1.07.61-1.33.08-.29.08-.54-.03-.86-.78-2.18-1.62-4.5-2.2-5.86-.4-1.05-.61-1.3-1.65-1.46v-.47h3.89v.47c-.89.16-.98.35-.73,1.05l1.72,4.81c.54-1.3,1.38-3.56,1.78-4.77.22-.73.09-.94-1-1.09v-.47h3.47v.47s.02,0,.02,0Z"/>
  <path class="st0" d="M69.96,61.87c0,3.09-2.27,4.56-4.18,4.56-2.63,0-4.18-2.11-4.18-4.24,0-3.16,2.44-4.6,4.18-4.6,2.38,0,4.18,1.9,4.18,4.28M63.38,61.58c0,2.42,1.04,4.22,2.63,4.22,1.17,0,2.15-.88,2.15-3.51,0-2.24-.88-4.06-2.55-4.06-1.2,0-2.22,1.18-2.22,3.35"/>
  <path class="st0" d="M72.38,57.83v-.42c0-.6.06-1.15.2-1.58.12-.42.44-1.36,1.46-2.24.69-.59,1.38-.94,2.11-1.03.66.02,1.22.29,1.51.65.18.21.2.46.11.67-.07.15-.18.31-.38.46-.15.13-.33.13-.51-.06-.37-.35-.91-.71-1.55-.71-.49,0-.8.23-1.03.58-.25.36-.44,1.29-.42,2.92v.77h2.24c.13.16.02.63-.18.75h-2.07v5.51c0,1.42.13,1.48,1.65,1.64v.48h-4.53v-.5c1.24-.11,1.38-.21,1.38-1.48v-5.64h-1.36l-.06-.2.51-.55h.92s0-.02,0-.02Z"/>
  <path class="st0" d="M90.41,66.38v-.57c1.21-.15,1.36-.33,1.12-1.11-.25-.74-.61-1.74-1.02-2.87h-4.11c-.29.84-.56,1.64-.81,2.44-.4,1.2-.26,1.39,1.21,1.55v.57h-4.28v-.57c1.27-.18,1.53-.31,2.2-2.03l4.03-10.19.69-.19c1.21,3.35,2.51,7.03,3.76,10.4.61,1.68.88,1.88,2.15,2.01v.57h-4.95,0ZM88.56,56.13h-.06c-.6,1.62-1.18,3.26-1.77,4.84h3.49l-1.66-4.84Z"/>
  <path class="st0" d="M99.34,59.66c.61-1.03,1.43-2.07,2.34-2.07.7,0,1.16.53,1.16,1.02,0,.45-.28.86-.68,1.05-.23.1-.41.06-.53-.06-.29-.27-.54-.39-.87-.39-.47,0-1.06.51-1.46,1.55v3.59c0,1.27.1,1.38,1.61,1.5v.53h-4.65v-.53c1.2-.12,1.32-.24,1.32-1.5v-4.08c0-1.25-.09-1.31-1.16-1.48v-.45c.99-.15,1.89-.39,2.88-.78v2.1s.04,0,.04,0Z"/>
  <path class="st0" d="M107.71,66.36c-.33.18-.63.25-.79.25-1.3,0-2.01-.76-2.01-2.35v-5.64h-1.33l-.09-.21.53-.59h.89v-1.43l1.44-1.33.26.06v2.69h2.16c.19.2.14.64-.11.8h-2.05v4.98c0,1.56.66,1.83,1.14,1.83s.88-.16,1.15-.29l.18.53-1.38.68h0v.02h0Z"/>
  <path class="st0" d="M115,60.18c-.38-1.15-1.05-1.94-2.01-1.94-.7,0-1.21.55-1.21,1.29,0,.82.71,1.27,1.61,1.66,1.5.63,2.5,1.31,2.5,2.69,0,1.81-1.68,2.73-3.26,2.73-1.01,0-1.93-.37-2.28-.66-.14-.27-.32-1.62-.33-2.36l.55-.08c.35,1.27,1.23,2.44,2.42,2.44.7,0,1.33-.53,1.33-1.31,0-.82-.5-1.27-1.53-1.76-1.12-.53-2.47-1.19-2.47-2.71,0-1.41,1.18-2.58,3.02-2.58.84,0,1.38.18,1.78.35.15.43.37,1.64.42,2.09l-.53.14h0Z"/>
  <path class="st0" d="M47.15,1.61c1.86-.75,1.49,1,1.51,1,.06,2.03-.92,2.34-.9,2.34-2.07.9-1.86,1.71-1.86,1.71,0,1.27,1.86,1.09,1.86,1.09,2.3.02,2.13.88,2.13.87-.02,1.15-2.28,1.09-2.27,1.11-1.61-.04-1.17,1.5-1.17,1.48,0,1.46,2.17,1.71,2.17,1.71,1.32.56-2.09,2.86-2.09,2.86-2.49,1.54-2.63-1.19-2.63-1.21-.62-6.49-.96-6.67-.96-6.68-1.62-3.96.96-5.03.96-5.03,0,0,3.27-1.25,3.25-1.25h0ZM54.77,2.03c-.61.75-1.17.06-1.15.08-.41-.87-.9-.69-.9-.69-1.06.1-.36,3.11-.39,3.05,0,.9-1.37,2.38-1.37,2.38-.78.96,0,1.77,0,1.77.75.44,2.4-1.65,2.4-1.65.96-1,1.58-.88,1.62-.88.48-.02,2.63,1.21,2.63,1.21.8.23,1-.58,1.05-.58.56-.56-2.34-2.34-2.33-2.34-.52-.33.69-1.27.75-1.29.82-.75-.54-1.96-.54-1.96-.79-.9-1.23,0-1.23,0,0,0-.54.9-.56.9,0,0,.02,0,.02,0ZM52.77,11.12s-2.43,2.09-1.94,2.67c0,.02.36.96,1.52-.15-.02-.02,1.78-2.21,2.67-1.58,0,0,1.69,1.62,2.67.59.02.03,1.02-.7-.29-1.53-.02.02-1.46-.81-.33-1.4-.02,0,1.13-.6.18-1.75-.04-.02-.91-1.21-1.25.27,0,0-.93,1.71-1.58,1.23.02,0-1.36-1.4-1.86-1.29,0,0-.85.42-.48,1.82,0,.02.23.75.69,1.11h0ZM64.65,1.94c-.5-.1-1.03-.16-1.51-.33-.41-.14-1.16-.86-1.58-.65-.28.14-.26.71-.27.96-.03,1.04.35,2.04,1.26,2.63,1.18.76.26,3-1.09,2.08-1.56-1.05-1.13,1.1-1.13,1.08.04,1.38.91,1.44.89,1.44,1.19.4.65,1.31.65,1.31-.19,1.11-1.02.96-1.02.96h-.06c-1.35-.14.14,1.3.14,1.26,1,1.06,1.98.92,1.98.92,1.61,0,2.21-3.53,2.21-3.53.54-2.27,1.54-4.99,1.56-5.01.77-1.4.04-2.35-1.1-2.83-.28-.12-.59-.21-.91-.27h0s-.02-.02-.02-.02ZM40.52,29.57s-.6,8.98,1.89,10.22c.03,0,1.26.62.57-1.27,0,0-.35-2.84-.15-5.53,0,0-.27-10.91,3.57-12.56-.04,0,4.11-2.34,8.45-2.31.84.14,1.89-.1,2.75-.1,1.61,0,3.19.08,4.78.3.69.09,1.68.31,2.09.95.4.63.44,1.43.58,2.14.12.67.28,1.33.39,2.01.14.83.26,1.67.34,2.51.09.89.28,1.9.17,2.79,0,0-.71,5.83,1.05,6.49.66.25.57-1.89.58-2.14.05-4.03,0-8.06,0-12.09v-1.05s.65-4.76-3.46-4.65c0-.08-5.07.31-9.1-.27-1.84-.26-3.72-.33-5.37.73-.44.29-.59.53-1.1.52-.96,0-1.91.3-2.62.96-.32.29-.34.43-.77.44-2.24.07-4.07,1.56-4.47,3.81-.47,2.62-.16,5.44-.15,8.09h-.02,0ZM56.19,32.11v3.5c-.2,4.66-5.23,8.61-5.23,8.64-4.55,3.63-9.25,4.07-9.25,4.07-1.84.04-1.76-.49-1.76-.49-.12-1.11,1.84-1.61,1.88-1.65,3.69-.58,5.53-2.15,5.53-2.19,6.42-4.53,5.42-9.76,5.42-9.76.04-1.19-4.03-1.5-3.99-1.5-2.27-.31-1.73-2.42-1.73-2.42.15-3.38,1.73-1.38,1.73-1.38,0,0,2.06,1.41,2.06,1.42,1.56,1,1.17-.77,1.17-.77,0-.8-3.88-4.42-3.88-4.42-1.27-1.19-.96-1.65-.96-1.69.58-.92,1.8-.15,1.84-.15-.62-.58-.27-.96-.27-.92,2.11-2.19,9.02-2,9.07-2,2.03.11,1.15,1.84,1.15,1.84l1.38,1.11c2.26,2.03-4.23,4.19-4.23,4.19-1.11.46-.3,2.15-.34,2.11.58,1.15,3.03-1.3,2.99-1.32,1.31-2.08,2.61.59,2.65.55,1.88,2.53-5.22,3.23-5.22,3.23h-.01ZM55.64,26.14c.29.03.63-.03.83-.25-.28-.58-.57-.7.14-.99.42-.18.85-.42,1.2-.72.29-.26.47-.55.68-.86.23-.33-.22-.34-.44-.33-1.16.02-2.38.47-3.48.78-.47.13-3.13.65-2.93,1.38.04.15.14.18.24.28h0c.12.12.86,1.47,1.52,1.47.46,0,.76-.96,1.27-1.02.32-.04.64.24.96.27h0ZM82.62,9.49s3.27-.8,3.3-.77c5.15-.46,3.92,2.88,3.96,2.84-.65,1.33-.69,3.45-.69,3.45-.58,3.53-6.76,5.03-6.76,5.03,0,0-.04,2.57.04,2.57,2.38-1.27,3.88-1.23,3.88-1.23,3.53-.38,1.65,4.65,1.69,4.65-.42,3.06-3.76,4.18-3.8,4.18-1.28.39-1.8,1.26-1.7,2.58.12,1.58-.17,3.15-.09,4.73.03.6-.55.92-.88,1.36-.42.56-.72,1.22-.79,1.91-.12,1.11.42,3.26-.68,4.06-1.69,1.23-1.96-3.49-1.96-3.49l-.03-13.14c0-.65-.03-1.3-.04-1.95-.07-3.11-.12-6.21-.19-9.32-.03-1.68-.06-3.35-.1-5.03-.01-.62-.04-1.25-.05-1.87-.05-2.26.04-4.23,1.68-5.98,1.67-1.78,3.97-2.04,6.24-2.4,1.31-.21,3.7-.85,4.05,1.05,0,0,.34,1.88.3,1.8.14,2.07-5.44,1.54-5.4,1.54-2.46.35-1.96,3.42-1.96,3.42h-.02ZM82.4,26.35s-.1,1.01,1.17,1.02c-.04.02,1.23.29,1.27-1.44.04.04.37-2.23-1.02-1.19-.06,0-1.41.54-1.42,1.62h0ZM83.15,16.74s2.19.46,2.31-1.61c0-.04.61-2.31-.5-1.84,0,.04-1.8.81-1.8.81,0,0-1.69,2.11,0,2.65h0ZM91.74,17.97c-.09,1.8.63,2,.59,1.96,1.04.27.96-1.54,1-1.65.35-1.8,2.19-7.83,2.19-7.87.88-1.69,2.46-1.8,2.46-1.84,2.72-.5,3.88-1.62,3.8-1.58.82-.65,1.26-.04,1.3,0,.38.42,3.73,2.73,3.76,2.73,1.54,1.07,1.38,1.88,1.38,1.88,0,0,0,8.1.04,8.18-.42,2.31,0,2.38,0,2.42,2.11.73,2.38-4.26,2.38-4.26,0-3.34.92-6.03.92-6.11,1.23-3.07-2.26-4.65-2.26-4.61,0-.13-1.27-.87-1.43-.99-.45-.34-.88-.69-1.3-1.06-.63-.55-1.73-1.26-2.09-2.02-.19-.4-.27-.8-.71-.98-.52-.21-1.19-.03-1.72,0-.76.05-1.64.45-2.33.76-1.21.54-2.43,1.06-3.62,1.64-.18.09-1.87.72-1.89.93-2.84,1.84-2.46,6.87-2.46,6.87,0,0,.04,5.65-.02,5.61h.01ZM96.52,12.87s-1.23.46-.23,2.31c0-.04.35,1.61,3.5,1.46,0,.04,6.68.52,6.87-1.62,0,.05.23-1.34-2.65-1.78-.04-.01-5.03-1.13-7.49-.36h0ZM101.02,22.93s-.08,1.84,1.54,3.96c-.04.19,1.76,1.5,0,3.11,0,0-4.07,3.19-2.92,7.72-.03,0,.34,4.42,8.37,7.69,0,0,6.91,3.45,7.84,1.5-.04.04.42-.04-.84-.54.04,0-8.33-2.96-11.36-7.84,0,.08-1.58-3.27.61-5.07-.04.04,2.58-1.84,2.42-4.53-.03-.52.01-.97-.14-1.49-.16-.57-.4-1.1-.73-1.6-.31-.45-.81-.94-.98-1.47-.26-.81.02-2.06.8-2.49.68-.38,1.57-.38,2.18-.91.32-.27.41-.71.24-1.1-.38-.9-1.3-.99-2.14-1.05-1.31-.09-2.62-.02-3.93.08,0,.04-2.96.42-6.26.08-.08,0-2-1.34-2.53,1.84-.04-.04-.92,4.34,1.58,2.96l1.14-.55s-.03,1.67-3.75,4.74c-1.23,1.01-1.7,2.53-1.91,4.06-.32,2.31-.38,4.63-.74,6.93-.06.37-.38,1.25-.24,1.61.12.3.63.27.9.08.95-.68.83-2.17.84-3.16,0-.87.03-1.74.12-2.61.28-2.73,1.75-5.65,4.37-6.8-.04,0,2.96-.92,4.22-3.99,0,.04.31-2.3,1.31-1.15h-.01ZM15.24.22c-.59.68-.71,1.75-.78,2.62-.06.62-.09,1.25-.14,1.87-.16,1.71-4.3,4.03-4.34,4.04-1.07.54-2.06,1.2-2.99,1.94-1.43,1.14-2.69,2.48-3.8,3.94-.95,1.24-1.77,2.62-2.34,4.08-.16.42-.37,1.11-.47,1.55C.07,21.55-.02,22.55,0,23.88,0,24.34,0,24.82.17,25.26c.09.24.24.47.46.61.14.08.61.26.77.16.21-.12.36-.55.38-.78.05-.6.18-1.11.18-1.08.55-1.44,1.09-4.11,1.12-4.14.17-.62.4-1.24.7-1.81.23-.44.51-.85.78-1.27,1.36-2.1,2.49-2.42,4.02-3.41.56-.36,1.08-.79,1.63-1.16.71-.47,1.44-.92,2.18-1.35.52-.31,1.05-.61,1.58-.91.44-.26.92-.45,1.36-.7.27-.15.51-.32.83-.26.33.06.59.3.89.43.95.43,1.87,1.03,2.77,1.57.1.06,1.42.81,1.49.87,1.43,1.03,2.27,1.91,2.48,2.12.9.93,1.71,2.01,2.2,3.2.49,1.21.65,2.54.87,3.82.07.41.05,1.06.23,1.43.49,1.01.07,1.1.1,1.16-.13.67.2.45.2.45.18-.38.47.07.47.04.26.42.62-.21.66-.21.44-.93-.07-1.16-.07-1.2-.65-.26-.31-.65-.31-.65.35-.27.59-.61.7-1.03.24-.87.16-1.85.02-2.73-.2-1.2-.44-2.43-.88-3.57-.5-1.31-1.36-2.45-2.29-3.49-.43-.47-2.06-2.12-2.68-2.5-2.69-1.64-4.31-2.98-4.27-2.95-.61-.63-.61-1.17-.61-1.17.31-1.49.03-2.31.03-2.31-.26-.68-.64-1.38-1.22-1.84-.22-.17-.54-.41-.87-.53-.31-.11-.63-.11-.86.15,0,0,.03,0,.03,0ZM11.38,13.06s-.92-.66-1.61,1.78c0-.02-.84,2.41-.2,3.37,0,0,.4.74,1.92,1.49,0,.02.32.13-.03.57,0,0-1.75,2.01-4.4,7.63-.01.02-2.43,4.06-3.41,11.12,0,0-.78,4.37-.06,7.96.03.02.25,1.22.86,1.43,0-.02-.01.63.55.73.22.07.41-.57.46-.69.08-.22.14-.44.23-.66.16-.41.09-.74.04-1.17-.05-.45-.09-.9-.09-1.35,0-.25.01-.5.04-.75.06-.7.24-1.39.36-2.08.11-.66.32-1.23.44-1.89.31-1.57.55-3.21,1-4.75.2-.68.42-1.38.74-2.01.01,0,.36-1.39,1.19-3,1.18-2.26,2.95-5.12,4.11-7.48.02,0,.83-1.64,1.12-1.77.38-.16,1.91,1.19,4.47,4.2,0-.02,2.59,2.85,4.38,6.82,0,.02,1.9,3.95,2.04,10.52.02.02.1,4.47,1.01,2.93.01-.04.91-1.31.82-4.16.03-.02-.54-7.82-.91-9.55-.16-.8-.4-1.59-.64-2.37-.54-1.67-1.15-3.33-2.06-4.84-.64-1.07-1.45-2.05-2.19-3.06-.58-.79-1.21-1.53-1.89-2.23-.55-.58-1.13-1.13-1.73-1.65,0,0,.75-.95,1.93-.84-.05,0,1.72.27,1.83-1.69.02,0-.37-2.43-1.87-3.07,0,0-.37-.38-1.53.77,0,.03-2.73,2.07-2.73,2.07,0,0-.34.7-1.17.09,0,.02-1.66-.83-2.44-1.83-.03-.02-.57-.62-.57-.62h-.01s0,.03,0,.03Z"/>
</svg>