<?xml version="1.0" encoding="UTF-8"?>
<svg id="Layer_1" xmlns="http://www.w3.org/2000/svg" version="1.1" viewBox="0 0 300 300">
  <!-- Generator: Adobe Illustrator 29.5.0, SVG Export Plug-In . SVG Version: 2.1.0 Build 137)  -->
  <defs>
    <style>
      .st0 {
        font-family: MyriadPro-Regular, 'Myriad Pro';
        font-size: 12px;
      }

      .st1 {
        fill: #6a6260;
      }
    </style>
  </defs>
  <text class="st0" transform="translate(817.64 615.84)"><tspan x="0" y="0">scheme_groups_dropdown</tspan></text>
  <g>
    <g>
      <path class="st1" d="M34.3,110.97v4.76h6.72l1.32-1.46,2.84,2.17c-.19.22-.58.47-1.16.58v9.22c-.03.19-1.4.72-2.28.72h-.47v-2.29h-6.96v9.69c0,.33-1.18,1.02-2.23,1.02h-.55v-10.71h-6.91v1.76c0,.28-1.18.91-2.31.91h-.41v-12.83l2.95,1.21h6.69v-5.92l3.8.38c-.08.39-.27.66-1.02.77ZM31.52,123.88v-7.35h-6.91v7.35h6.91ZM41.27,116.53h-6.96v7.35h6.96v-7.35Z"/>
      <path class="st1" d="M54.91,110.39l2.67,1.18h17.29l1.29-1.46,2.67,2.12c-.19.22-.63.44-1.18.58v21.5c-.03.22-1.18.88-2.12.88h-.39v-1.84h-17.78v1.07c0,.33-.96.96-2.04.96h-.41v-24.99ZM75.15,112.35h-17.78v20.23h17.78v-20.23ZM66.39,125.89l.08.36c-1.4.74-3.5,1.76-6.44,3.06-.11.36-.33.58-.61.66l-1.43-2.73c1.51-.17,4.95-.71,8.4-1.35ZM69.2,113.39c-.06.33-.33.63-.91.66l.06,2.45h2.81l.61-.77c-.17-.03-.3-.08-.47-.17-.3-.91-1.21-1.93-1.95-2.5l.25-.22c3.25.22,3.77,1.79,3.19,2.5.5.39,1.24,1.02,1.76,1.51-.08.3-.33.44-.72.44h-5.45c.14,2.17.41,4.29.99,6.17.8-1.51,1.46-3.19,1.93-5.04l3.03,1.24c-.14.33-.5.55-1.1.47-.8,2.17-1.79,4.02-2.97,5.56.47.96,1.07,1.82,1.82,2.53.33.36.47.36.66-.08.3-.58.72-1.71,1.05-2.67l.33.06-.41,3.66c.69,1.13.8,1.65.5,2.01-.83.88-2.42.06-3.33-.85-.85-.85-1.57-1.82-2.15-2.86-1.76,1.82-3.85,3.14-6.19,4.1l-.28-.36c2.12-1.29,4.07-3.11,5.7-5.4-1.02-2.48-1.54-5.37-1.76-8.53h-7.85l-.22-.8h8.01c-.06-1.18-.11-2.42-.11-3.69l3.19.58ZM59.32,118.51l2.01.85h1.9l.94-.96,2.06,1.51c-.14.17-.47.36-.85.41v4.13c-.03.19-.99.66-1.62.66h-.3v-.85h-2.23v.8c0,.14-.85.58-1.62.58h-.27v-7.13ZM63.45,123.47v-3.3h-2.23v3.3h2.23Z"/>
      <path class="st1" d="M97.91,115.35c-.06.3-.33.44-.72.44h-10.24l-.22-.8h7.4l1.35-1.71s1.51,1.18,2.42,2.06ZM96.56,122.39l-.03-.05h3.22c.33-1.43.72-3.28,1.07-5.15h-2.95l-.25-.8h3.33l.66-3.72h-4.27l-.22-.8h10.57l1.4-1.87s1.62,1.29,2.56,2.23c-.06.3-.36.44-.72.44h-6.83l-.69,3.72h3.03l1.24-1.29,2.53,1.9c-.17.22-.58.41-1.1.52v4.82h.3l1.24-1.71s1.38,1.21,2.17,2.06c-.06.3-.3.44-.69.44h-15.42l-.14-.5c-.08.25-.3.33-.63.33h-7.9l-.22-.8h5.48l1.18-1.51s1.21.96,2.04,1.73ZM96.69,118.87c-.08.3-.33.44-.72.44h-7.9l-.22-.8h5.48l1.18-1.51s1.35,1.05,2.17,1.87ZM88.49,135.19h-.33v-10.46l2.42,1.02h2.78l1.16-1.27,2.5,1.9c-.17.22-.58.41-1.07.52v6.52c-.03.19-1.16.71-1.95.71h-.39v-1.32h-3.14v1.62c0,.22-.99.74-1.98.74ZM91.3,113.97c-.22-1.27-1.18-2.81-2.04-3.72l.25-.14c6.36.83,4.24,5.48,1.79,3.85ZM93.61,126.55h-3.14v5.48h3.14v-5.48ZM98.79,135.22h-.36v-10.6l2.61,1.1h6.22l1.24-1.38,2.67,2.06c-.19.22-.61.44-1.16.55v7.29c-.03.19-1.27.69-2.09.69h-.39v-1.51h-6.63v.96c0,.25-1.07.83-2.12.83ZM100.91,126.52v6.11h6.63v-6.11h-6.63ZM102.17,122.34h4.57v-5.15h-3.47c-.36,1.87-.77,3.74-1.1,5.15Z"/>
      <path class="st1" d="M145.6,114.8c-.08.3-.39.44-.77.44h-24.47l-.22-.8h20.92l1.62-1.98s1.79,1.35,2.92,2.34ZM141.67,118.82c-.06.3-.33.44-.74.44h-16.16l-.22-.8h12.88l1.49-1.82s1.68,1.24,2.75,2.17ZM141.75,122.81c-.08.3-.36.44-.74.44h-16.24l-.22-.8h12.96l1.49-1.82s1.68,1.24,2.75,2.17ZM125.21,135.33h-.36v-10.02l2.81,1.16h10.27l1.32-1.46,2.81,2.15c-.17.22-.58.44-1.13.55v6.72c-.03.19-1.4.66-2.28.66h-.44v-1.54h-10.74v.94c0,.25-1.16.85-2.26.85ZM138.2,127.27h-10.74v5.48h10.74v-5.48ZM131.98,113.83c-.17-1.4-1.16-3-2.12-3.91l.25-.19c6.63.88,4.38,5.86,1.87,4.1Z"/>
      <path class="st1" d="M170.43,118.93h2.81l1.62-1.54,2.59,2.42c-.22.3-.52.36-1.21.41-1.24,3.44-2.97,6.47-5.56,8.92,2.48,1.73,5.4,2.97,8.75,3.83l-.08.3c-1.29.11-2.31.88-2.83,2.15-3.11-1.13-5.73-2.62-7.85-4.6-2.83,2.09-6.5,3.63-11.23,4.57l-.19-.39c4.18-1.29,7.54-3.17,10.13-5.53-2.45-2.86-4.1-6.61-5.04-11.62-.69,7.1-2.64,13.18-8.86,17.48l-.27-.25c5.67-6.08,6.72-13.93,6.72-22.65h-5.29l-.25-.8h15.88l1.27-1.24,2.48,2.26c-.19.22-.63.36-1.13.39-.61,1.57-1.68,4.16-2.45,5.89ZM170.34,112.43h-7.68l-.14,2.92c1.02,5.56,3.25,9.58,6.47,12.47,2.04-2.34,3.47-5.04,4.38-8.12h-3.11l-.88.91-2.39-1.54c.22-.19.58-.39.91-.52.8-1.68,1.84-4.35,2.45-6.11Z"/>
      <path class="st1" d="M212.12,116.31c-.08.3-.33.44-.74.44h-3.77c-1.07,4.51-3.03,8.37-6.17,11.48,3.14,2.15,6.91,3.61,11.04,4.51l-.08.33c-1.32.14-2.34.96-2.84,2.31-3.94-1.24-7.29-3-9.99-5.51-3.17,2.48-7.32,4.35-12.69,5.53l-.17-.39c4.9-1.62,8.64-3.85,11.45-6.61-2.62-2.95-4.49-6.74-5.53-11.67h-5.48l-.25-.8h20.42l1.71-2.26s1.95,1.54,3.08,2.62ZM193.18,116.75c1.24,4.27,3.47,7.57,6.44,10.1,2.45-2.92,3.96-6.3,4.71-10.1h-11.15ZM199.65,114.99c-.41-1.71-1.87-3.72-3.22-4.93l.25-.19c7.76,1.43,5.7,6.96,2.97,5.12Z"/>
      <path class="st1" d="M222.91,118.6c.22.52.39,1.05.47,1.54h.63l-.33-9.25,2.31.52c.91-.58,1.79-1.24,2.29-1.65l2.2,1.71c-.14.17-.44.19-.83.05-.85.25-2.2.58-3.58.77l.08,2.09h1.1l.94-1.18s1.1.85,1.76,1.54c-.05.3-.3.44-.66.44h-3.11l.08,2.12h1.05l.99-1.24s1.1.88,1.79,1.6c-.08.3-.33.44-.69.44h-3.11l.06,2.04h12.69l.11-2.04h-2.59l-.25-.8h2.89l.11-2.12h-2.67l-.25-.8h2.97l.11-2.12h-3.08l-.25-.77h3.14l1.07-1.27,2.45,1.95c-.19.22-.44.3-.94.36l-.41,7.6h.14l1.46-1.43,2.56,2.45c-.22.19-.5.25-1.05.28-.91.66-2.48,1.62-3.52,2.15l-.3-.19c.28-.61.63-1.62.91-2.45h-18.14c.14,1.54-.33,2.75-1.46,3.28-1.84.85-3.11-1.38-1.07-2.48.72-.39,1.57-1.49,1.54-3.11l.38-.03ZM236.61,123.36l1.51-1.46,2.59,2.31c-.22.22-.52.28-1.1.3-1.24.52-2.97,1.18-4.62,1.71h.05c-.05.39-.33.58-.91.66v1.13h6.5l1.54-2.04s1.76,1.4,2.81,2.39c-.08.3-.36.44-.74.44h-10.1v3.25c0,1.93-.44,3.03-3.66,3.33-.08-.83-.25-1.43-.66-1.87-.47-.41-1.13-.69-2.5-.91v-.39s3.08.19,3.66.19c.44,0,.58-.14.58-.5v-3.11h-10.79l-.22-.8h11.01v-2.12l2.17.19c.83-.58,1.68-1.29,2.37-1.93h-10.29l-.25-.8h11.07ZM236.61,115.9c-.14.28-.44.33-.91.19-.3.38-.69.8-1.13,1.18,1.49,1.29.8,2.81-.47,2.26-.19-.41-.5-.83-.88-1.24-1.02.66-2.17,1.24-3.3,1.62l-.25-.41c.91-.58,1.84-1.32,2.61-2.12-.55-.5-1.18-.94-1.73-1.27l.25-.28c.96.14,1.73.33,2.37.58.44-.55.83-1.1,1.1-1.65l2.34,1.13ZM236.17,111.16c-.14.28-.44.33-.91.19-.25.33-.58.69-.96,1.02,1.46,1.1.88,2.5-.3,2.06-.22-.33-.55-.72-.96-1.07-.91.63-1.93,1.18-2.92,1.6l-.28-.41c.77-.55,1.54-1.24,2.23-2.01-.55-.41-1.1-.77-1.6-1.02l.25-.3c.83.08,1.51.22,2.09.41.41-.55.77-1.1,1.05-1.62l2.31,1.16Z"/>
      <path class="st1" d="M263.12,129.47c-2.09,1.79-5.64,3.8-9.25,4.87l-.22-.36c2.95-1.71,5.97-4.51,7.43-6.66l3.08,1.93c-.19.28-.44.39-1.05.22ZM275.12,127.21c-.22-.85-.72-1.82-1.32-2.72-1.51.3-3.33.63-5.45,1.02v6.69c0,1.79-.47,2.92-3.66,3.19-.05-.77-.19-1.38-.58-1.73-.41-.36-1.02-.66-2.37-.83v-.39s2.75.17,3.33.17c.44,0,.58-.14.58-.47v-6.19c-2.2.38-4.62.77-7.21,1.16-.19.36-.44.58-.69.69l-1.4-2.97s.77-.08,1.16-.22c2.62-.96,5.86-2.75,8.7-4.62-1.93.47-4.35,1.02-6.99,1.54-.17.28-.36.47-.55.55l-1.35-2.81s.58-.05.85-.19c2.53-.99,5.84-3.58,7.49-5.26-3.28.85-6.96,1.6-10.41,2.01l-.14-.44c5.48-1.27,12.11-3.8,15.42-5.75l2.75,2.26c-.25.28-.77.3-1.57.05-1.46.55-3.25,1.1-5.2,1.65l2.5,1.46c-.17.28-.55.47-1.16.3-1.76,1.24-4.87,2.89-7.74,3.99,2.04-.08,4.82-.28,7.71-.47,1.71-1.21,3.14-2.37,4.07-3.3l2.89,2.23c-.19.25-.63.41-1.27.17-2.89,2.06-8.7,4.93-13.79,6.83,3.36-.17,8.4-.5,13.71-.85-.77-1.1-1.68-2.15-2.5-2.92l.3-.19c8.12,2.62,6.47,8.09,3.88,6.39ZM276.06,134.04c-1.24-2.17-4.24-4.84-6.52-6.39l.25-.28c10.27,2.09,9.3,8.04,6.28,6.66Z"/>
    </g>
    <g>
      <path class="st1" d="M22.27,175.98h1.93v12.26h6.74v1.82h-8.67v-14.09h0Z"/>
      <path class="st1" d="M37.32,175.98h2.22l5.54,14.09h-2.07l-1.73-4.34h-5.77c-.58,1.45-1.12,2.89-1.7,4.34h-2.04l5.54-14.09h0ZM40.59,183.86c-.7-1.77-1.46-3.71-2.15-5.58h-.03l-2.19,5.58h4.37,0Z"/>
      <path class="st1" d="M47.3,175.98h2.04c2.45,3.56,4.91,7.06,7.38,10.79h.03v-10.79h1.93v14.09h-2.04c-2.44-3.5-4.91-6.95-7.38-10.62h-.03v10.62h-1.93v-14.09Z"/>
      <path class="st1" d="M61.62,183.06c0-4.52,3.21-7.37,7.08-7.37,2.87,0,5.42,1.57,6.34,4.26l-1.78.73c-.79-1.93-2.44-3.16-4.53-3.16-2.74,0-5.05,2.07-5.05,5.58,0,3.88,2.82,5.45,5.25,5.45s4.26-1.63,4.55-3.94h-4.35v-1.63h6.28v7.08h-1.52c-.03-.88-.06-1.81-.09-2.69h-.09c-.97,1.9-2.69,3-5.13,3-4.06,0-6.95-3.03-6.95-7.32h-.01Z"/>
      <path class="st1" d="M78.47,184.76v-8.78h1.95v8.63c0,2.57,1.07,3.96,3.27,3.96s3.25-1.39,3.25-3.96v-8.63h1.95v8.78c0,2.72-1.1,5.62-5.23,5.62-3.9,0-5.19-2.6-5.19-5.62Z"/>
      <path class="st1" d="M96.17,175.98h2.22l5.54,14.09h-2.07l-1.73-4.34h-5.77c-.58,1.45-1.12,2.89-1.7,4.34h-2.04l5.54-14.09h0ZM99.44,183.86c-.7-1.77-1.46-3.71-2.15-5.58h-.03l-2.19,5.58h4.37,0Z"/>
      <path class="st1" d="M104.87,183.06c0-4.52,3.21-7.37,7.08-7.37,2.87,0,5.42,1.57,6.34,4.26l-1.78.73c-.79-1.93-2.44-3.16-4.53-3.16-2.74,0-5.05,2.07-5.05,5.58,0,3.88,2.82,5.45,5.25,5.45s4.26-1.63,4.55-3.94h-4.35v-1.63h6.28v7.08h-1.52c-.03-.88-.06-1.81-.09-2.69h-.09c-.97,1.9-2.69,3-5.13,3-4.06,0-6.95-3.03-6.95-7.32h-.01Z"/>
      <path class="st1" d="M121.88,175.98h9.01v1.78h-7.08v4.17h6.72v1.86h-6.72v4.44h7.26v1.82h-9.19v-14.09h0Z"/>
      <path class="st1" d="M138.04,186.75c0-1.92,1.44-3.1,2.91-4.05-.9-.97-1.9-2.24-1.9-3.68,0-1.86,1.54-3.35,3.7-3.35,2.31,0,3.65,1.7,3.65,3.38s-1.43,2.98-2.82,3.86l2.53,2.65c.36-.78.64-1.66.85-2.6l1.73.36c-.32,1.32-.76,2.53-1.31,3.54l3.03,3.16h-2.39l-1.7-1.75c-1.05,1.31-2.36,2.07-4.05,2.07-2.34,0-4.26-1.37-4.26-3.61v.02ZM142.4,188.67c1.14,0,2.04-.64,2.72-1.61l-3.1-3.2c-1.14.74-2.07,1.46-2.07,2.68,0,1.31,1.08,2.13,2.45,2.13ZM142.53,181.83c1.19-.81,1.93-1.46,1.93-2.63s-.76-1.84-1.77-1.84c-.96,0-1.7.64-1.7,1.68s.73,1.93,1.54,2.8h0Z"/>
      <path class="st1" d="M156.45,175.98h1.93v12.26h6.74v1.82h-8.67v-14.09h0Z"/>
      <path class="st1" d="M167.45,175.98h1.93v14.09h-1.93v-14.09Z"/>
      <path class="st1" d="M171.72,177.76v-1.78h11.02v1.78h-4.53v12.29h-1.95v-12.29h-4.54Z"/>
      <path class="st1" d="M185.06,175.98h9.01v1.78h-7.08v4.17h6.72v1.86h-6.72v4.44h7.26v1.82h-9.19v-14.09h0Z"/>
      <path class="st1" d="M197.23,175.98h5.16c1.78,0,4.75.98,4.75,4.35,0,2.53-1.55,3.95-3.44,4.24v.02c1.23,1.82,2.45,3.65,3.67,5.48h-2.19l-3.56-5.34h-2.48v5.34h-1.93v-14.09ZM202.1,183.01c1.57,0,3-.76,3-2.62s-1.49-2.63-3.06-2.63h-2.89v5.25h2.94Z"/>
      <path class="st1" d="M214.13,175.98h2.22l5.54,14.09h-2.07l-1.73-4.34h-5.77c-.58,1.45-1.12,2.89-1.7,4.34h-2.04l5.54-14.09h0ZM217.41,183.86c-.7-1.77-1.46-3.71-2.15-5.58h-.03l-2.19,5.58h4.37Z"/>
      <path class="st1" d="M221.01,177.76v-1.78h11.02v1.78h-4.53v12.29h-1.95v-12.29h-4.54Z"/>
      <path class="st1" d="M234.2,184.76v-8.78h1.95v8.63c0,2.57,1.07,3.96,3.27,3.96s3.25-1.39,3.25-3.96v-8.63h1.95v8.78c0,2.72-1.1,5.62-5.23,5.62-3.9,0-5.19-2.6-5.19-5.62h0Z"/>
      <path class="st1" d="M248.25,175.98h5.16c1.78,0,4.75.98,4.75,4.35,0,2.53-1.55,3.95-3.44,4.24v.02c1.23,1.82,2.45,3.65,3.67,5.48h-2.19l-3.56-5.34h-2.48v5.34h-1.93v-14.09ZM253.13,183.01c1.57,0,3-.76,3-2.62s-1.49-2.63-3.06-2.63h-2.89v5.25h2.94Z"/>
      <path class="st1" d="M261.21,175.98h9.01v1.78h-7.08v4.17h6.72v1.86h-6.72v4.44h7.26v1.82h-9.19v-14.09h0Z"/>
    </g>
    <g>
      <path class="st1" d="M21.89,148.74h5.19c4.7,0,6.68,3.15,6.68,6.95,0,4.19-2.42,7.13-6.51,7.13h-5.34v-14.09h-.01ZM27.13,161.03c2.6,0,4.58-1.66,4.58-5.22,0-3.9-2.39-5.29-5.11-5.29h-2.78v10.51s3.3,0,3.3,0Z"/>
      <path class="st1" d="M36.7,148.74h9.01v1.78h-7.08v4.17h6.72v1.86h-6.72v4.44h7.26v1.82h-9.19v-14.09h0Z"/>
      <path class="st1" d="M48.87,148.74h5.16c1.9,0,4.75.98,4.75,4.32s-2.92,4.48-4.57,4.48h-3.41v5.29h-1.93s0-14.09,0-14.09ZM53.75,155.68c1.57,0,3-.7,3-2.58s-1.49-2.57-3.06-2.57h-2.89v5.14h2.94Z"/>
      <path class="st1" d="M64.29,148.74h2.22l5.54,14.09h-2.07l-1.73-4.34h-5.77c-.58,1.45-1.12,2.89-1.7,4.34h-2.04l5.54-14.09ZM67.56,156.63c-.7-1.77-1.46-3.71-2.15-5.58h-.03l-2.19,5.58h4.37Z"/>
      <path class="st1" d="M74.27,148.74h5.16c1.78,0,4.75.98,4.75,4.35,0,2.53-1.55,3.95-3.44,4.24v.02c1.23,1.82,2.45,3.65,3.67,5.48h-2.19l-3.56-5.34h-2.48v5.34h-1.93v-14.09h0ZM79.16,155.77c1.57,0,3-.76,3-2.62s-1.49-2.63-3.06-2.63h-2.89v5.25h2.94Z"/>
      <path class="st1" d="M85.53,150.53v-1.78h11.02v1.78h-4.53v12.29h-1.95v-12.29h-4.54Z"/>
      <path class="st1" d="M98.87,148.74h2.39c1.68,3.71,3.36,7.46,5.02,11.18h.03c1.68-3.71,3.35-7.46,5.02-11.18h2.4v14.09h-1.96v-10.41h-.08c-1.54,3.47-3.09,6.94-4.62,10.41h-1.55c-1.54-3.47-3.09-6.94-4.62-10.41h-.06v10.41h-1.96v-14.09h-.01Z"/>
      <path class="st1" d="M117.51,148.74h9.01v1.78h-7.08v4.17h6.72v1.86h-6.72v4.44h7.26v1.82h-9.19v-14.09h0Z"/>
      <path class="st1" d="M129.68,148.74h2.04c2.45,3.56,4.91,7.06,7.38,10.79h.03v-10.79h1.93v14.09h-2.04c-2.44-3.5-4.91-6.95-7.38-10.62h-.03v10.62h-1.93v-14.09Z"/>
      <path class="st1" d="M143.41,150.53v-1.78h11.02v1.78h-4.53v12.29h-1.95v-12.29h-4.54Z"/>
      <path class="st1" d="M160.15,155.8c0-4.28,3.18-7.35,7.09-7.35s7.09,3.16,7.09,7.35-3.15,7.33-7.09,7.33-7.09-3.03-7.09-7.33ZM167.26,161.31c2.77,0,5.02-2.33,5.02-5.51s-2.24-5.52-5.02-5.52-5.05,2.31-5.05,5.52,2.31,5.51,5.05,5.51Z"/>
      <path class="st1" d="M177.25,148.74h8.85v1.83h-6.92v4.35h6.56v1.86h-6.56v6.05h-1.93v-14.09h0Z"/>
      <path class="st1" d="M192.42,155.78c0-4.57,3.29-7.33,7.09-7.33,2.8,0,5.39,1.52,6.33,4.26l-1.78.73c-.78-1.93-2.45-3.16-4.55-3.16-2.78,0-5.04,2.11-5.04,5.58,0,3.82,2.71,5.45,5.24,5.45s4.21-1.61,4.87-3.86l1.78.64c-1.02,3.16-3.41,5.05-6.74,5.05-4.21,0-7.21-2.98-7.21-7.35h0Z"/>
      <path class="st1" d="M208.75,148.74h1.93v6.12h7.33v-6.12h1.93v14.09h-1.93v-6.1h-7.33v6.1h-1.93v-14.09Z"/>
      <path class="st1" d="M223.74,148.74h1.93v14.09h-1.93v-14.09Z"/>
      <path class="st1" d="M229.46,148.74h2.04c2.45,3.56,4.91,7.06,7.38,10.79h.03v-10.79h1.93v14.09h-2.04c-2.44-3.5-4.91-6.95-7.38-10.62h-.03v10.62h-1.93v-14.09Z"/>
      <path class="st1" d="M244.65,148.74h9.01v1.78h-7.08v4.17h6.72v1.86h-6.72v4.44h7.26v1.82h-9.19v-14.09h0Z"/>
      <path class="st1" d="M255.72,158.98l1.81-.64c.58,2.13,2.06,3,3.61,3,1.43,0,2.89-.69,2.89-2.25s-1.41-1.92-2.69-2.31l-1.31-.4c-1.39-.44-3.83-1.34-3.83-3.99s2.24-3.94,4.72-3.94,4.23,1.37,4.76,3.32l-1.77.73c-.47-1.37-1.54-2.28-3.09-2.28s-2.58.81-2.58,2.02c0,1.52,1.73,2.1,2.72,2.42l1.43.45c1.44.47,3.71,1.1,3.71,3.71s-2.13,4.29-4.96,4.29c-2.4,0-4.67-1.25-5.43-4.15h0Z"/>
      <path class="st1" d="M268.92,148.74h9.01v1.78h-7.08v4.17h6.72v1.86h-6.72v4.44h7.26v1.82h-9.19v-14.09h0Z"/>
    </g>
  </g>
</svg>