<?xml version="1.0" encoding="UTF-8"?>
<svg id="Layer_1" xmlns="http://www.w3.org/2000/svg" version="1.1" viewBox="0 0 539.44 71.12">
  <!-- Generator: Adobe Illustrator 29.8.0, SVG Export Plug-In . SVG Version: 2.1.1 Build 160)  -->
  <defs>
    <style>
      .st0 {
        fill: #6a6260;
      }

      .st1 {
        fill: none;
        stroke: #6a6260;
        stroke-miterlimit: 10;
      }
    </style>
  </defs>
  <g>
    <path class="st0" d="M9.42,56.64c-.15-.76-.27-1.13-.54-1.54-.3-.53-.73-.69-2.18-.69h-1.45c-.55,0-.62.04-.62.6v4.56h1.98c1.74,0,1.82-.17,2.07-1.4h.53v3.68h-.53c-.25-1.3-.33-1.53-2.07-1.53h-1.98v3.47c0,1.65.15,1.76,1.9,1.88v.54H1.32v-.54c1.53-.12,1.69-.23,1.69-1.88v-7.62c0-1.67-.16-1.77-1.63-1.88v-.54h8.43c0,.69.09,1.92.19,2.82l-.58.08h0Z"/>
    <path class="st0" d="M16.98,66.43c-.29,0-.68-.18-.9-.37-.25-.27-.36-.54-.46-.86-.77.52-1.68,1.23-2.26,1.23-1.36,0-2.3-1.13-2.3-2.34,0-.94.5-1.54,1.55-1.9,1.15-.38,2.55-.9,2.97-1.24v-.35c0-1.38-.65-2.17-1.61-2.17-.38,0-.67.15-.86.39-.25.25-.42.67-.58,1.26-.07.31-.28.44-.55.44-.35,0-.84-.38-.84-.82,0-.29.24-.5.61-.77.54-.38,1.78-1.13,2.87-1.34.58,0,1.15.17,1.57.52.67.56.86,1.34.86,2.34v3.56c0,.87.34,1.15.67,1.15.24,0,.5-.1.69-.21l.19.5-1.63.98h0ZM15.58,61.6c-.4.21-1.32.61-1.72.81-.75.35-1.17.7-1.17,1.4,0,.99.77,1.48,1.36,1.48.5-.02,1.17-.35,1.53-.69v-2.99h0Z"/>
    <path class="st0" d="M26.54,64.47c-.85,1.11-2.14,1.96-3.27,1.96-2.41,0-3.83-1.96-3.83-4.01,0-1.47.63-2.76,1.92-3.76,1-.76,2.15-1.07,2.89-1.07s1.4.25,1.71.5c.25.21.31.38.31.59,0,.4-.42.82-.63.82-.09,0-.19-.06-.36-.21-.58-.54-1.26-.78-1.92-.78-1.27,0-2.38,1.05-2.38,3.06,0,2.67,1.82,3.55,2.9,3.55.82,0,1.45-.23,2.34-1.05l.33.4s-.01,0,0,0h0Z"/>
    <path class="st0" d="M36.88,65.75c-.89.13-1.87.4-2.82.69l-.12-.12v-1.35c-.43.33-.89.67-1.42,1-.56.32-.96.48-1.47.48-1.29,0-2.37-.79-2.37-2.86v-3.75c0-1.06-.08-1.13-1.17-1.34v-.44c.91-.05,1.82-.18,2.75-.34-.06.6-.06,1.49-.06,2.8v2.57c0,1.71.82,2.17,1.69,2.17.69,0,1.42-.29,2.06-.93v-4.47c0-1.09-.11-1.17-1.48-1.36v-.44c1-.05,1.98-.13,3-.34v6.41c0,.96.15,1.09.89,1.13l.53.04v.48h0v-.03h-.01Z"/>
    <path class="st0" d="M37.5,66.2v-.5c1.21-.11,1.38-.23,1.38-1.49v-9.07c0-1.3-.11-1.36-1.31-1.45v-.46c.98-.12,2.17-.44,2.82-.67v11.65c0,1.26.16,1.38,1.38,1.49v.5h-4.27Z"/>
    <path class="st0" d="M46.26,66.18c-.34.18-.65.25-.81.25-1.22,0-1.89-.77-1.89-2.28v-5.58h-1.31l-.08-.2.51-.55h.89v-1.4l1.25-1.27.27.04v2.63h2.18c.15.19.11.61-.13.75h-2.05v4.92c0,1.56.64,1.84,1.12,1.84s.93-.19,1.2-.33l.15.5-1.29.67h0Z"/>
    <path class="st0" d="M56.91,58.3c-1.02.16-1.2.31-1.71,1.4-.46,1.01-1.07,2.61-2.4,5.77-1.27,3.06-1.69,4.15-1.96,5.19-.11.37-.36.46-.63.46-.54,0-1.08-.46-1.08-.92,0-.31.18-.47.48-.68.6-.39.98-.87,1.42-1.71.36-.67.51-1.07.61-1.33.08-.29.08-.54-.03-.86-.78-2.18-1.62-4.5-2.2-5.86-.4-1.05-.61-1.3-1.65-1.46v-.47h3.89v.47c-.89.16-.98.35-.73,1.05l1.72,4.81c.54-1.3,1.38-3.56,1.78-4.77.22-.73.09-.94-1-1.09v-.47h3.47v.47s.02,0,.02,0Z"/>
    <path class="st0" d="M69.96,61.87c0,3.09-2.27,4.56-4.18,4.56-2.63,0-4.18-2.11-4.18-4.24,0-3.16,2.44-4.6,4.18-4.6,2.38,0,4.18,1.9,4.18,4.28M63.38,61.58c0,2.42,1.04,4.22,2.63,4.22,1.17,0,2.15-.88,2.15-3.51,0-2.24-.88-4.06-2.55-4.06-1.2,0-2.22,1.18-2.22,3.35"/>
    <path class="st0" d="M72.38,57.83v-.42c0-.6.06-1.15.2-1.58.12-.42.44-1.36,1.46-2.24.69-.59,1.38-.94,2.11-1.03.66.02,1.22.29,1.51.65.18.21.2.46.11.67-.07.15-.18.31-.38.46-.15.13-.33.13-.51-.06-.37-.35-.91-.71-1.55-.71-.49,0-.8.23-1.03.58-.25.36-.44,1.29-.42,2.92v.77h2.24c.13.16.02.63-.18.75h-2.07v5.51c0,1.42.13,1.48,1.65,1.64v.48h-4.53v-.5c1.24-.11,1.38-.21,1.38-1.48v-5.64h-1.36l-.06-.2.51-.55h.92s0-.02,0-.02Z"/>
    <path class="st0" d="M90.41,66.38v-.57c1.21-.15,1.36-.33,1.12-1.11-.25-.74-.61-1.74-1.02-2.87h-4.11c-.29.84-.56,1.64-.81,2.44-.4,1.2-.26,1.39,1.21,1.55v.57h-4.28v-.57c1.27-.18,1.53-.31,2.2-2.03l4.03-10.19.69-.19c1.21,3.35,2.51,7.03,3.76,10.4.61,1.68.88,1.88,2.15,2.01v.57h-4.95,0ZM88.56,56.13h-.06c-.6,1.62-1.18,3.26-1.77,4.84h3.49l-1.66-4.84Z"/>
    <path class="st0" d="M99.34,59.66c.61-1.03,1.43-2.07,2.34-2.07.7,0,1.16.53,1.16,1.02,0,.45-.28.86-.68,1.05-.23.1-.41.06-.53-.06-.29-.27-.54-.39-.87-.39-.47,0-1.06.51-1.46,1.55v3.59c0,1.27.1,1.38,1.61,1.5v.53h-4.65v-.53c1.2-.12,1.32-.24,1.32-1.5v-4.08c0-1.25-.09-1.31-1.16-1.48v-.45c.99-.15,1.89-.39,2.88-.78v2.1s.04,0,.04,0Z"/>
    <path class="st0" d="M107.71,66.36c-.33.18-.63.25-.79.25-1.3,0-2.01-.76-2.01-2.35v-5.64h-1.33l-.09-.21.53-.59h.89v-1.43l1.44-1.33.26.06v2.69h2.16c.19.2.14.64-.11.8h-2.05v4.98c0,1.56.66,1.83,1.14,1.83s.88-.16,1.15-.29l.18.53-1.38.68h0v.02h0Z"/>
    <path class="st0" d="M115,60.18c-.38-1.15-1.05-1.94-2.01-1.94-.7,0-1.21.55-1.21,1.29,0,.82.71,1.27,1.61,1.66,1.5.63,2.5,1.31,2.5,2.69,0,1.81-1.68,2.73-3.26,2.73-1.01,0-1.93-.37-2.28-.66-.14-.27-.32-1.62-.33-2.36l.55-.08c.35,1.27,1.23,2.44,2.42,2.44.7,0,1.33-.53,1.33-1.31,0-.82-.5-1.27-1.53-1.76-1.12-.53-2.47-1.19-2.47-2.71,0-1.41,1.18-2.58,3.02-2.58.84,0,1.38.18,1.78.35.15.43.37,1.64.42,2.09l-.53.14h0Z"/>
    <path class="st0" d="M47.15,1.61c1.86-.75,1.49,1,1.51,1,.06,2.03-.92,2.34-.9,2.34-2.07.9-1.86,1.71-1.86,1.71,0,1.27,1.86,1.09,1.86,1.09,2.3.02,2.13.88,2.13.87-.02,1.15-2.28,1.09-2.27,1.11-1.61-.04-1.17,1.5-1.17,1.48,0,1.46,2.17,1.71,2.17,1.71,1.32.56-2.09,2.86-2.09,2.86-2.49,1.54-2.63-1.19-2.63-1.21-.62-6.49-.96-6.67-.96-6.68-1.62-3.96.96-5.03.96-5.03,0,0,3.27-1.25,3.25-1.25h0ZM54.77,2.03c-.61.75-1.17.06-1.15.08-.41-.87-.9-.69-.9-.69-1.06.1-.36,3.11-.39,3.05,0,.9-1.37,2.38-1.37,2.38-.78.96,0,1.77,0,1.77.75.44,2.4-1.65,2.4-1.65.96-1,1.58-.88,1.62-.88.48-.02,2.63,1.21,2.63,1.21.8.23,1-.58,1.05-.58.56-.56-2.34-2.34-2.33-2.34-.52-.33.69-1.27.75-1.29.82-.75-.54-1.96-.54-1.96-.79-.9-1.23,0-1.23,0,0,0-.54.9-.56.9,0,0,.02,0,.02,0ZM52.77,11.12s-2.43,2.09-1.94,2.67c0,.02.36.96,1.52-.15-.02-.02,1.78-2.21,2.67-1.58,0,0,1.69,1.62,2.67.59.02.03,1.02-.7-.29-1.53-.02.02-1.46-.81-.33-1.4-.02,0,1.13-.6.18-1.75-.04-.02-.91-1.21-1.25.27,0,0-.93,1.71-1.58,1.23.02,0-1.36-1.4-1.86-1.29,0,0-.85.42-.48,1.82,0,.02.23.75.69,1.11h0ZM64.65,1.94c-.5-.1-1.03-.16-1.51-.33-.41-.14-1.16-.86-1.58-.65-.28.14-.26.71-.27.96-.03,1.04.35,2.04,1.26,2.63,1.18.76.26,3-1.09,2.08-1.56-1.05-1.13,1.1-1.13,1.08.04,1.38.91,1.44.89,1.44,1.19.4.65,1.31.65,1.31-.19,1.11-1.02.96-1.02.96h-.06c-1.35-.14.14,1.3.14,1.26,1,1.06,1.98.92,1.98.92,1.61,0,2.21-3.53,2.21-3.53.54-2.27,1.54-4.99,1.56-5.01.77-1.4.04-2.35-1.1-2.83-.28-.12-.59-.21-.91-.27h0s-.02-.02-.02-.02ZM40.52,29.57s-.6,8.98,1.89,10.22c.03,0,1.26.62.57-1.27,0,0-.35-2.84-.15-5.53,0,0-.27-10.91,3.57-12.56-.04,0,4.11-2.34,8.45-2.31.84.14,1.89-.1,2.75-.1,1.61,0,3.19.08,4.78.3.69.09,1.68.31,2.09.95.4.63.44,1.43.58,2.14.12.67.28,1.33.39,2.01.14.83.26,1.67.34,2.51.09.89.28,1.9.17,2.79,0,0-.71,5.83,1.05,6.49.66.25.57-1.89.58-2.14.05-4.03,0-8.06,0-12.09v-1.05s.65-4.76-3.46-4.65c0-.08-5.07.31-9.1-.27-1.84-.26-3.72-.33-5.37.73-.44.29-.59.53-1.1.52-.96,0-1.91.3-2.62.96-.32.29-.34.43-.77.44-2.24.07-4.07,1.56-4.47,3.81-.47,2.62-.16,5.44-.15,8.09h-.02,0ZM56.19,32.11v3.5c-.2,4.66-5.23,8.61-5.23,8.64-4.55,3.63-9.25,4.07-9.25,4.07-1.84.04-1.76-.49-1.76-.49-.12-1.11,1.84-1.61,1.88-1.65,3.69-.58,5.53-2.15,5.53-2.19,6.42-4.53,5.42-9.76,5.42-9.76.04-1.19-4.03-1.5-3.99-1.5-2.27-.31-1.73-2.42-1.73-2.42.15-3.38,1.73-1.38,1.73-1.38,0,0,2.06,1.41,2.06,1.42,1.56,1,1.17-.77,1.17-.77,0-.8-3.88-4.42-3.88-4.42-1.27-1.19-.96-1.65-.96-1.69.58-.92,1.8-.15,1.84-.15-.62-.58-.27-.96-.27-.92,2.11-2.19,9.02-2,9.07-2,2.03.11,1.15,1.84,1.15,1.84l1.38,1.11c2.26,2.03-4.23,4.19-4.23,4.19-1.11.46-.3,2.15-.34,2.11.58,1.15,3.03-1.3,2.99-1.32,1.31-2.08,2.61.59,2.65.55,1.88,2.53-5.22,3.23-5.22,3.23,0,0,0,0-.01,0ZM55.64,26.14c.29.03.63-.03.83-.25-.28-.58-.57-.7.14-.99.42-.18.85-.42,1.2-.72.29-.26.47-.55.68-.86.23-.33-.22-.34-.44-.33-1.16.02-2.38.47-3.48.78-.47.13-3.13.65-2.93,1.38.04.15.14.18.24.28h0c.12.12.86,1.47,1.52,1.47.46,0,.76-.96,1.27-1.02.32-.04.64.24.96.27h0ZM82.62,9.49s3.27-.8,3.3-.77c5.15-.46,3.92,2.88,3.96,2.84-.65,1.33-.69,3.45-.69,3.45-.58,3.53-6.76,5.03-6.76,5.03,0,0-.04,2.57.04,2.57,2.38-1.27,3.88-1.23,3.88-1.23,3.53-.38,1.65,4.65,1.69,4.65-.42,3.06-3.76,4.18-3.8,4.18-1.28.39-1.8,1.26-1.7,2.58.12,1.58-.17,3.15-.09,4.73.03.6-.55.92-.88,1.36-.42.56-.72,1.22-.79,1.91-.12,1.11.42,3.26-.68,4.06-1.69,1.23-1.96-3.49-1.96-3.49l-.03-13.14c0-.65-.03-1.3-.04-1.95-.07-3.11-.12-6.21-.19-9.32-.03-1.68-.06-3.35-.1-5.03-.01-.62-.04-1.25-.05-1.87-.05-2.26.04-4.23,1.68-5.98,1.67-1.78,3.97-2.04,6.24-2.4,1.31-.21,3.7-.85,4.05,1.05,0,0,.34,1.88.3,1.8.14,2.07-5.44,1.54-5.4,1.54-2.46.35-1.96,3.42-1.96,3.42h-.02ZM82.4,26.35s-.1,1.01,1.17,1.02c-.04.02,1.23.29,1.27-1.44.04.04.37-2.23-1.02-1.19-.06,0-1.41.54-1.42,1.62h0ZM83.15,16.74s2.19.46,2.31-1.61c0-.04.61-2.31-.5-1.84,0,.04-1.8.81-1.8.81,0,0-1.69,2.11,0,2.65h0ZM91.74,17.97c-.09,1.8.63,2,.59,1.96,1.04.27.96-1.54,1-1.65.35-1.8,2.19-7.83,2.19-7.87.88-1.69,2.46-1.8,2.46-1.84,2.72-.5,3.88-1.62,3.8-1.58.82-.65,1.26-.04,1.3,0,.38.42,3.73,2.73,3.76,2.73,1.54,1.07,1.38,1.88,1.38,1.88,0,0,0,8.1.04,8.18-.42,2.31,0,2.38,0,2.42,2.11.73,2.38-4.26,2.38-4.26,0-3.34.92-6.03.92-6.11,1.23-3.07-2.26-4.65-2.26-4.61,0-.13-1.27-.87-1.43-.99-.45-.34-.88-.69-1.3-1.06-.63-.55-1.73-1.26-2.09-2.02-.19-.4-.27-.8-.71-.98-.52-.21-1.19-.03-1.72,0-.76.05-1.64.45-2.33.76-1.21.54-2.43,1.06-3.62,1.64-.18.09-1.87.72-1.89.93-2.84,1.84-2.46,6.87-2.46,6.87,0,0,.04,5.65-.02,5.61h.01ZM96.52,12.87s-1.23.46-.23,2.31c0-.04.35,1.61,3.5,1.46,0,.04,6.68.52,6.87-1.62,0,.05.23-1.34-2.65-1.78-.04-.01-5.03-1.13-7.49-.36h0ZM101.02,22.93s-.08,1.84,1.54,3.96c-.04.19,1.76,1.5,0,3.11,0,0-4.07,3.19-2.92,7.72-.03,0,.34,4.42,8.37,7.69,0,0,6.91,3.45,7.84,1.5-.04.04.42-.04-.84-.54.04,0-8.33-2.96-11.36-7.84,0,.08-1.58-3.27.61-5.07-.04.04,2.58-1.84,2.42-4.53-.03-.52.01-.97-.14-1.49-.16-.57-.4-1.1-.73-1.6-.31-.45-.81-.94-.98-1.47-.26-.81.02-2.06.8-2.49.68-.38,1.57-.38,2.18-.91.32-.27.41-.71.24-1.1-.38-.9-1.3-.99-2.14-1.05-1.31-.09-2.62-.02-3.93.08,0,.04-2.96.42-6.26.08-.08,0-2-1.34-2.53,1.84-.04-.04-.92,4.34,1.58,2.96l1.14-.55s-.03,1.67-3.75,4.74c-1.23,1.01-1.7,2.53-1.91,4.06-.32,2.31-.38,4.63-.74,6.93-.06.37-.38,1.25-.24,1.61.12.3.63.27.9.08.95-.68.83-2.17.84-3.16,0-.87.03-1.74.12-2.61.28-2.73,1.75-5.65,4.37-6.8-.04,0,2.96-.92,4.22-3.99,0,.04.31-2.3,1.31-1.15h-.01ZM15.24.22c-.59.68-.71,1.75-.78,2.62-.06.62-.09,1.25-.14,1.87-.16,1.71-4.3,4.03-4.34,4.04-1.07.54-2.06,1.2-2.99,1.94-1.43,1.14-2.69,2.48-3.8,3.94-.95,1.24-1.77,2.62-2.34,4.08-.16.42-.37,1.11-.47,1.55-.31,1.29-.4,2.29-.38,3.62,0,.46,0,.94.17,1.38.09.24.24.47.46.61.14.08.61.26.77.16.21-.12.36-.55.38-.78.05-.6.18-1.11.18-1.08.55-1.44,1.09-4.11,1.12-4.14.17-.62.4-1.24.7-1.81.23-.44.51-.85.78-1.27,1.36-2.1,2.49-2.42,4.02-3.41.56-.36,1.08-.79,1.63-1.16.71-.47,1.44-.92,2.18-1.35.52-.31,1.05-.61,1.58-.91.44-.26.92-.45,1.36-.7.27-.15.51-.32.83-.26.33.06.59.3.89.43.95.43,1.87,1.03,2.77,1.57.1.06,1.42.81,1.49.87,1.43,1.03,2.27,1.91,2.48,2.12.9.93,1.71,2.01,2.2,3.2.49,1.21.65,2.54.87,3.82.07.41.05,1.06.23,1.43.49,1.01.07,1.1.1,1.16-.13.67.2.45.2.45.18-.38.47.07.47.04.26.42.62-.21.66-.21.44-.93-.07-1.16-.07-1.2-.65-.26-.31-.65-.31-.65.35-.27.59-.61.7-1.03.24-.87.16-1.85.02-2.73-.2-1.2-.44-2.43-.88-3.57-.5-1.31-1.36-2.45-2.29-3.49-.43-.47-2.06-2.12-2.68-2.5-2.69-1.64-4.31-2.98-4.27-2.95-.61-.63-.61-1.17-.61-1.17.31-1.49.03-2.31.03-2.31-.26-.68-.64-1.38-1.22-1.84-.22-.17-.54-.41-.87-.53-.31-.11-.63-.11-.86.15,0,0,.03,0,.03,0ZM11.38,13.06s-.92-.66-1.61,1.78c0-.02-.84,2.41-.2,3.37,0,0,.4.74,1.92,1.49,0,.02.32.13-.03.57,0,0-1.75,2.01-4.4,7.63-.01.02-2.43,4.06-3.41,11.12,0,0-.78,4.37-.06,7.96.03.02.25,1.22.86,1.43,0-.02-.01.63.55.73.22.07.41-.57.46-.69.08-.22.14-.44.23-.66.16-.41.09-.74.04-1.17-.05-.45-.09-.9-.09-1.35,0-.25.01-.5.04-.75.06-.7.24-1.39.36-2.08.11-.66.32-1.23.44-1.89.31-1.57.55-3.21,1-4.75.2-.68.42-1.38.74-2.01.01,0,.36-1.39,1.19-3,1.18-2.26,2.95-5.12,4.11-7.48.02,0,.83-1.64,1.12-1.77.38-.16,1.91,1.19,4.47,4.2,0-.02,2.59,2.85,4.38,6.82,0,.02,1.9,3.95,2.04,10.52.02.02.1,4.47,1.01,2.93.01-.04.91-1.31.82-4.16.03-.02-.54-7.82-.91-9.55-.16-.8-.4-1.59-.64-2.37-.54-1.67-1.15-3.33-2.06-4.84-.64-1.07-1.45-2.05-2.19-3.06-.58-.79-1.21-1.53-1.89-2.23-.55-.58-1.13-1.13-1.73-1.65,0,0,.75-.95,1.93-.84-.05,0,1.72.27,1.83-1.69.02,0-.37-2.43-1.87-3.07,0,0-.37-.38-1.53.77,0,.03-2.73,2.07-2.73,2.07,0,0-.34.7-1.17.09,0,.02-1.66-.83-2.44-1.83-.03-.02-.57-.62-.57-.62h-.01s0,.03,0,.03Z"/>
  </g>
  <line class="st1" x1="157.32" y1="0" x2="157.32" y2="71.12"/>
  <g>
    <path class="st0" d="M214.9,8.42v6.21h8.76l1.72-1.9,3.7,2.83c-.25.29-.76.61-1.51.76v12.02c-.04.25-1.83.94-2.97.94h-.61v-2.99h-9.07v12.63c0,.43-1.54,1.33-2.91,1.33h-.72v-13.96h-9.01v2.29c0,.37-1.54,1.19-3.01,1.19h-.53V13.03l3.85,1.58h8.72v-7.72l4.95.5c-.1.51-.35.86-1.33,1l-.03.03h0ZM211.28,25.25v-9.58h-9.01v9.58h9.01ZM223.99,15.67h-9.07v9.58h9.07v-9.58Z"/>
    <path class="st0" d="M241.78,7.66l3.48,1.54h22.54l1.68-1.9,3.48,2.76c-.25.29-.82.57-1.54.76v28.03c-.04.29-1.54,1.15-2.76,1.15h-.51v-2.4h-23.18v1.4c0,.43-1.25,1.25-2.66,1.25h-.53V7.66h0ZM268.16,10.22h-23.18v26.38h23.18V10.22h0ZM256.74,27.87l.1.47c-1.83.96-4.56,2.29-8.4,3.99-.14.47-.43.76-.8.86l-1.86-3.56c1.97-.22,6.45-.93,10.95-1.76h0ZM260.4,11.57c-.08.43-.43.82-1.19.86l.08,3.19h3.66l.8-1c-.22-.04-.39-.1-.61-.22-.39-1.19-1.58-2.52-2.54-3.26l.33-.29c4.24.29,4.92,2.33,4.16,3.26.65.51,1.62,1.33,2.29,1.97-.1.39-.43.57-.94.57h-7.11c.18,2.83.53,5.59,1.29,8.04,1.04-1.97,1.9-4.16,2.52-6.57l3.95,1.62c-.18.43-.65.72-1.43.61-1.04,2.83-2.33,5.24-3.87,7.25.61,1.25,1.4,2.37,2.37,3.3.43.47.61.47.86-.1.39-.76.94-2.23,1.37-3.48l.43.08-.53,4.77c.9,1.47,1.04,2.15.65,2.62-1.08,1.15-3.16.08-4.34-1.11-1.11-1.11-2.05-2.37-2.8-3.73-2.29,2.37-5.02,4.09-8.07,5.35l-.37-.47c2.76-1.68,5.31-4.05,7.43-7.04-1.33-3.23-2.01-7-2.29-11.12h-10.23l-.29-1.04h10.44c-.08-1.54-.14-3.16-.14-4.81l4.16.76h-.04ZM247.52,18.25l2.62,1.11h2.48l1.23-1.25,2.69,1.97c-.18.22-.61.47-1.11.53v5.38c-.04.25-1.29.86-2.11.86h-.39v-1.11h-2.91v1.04c0,.18-1.11.76-2.11.76h-.35v-9.3h-.04ZM252.91,24.72v-4.3h-2.91v4.3h2.91Z"/>
    <path class="st0" d="M297.83,14.13c-.08.39-.43.57-.94.57h-13.35l-.29-1.04h9.65l1.76-2.23s1.97,1.54,3.16,2.69h.01ZM296.07,23.31l-.04-.07h4.2c.43-1.86.94-4.28,1.4-6.71h-3.85l-.33-1.04h4.34l.86-4.85h-5.57l-.29-1.04h13.78l1.83-2.44s2.11,1.68,3.34,2.91c-.08.39-.47.57-.94.57h-8.9l-.9,4.85h3.95l1.62-1.68,3.3,2.48c-.22.29-.76.53-1.43.68v6.28h.39l1.62-2.23s1.8,1.58,2.83,2.69c-.08.39-.39.57-.9.57h-20.1l-.18-.65c-.1.33-.39.43-.82.43h-10.3l-.29-1.04h7.14l1.54-1.97s1.58,1.25,2.66,2.26h.05,0ZM296.26,18.72c-.1.39-.43.57-.94.57h-10.3l-.29-1.04h7.14l1.54-1.97s1.76,1.37,2.83,2.44h.02ZM285.55,40h-.43v-13.64l3.16,1.33h3.62l1.51-1.66,3.26,2.48c-.22.29-.76.53-1.4.68v8.5c-.04.25-1.51.93-2.54.93h-.51v-1.72h-4.09v2.11c0,.29-1.29.96-2.58.96v.03h0ZM289.22,12.33c-.29-1.66-1.54-3.66-2.66-4.85l.33-.18c8.29,1.08,5.53,7.14,2.33,5.02h0ZM292.23,28.73h-4.09v7.14h4.09v-7.14ZM298.98,40.04h-.47v-13.82l3.4,1.43h8.11l1.62-1.8,3.48,2.69c-.25.29-.8.57-1.51.72v9.5c-.04.25-1.66.9-2.72.9h-.51v-1.97h-8.64v1.25c0,.33-1.4,1.08-2.76,1.08h.01v.02ZM301.75,28.69v7.97h8.64v-7.97h-8.64ZM303.39,23.24h5.96v-6.71h-4.52c-.47,2.44-1,4.88-1.43,6.71h-.01Z"/>
    <path class="st0" d="M360.01,13.41c-.1.39-.51.57-1,.57h-31.9l-.29-1.04h27.28l2.11-2.58s2.33,1.76,3.81,3.05h0ZM354.89,18.64c-.08.39-.43.57-.96.57h-21.07l-.29-1.04h16.79l1.94-2.37s2.19,1.62,3.59,2.83h0ZM354.99,23.86c-.1.39-.47.57-.96.57h-21.17l-.29-1.04h16.9l1.94-2.37s2.19,1.62,3.59,2.83h0ZM333.43,40.18h-.47v-13.06l3.66,1.51h13.39l1.72-1.9,3.66,2.8c-.22.29-.76.57-1.47.72v8.76c-.04.25-1.83.86-2.97.86h-.57v-2.01h-14v1.23c0,.33-1.51,1.11-2.95,1.11h0v-.02ZM350.36,29.67h-14v7.14h14v-7.14ZM342.25,12.15c-.22-1.83-1.51-3.91-2.76-5.1l.33-.25c8.64,1.15,5.71,7.64,2.44,5.35h0Z"/>
    <path class="st0" d="M392.38,18.8h3.66l2.11-2.01,3.38,3.16c-.29.39-.68.47-1.58.53-1.62,4.49-3.87,8.44-7.25,11.63,3.23,2.26,7.04,3.87,11.41,4.99l-.1.39c-1.68.14-3.01,1.15-3.69,2.8-4.05-1.47-7.47-3.42-10.23-6-3.69,2.72-8.47,4.73-14.64,5.96l-.25-.51c5.45-1.68,9.83-4.13,13.21-7.21-3.19-3.73-5.35-8.62-6.57-15.15-.9,9.26-3.44,17.18-11.55,22.79l-.35-.33c7.39-7.93,8.76-18.16,8.76-29.53h-6.9l-.33-1.04h20.7l1.66-1.62,3.23,2.95c-.25.29-.82.47-1.47.51-.8,2.05-2.19,5.42-3.19,7.68h-.02ZM392.28,10.32h-10.01l-.18,3.81c1.33,7.25,4.24,12.49,8.44,16.26,2.66-3.05,4.52-6.57,5.71-10.59h-4.05l-1.15,1.19-3.12-2.01c.29-.25.76-.51,1.19-.68,1.04-2.19,2.4-5.67,3.19-7.97h-.02Z"/>
    <path class="st0" d="M446.74,15.38c-.1.39-.43.57-.96.57h-4.92c-1.4,5.88-3.95,10.91-8.04,14.97,4.09,2.8,9.01,4.71,14.39,5.88l-.1.43c-1.72.18-3.05,1.25-3.7,3.01-5.14-1.62-9.5-3.91-13.02-7.18-4.13,3.23-9.54,5.67-16.55,7.21l-.22-.51c6.39-2.11,11.26-5.02,14.93-8.62-3.42-3.85-5.85-8.79-7.21-15.22h-7.14l-.33-1.04h26.62l2.23-2.95s2.54,2.01,4.02,3.42v.03ZM422.06,15.95c1.62,5.57,4.52,9.87,8.4,13.17,3.19-3.81,5.16-8.21,6.14-13.17,0,0-14.54,0-14.54,0ZM430.49,13.66c-.53-2.23-2.44-4.85-4.2-6.43l.33-.25c10.12,1.86,7.43,9.07,3.87,6.68h0Z"/>
    <path class="st0" d="M460.81,18.37c.29.68.51,1.37.61,2.01h.82l-.43-12.06,3.01.68c1.19-.76,2.33-1.62,2.99-2.15l2.87,2.23c-.18.22-.57.25-1.08.07-1.11.33-2.87.76-4.67,1l.1,2.72h1.43l1.23-1.54s1.43,1.11,2.29,2.01c-.07.39-.39.57-.86.57h-4.05l.1,2.76h1.37l1.29-1.62s1.43,1.15,2.33,2.09c-.1.39-.43.57-.9.57h-4.05l.08,2.66h16.55l.14-2.66h-3.38l-.33-1.04h3.77l.14-2.76h-3.48l-.33-1.04h3.87l.14-2.76h-4.02l-.33-1h4.09l1.4-1.66,3.19,2.54c-.25.29-.57.39-1.23.47l-.53,9.91h.18l1.9-1.86,3.34,3.19c-.29.25-.65.33-1.37.37-1.19.86-3.23,2.11-4.59,2.8l-.39-.25c.37-.8.82-2.11,1.19-3.19h-23.65c.18,2.01-.43,3.59-1.9,4.28-2.4,1.11-4.05-1.8-1.4-3.23.94-.51,2.05-1.94,2.01-4.05l.5-.04h.01l.03-.02ZM478.68,24.57l1.97-1.9,3.38,3.01c-.29.29-.68.37-1.43.39-1.62.68-3.87,1.54-6.02,2.23h.07c-.07.51-.43.76-1.19.86v1.47h8.47l2.01-2.66s2.29,1.83,3.66,3.12c-.1.39-.47.57-.96.57h-13.17v4.24c0,2.52-.57,3.95-4.77,4.34-.1-1.08-.33-1.86-.86-2.44-.61-.53-1.47-.9-3.26-1.19v-.51s4.02.25,4.77.25c.57,0,.76-.18.76-.65v-4.05h-14.07l-.29-1.04h14.35v-2.76l2.83.25c1.08-.76,2.19-1.68,3.09-2.52h-13.42l-.33-1.04h14.43l-.03.04h0ZM478.68,14.85c-.18.37-.57.43-1.19.25-.39.5-.9,1.04-1.47,1.54,1.94,1.68,1.04,3.66-.61,2.95-.25-.53-.65-1.08-1.15-1.62-1.33.86-2.83,1.62-4.3,2.11l-.33-.53c1.19-.76,2.4-1.72,3.4-2.76-.72-.65-1.54-1.23-2.26-1.66l.33-.37c1.25.18,2.26.43,3.09.76.57-.72,1.08-1.43,1.43-2.15l3.05,1.47h.01ZM478.11,8.67c-.18.37-.57.43-1.19.25-.33.43-.76.9-1.25,1.33,1.9,1.43,1.15,3.26-.39,2.69-.29-.43-.72-.94-1.25-1.4-1.19.82-2.52,1.54-3.81,2.09l-.37-.53c1-.72,2.01-1.62,2.91-2.62-.72-.53-1.43-1-2.09-1.33l.33-.39c1.08.1,1.97.29,2.72.53.53-.72,1-1.43,1.37-2.11l3.01,1.51h0v-.02Z"/>
    <path class="st0" d="M513.23,32.54c-2.72,2.33-7.35,4.95-12.06,6.35l-.29-.47c3.85-2.23,7.78-5.88,9.69-8.68l4.02,2.52c-.25.37-.57.51-1.37.29h.01ZM528.88,29.59c-.29-1.11-.94-2.37-1.72-3.55-1.97.39-4.34.82-7.11,1.33v8.72c0,2.33-.61,3.81-4.77,4.16-.07-1-.25-1.8-.76-2.26-.53-.47-1.33-.86-3.09-1.08v-.51s3.59.22,4.34.22c.57,0,.76-.18.76-.61v-8.07c-2.87.5-6.02,1-9.4,1.51-.25.47-.57.76-.9.9l-1.83-3.87s1-.1,1.51-.29c3.42-1.25,7.64-3.59,11.34-6.02-2.52.61-5.67,1.33-9.11,2.01-.22.37-.47.61-.72.72l-1.76-3.66s.76-.07,1.11-.25c3.3-1.29,7.61-4.67,9.77-6.86-4.28,1.11-9.07,2.09-13.57,2.62l-.18-.57c7.14-1.66,15.79-4.95,20.1-7.5l3.59,2.95c-.33.37-1,.39-2.05.07-1.9.72-4.24,1.43-6.78,2.15l3.26,1.9c-.22.37-.72.61-1.51.39-2.29,1.62-6.35,3.77-10.09,5.2,2.66-.1,6.28-.37,10.05-.61,2.23-1.58,4.09-3.09,5.31-4.3l3.77,2.91c-.25.33-.82.53-1.66.22-3.77,2.69-11.34,6.43-17.98,8.9,4.38-.22,10.95-.65,17.87-1.11-1-1.43-2.19-2.8-3.26-3.81l.39-.25c10.59,3.42,8.44,10.55,5.06,8.33v-.04h.02ZM530.1,38.5c-1.62-2.83-5.53-6.31-8.5-8.33l.33-.37c13.39,2.72,12.13,10.48,8.19,8.68h-.01v.02Z"/>
  </g>
  <g>
    <path class="st0" d="M199.61,65.79h.77c.52,0,.75-.16.75-.92v-8.12c0-.76-.22-.92-.75-.92h-.77v-.6h4.99c3.45,0,5.76,1.86,5.76,5.32s-1.86,5.82-6.44,5.82h-4.31v-.6h0ZM203.97,65.78c3.66,0,4.48-2.16,4.48-5.26,0-3.33-1.25-4.64-5.04-4.64h-.57v8.99c0,.76.36.92.89.92h.24Z"/>
    <path class="st0" d="M211.68,62.27c0-2.37,1.6-4.27,3.82-4.27s3.43,1.12,3.43,3.85h-5.59c.02,2.39.92,3.76,2.7,3.76,1.33,0,2.29-.93,2.78-1.41h.12v.8c-.65.61-1.71,1.57-3.52,1.57-2.48,0-3.74-2.13-3.74-4.31h0ZM217.32,61.23c-.03-1.22-.27-2.63-1.78-2.63s-2,1.52-2.13,2.63h3.92,0Z"/>
    <path class="st0" d="M219.66,69.47h.54c.52,0,.68-.09.68-.85v-8.84c0-.77-.16-.85-.71-.85h-.51v-.6l2.81-.22v1.06c.7-.6,1.47-1.15,2.68-1.15,2.1,0,3.22,1.88,3.22,4.15.02,2.28-1.52,4.37-3.54,4.37-1.22,0-1.64-.33-2.37-.8v2.89c0,.76.16.85.68.85h.7v.6h-4.18s0-.6,0-.6ZM226.66,62.27c0-2.14-.79-3.3-2.02-3.3-.9,0-1.58.36-2.16.84v5.28c.6.38,1.01.55,2,.55,1.12,0,2.18-1.22,2.18-3.36h0Z"/>
    <path class="st0" d="M229.58,64.49c0-1.91,1.66-2.45,5.04-3.08v-.93c0-.94-.55-1.71-1.76-1.71-.89,0-1.31.19-1.76.46.4.16.6.49.6.8,0,.42-.33.84-.93.84-.55,0-.85-.36-.85-.85,0-.87,1.41-2,3.21-2,2.21,0,3.06.89,3.06,2.77v4.18c0,.46.28.65.6.65s.68-.17.9-.3v.57c-.4.38-1.15.71-1.69.71-.63,0-1.29-.31-1.39-1.1-.63.66-1.55,1.1-2.62,1.1-1.45,0-2.42-.9-2.42-2.1h0ZM234.62,64.83v-2.81c-2.44.44-3.35.9-3.35,2.13,0,.94.49,1.52,1.41,1.52.63,0,1.47-.38,1.94-.84Z"/>
    <path class="st0" d="M238.01,65.79h.54c.52,0,.68-.09.68-.85v-5.16c0-.77-.16-.85-.71-.85h-.51v-.6l2.81-.22v1.55c.77-.98,1.52-1.64,2.42-1.64.65,0,1.09.51,1.09,1.13,0,.79-.42,1.12-.87,1.12-.55,0-.84-.3-.84-.8,0-.14.02-.3.07-.47-.59.12-1.41.8-1.86,1.34v4.61c0,.76.16.85.68.85h.75v.6h-4.23v-.6h0Z"/>
    <path class="st0" d="M246.04,64.68v-5.71h-1.22v-.51c1.42-.3,1.88-1.45,2.21-2.73h.59v2.56h2.02v.68h-2.02v5.14c0,.79.11,1.62,1.17,1.62.41,0,.75-.11,1.08-.31v.66c-.6.33-1.06.51-1.8.51-1.44,0-2.02-.59-2.02-1.91h0Z"/>
    <path class="st0" d="M250.36,65.79h.54c.52,0,.68-.09.68-.85v-5.16c0-.77-.16-.85-.71-.85h-.51v-.6l2.81-.22v1.06c.68-.6,1.48-1.15,2.65-1.15s1.9.57,2.21,1.37c.85-.8,1.72-1.37,2.89-1.37,1.94,0,2.48,1.41,2.48,2.92v4.01c0,.76.16.85.68.85h.54v.6h-3.92v-.6h.42c.52,0,.68-.09.68-.85v-4.3c0-.9-.4-1.67-1.36-1.67-.85,0-1.6.44-2.16.92v5.05c0,.76.16.85.68.85h.42v.6h-3.8v-.6h.42c.52,0,.68-.09.68-.85v-4.3c0-.9-.38-1.67-1.34-1.67-.87,0-1.62.36-2.18.84v5.13c0,.76.16.85.68.85h.42v.6h-3.92v-.6h.02Z"/>
    <path class="st0" d="M265.37,62.27c0-2.37,1.6-4.27,3.82-4.27s3.43,1.12,3.43,3.85h-5.59c.02,2.39.92,3.76,2.7,3.76,1.33,0,2.29-.93,2.78-1.41h.12v.8c-.65.61-1.71,1.57-3.52,1.57-2.48,0-3.74-2.13-3.74-4.31ZM271,61.23c-.03-1.22-.27-2.63-1.78-2.63s-2,1.52-2.13,2.63h3.92,0Z"/>
    <path class="st0" d="M273.47,65.79h.54c.52,0,.68-.09.68-.85v-5.16c0-.77-.16-.85-.71-.85h-.51v-.6l2.81-.22v1.06c.7-.6,1.52-1.15,2.73-1.15,1.97,0,2.58,1.41,2.58,2.92v4.01c0,.76.16.85.68.85h.54v.6h-3.92v-.6h.42c.52,0,.68-.09.68-.85v-4.3c0-.9-.4-1.67-1.41-1.67-.9,0-1.72.36-2.3.84v5.13c0,.76.16.85.68.85h.42v.6h-3.92v-.6h0Z"/>
    <path class="st0" d="M284.39,64.68v-5.71h-1.22v-.51c1.42-.3,1.88-1.45,2.21-2.73h.59v2.56h2.02v.68h-2.02v5.14c0,.79.11,1.62,1.17,1.62.41,0,.75-.11,1.08-.31v.66c-.6.33-1.06.51-1.8.51-1.44,0-2.02-.59-2.02-1.91h0Z"/>
    <path class="st0" d="M293.36,62.31c0-2.46,1.48-4.3,3.99-4.3,2.63,0,3.99,2.02,3.99,4.3,0,2.4-1.57,4.28-3.99,4.28s-3.99-1.71-3.99-4.28ZM299.63,62.31c0-1.64-.4-3.71-2.28-3.71s-2.28,1.83-2.28,3.71c0,1.48.31,3.69,2.28,3.69s2.28-2.37,2.28-3.69Z"/>
    <path class="st0" d="M302.08,65.79h.54c.52,0,.68-.09.68-.85v-5.99h-1.23v-.68h1.23c0-2.39,1.34-3.92,3.21-3.92,1.26,0,1.66.71,1.66,1.15,0,.63-.44.93-.87.93s-.82-.3-.82-.73c0-.24.08-.52.35-.8-.11-.03-.21-.05-.31-.07-1.57,0-1.64,1.61-1.64,3.43h1.72v.68h-1.69v5.99c0,.76.16.85.68.85h.7v.6h-4.18v-.6h0Z"/>
    <path class="st0" d="M311.92,60.93c0-3,1.69-5.9,5.49-5.9.75,0,1.66.22,2.46.65l.38-.55h.57v3.45h-.7c-.17-.66-.17-.85-.42-1.39-.27-.57-.87-1.57-2.49-1.57-1.93,0-3.35,1.69-3.35,5.21s1.67,4.98,3.41,4.98c2.21,0,3.1-1.45,3.25-2.94h.68c-.07,1.94-1.58,3.74-3.88,3.74-3.66,0-5.4-2.54-5.4-5.66h0Z"/>
    <path class="st0" d="M321.93,65.79h.54c.52,0,.68-.09.68-.85v-8.9c0-.77-.16-.85-.71-.85h-.51v-.6l2.81-.22v4.8c.7-.6,1.53-1.15,2.75-1.15,1.94,0,2.56,1.41,2.56,2.92v4.01c0,.76.16.85.68.85h.54v.6h-3.92v-.6h.43c.52,0,.68-.09.68-.85v-4.3c0-.9-.4-1.67-1.41-1.67-.9,0-1.72.36-2.3.84v5.13c0,.76.16.85.68.85h.42v.6h-3.92v-.6h0Z"/>
    <path class="st0" d="M331.86,65.79h.54c.52,0,.68-.09.68-.85v-5.16c0-.77-.16-.85-.71-.85h-.51v-.6l2.81-.22v6.83c0,.76.16.85.68.85h.54v.6h-4.02v-.6h0ZM332.71,55.48c0-.59.46-1.04,1.04-1.04s1.04.46,1.04,1.04-.46,1.04-1.04,1.04-1.04-.46-1.04-1.04Z"/>
    <path class="st0" d="M336.49,65.79h.54c.52,0,.68-.09.68-.85v-5.16c0-.77-.16-.85-.71-.85h-.51v-.6l2.81-.22v1.06c.7-.6,1.52-1.15,2.73-1.15,1.97,0,2.58,1.41,2.58,2.92v4.01c0,.76.16.85.68.85h.54v.6h-3.92v-.6h.43c.52,0,.68-.09.68-.85v-4.3c0-.9-.4-1.67-1.41-1.67-.9,0-1.72.36-2.3.84v5.13c0,.76.16.85.68.85h.43v.6h-3.92v-.6h0Z"/>
    <path class="st0" d="M346.57,62.27c0-2.37,1.6-4.27,3.82-4.27s3.43,1.12,3.43,3.85h-5.59c.02,2.39.92,3.76,2.7,3.76,1.33,0,2.29-.93,2.78-1.41h.12v.8c-.65.61-1.71,1.57-3.52,1.57-2.48,0-3.74-2.13-3.74-4.31ZM352.2,61.23c-.03-1.22-.27-2.63-1.78-2.63s-2,1.52-2.13,2.63h3.92,0Z"/>
    <path class="st0" d="M355.93,65.93l-.27.54h-.49v-2.92h.6c.14.66.33,1.01.75,1.62.43.46.89.84,1.76.84,1.23,0,1.85-.73,1.85-1.45,0-.96-.87-1.28-2.05-1.62-1.26-.38-2.77-.8-2.77-2.54,0-1.25,1.33-2.39,3.06-2.39.77,0,1.47.24,2.1.52l.17-.38h.46v2.46h-.6c-.17-.65-.35-.93-.65-1.39-.24-.26-.73-.61-1.47-.61-.94,0-1.62.57-1.62,1.25,0,.96.52,1.27,1.83,1.66,1.66.51,2.92,1.03,2.92,2.61s-1.53,2.48-3.29,2.48c-.96,0-1.76-.35-2.29-.66h-.02Z"/>
    <path class="st0" d="M362.72,62.27c0-2.37,1.6-4.27,3.82-4.27s3.43,1.12,3.43,3.85h-5.59c.02,2.39.92,3.76,2.7,3.76,1.33,0,2.29-.93,2.78-1.41h.12v.8c-.65.61-1.71,1.57-3.52,1.57-2.48,0-3.74-2.13-3.74-4.31ZM368.36,61.23c-.03-1.22-.27-2.63-1.78-2.63s-2,1.52-2.13,2.63h3.92,0Z"/>
    <path class="st0" d="M375.5,65.79h.77c.52,0,.75-.16.75-.92v-8.12c0-.76-.22-.92-.75-.92h-.77v-.6h4.83v.6h-.85c-.52,0-.75.16-.75.92v8.1c0,.76.22.92.75.92h1.13c1.85,0,2.28-.85,2.79-2.72h.7l-.49,3.33h-8.12v-.6h0Z"/>
    <path class="st0" d="M384.76,64.49c0-1.91,1.66-2.45,5.04-3.08v-.93c0-.94-.55-1.71-1.76-1.71-.89,0-1.31.19-1.76.46.4.16.6.49.6.8,0,.42-.33.84-.93.84-.55,0-.85-.36-.85-.85,0-.87,1.41-2,3.21-2,2.21,0,3.06.89,3.06,2.77v4.18c0,.46.28.65.6.65s.68-.17.9-.3v.57c-.4.38-1.15.71-1.69.71-.63,0-1.29-.31-1.39-1.1-.63.66-1.55,1.1-2.62,1.1-1.45,0-2.42-.9-2.42-2.1h0ZM389.8,64.83v-2.81c-2.45.44-3.35.9-3.35,2.13,0,.94.49,1.52,1.41,1.52.63,0,1.47-.38,1.94-.84Z"/>
    <path class="st0" d="M393.19,65.79h.54c.52,0,.68-.09.68-.85v-5.16c0-.77-.16-.85-.71-.85h-.51v-.6l2.81-.22v1.06c.7-.6,1.52-1.15,2.73-1.15,1.97,0,2.58,1.41,2.58,2.92v4.01c0,.76.16.85.68.85h.54v.6h-3.92v-.6h.43c.52,0,.68-.09.68-.85v-4.3c0-.9-.4-1.67-1.41-1.67-.9,0-1.72.36-2.3.84v5.13c0,.76.16.85.68.85h.43v.6h-3.92v-.6h0Z"/>
    <path class="st0" d="M403.1,68.02c0-.87.89-1.55,1.57-1.64-.82-.22-1.13-.87-1.13-1.34,0-.77.61-1.36,1.42-1.71-.84-.42-1.45-1.25-1.45-2.39,0-1.58,1.31-2.94,3.25-2.94,1.03,0,1.95.3,2.46.9.44-.75.94-.9,1.39-.9.4,0,.75.25.75.71,0,.33-.17.73-.66.73-.3,0-.49-.14-.76-.44l-.4.35c.24.41.4.98.4,1.58,0,1.58-1.26,2.82-3.16,2.82-.52,0-.93-.05-1.39-.22-.28.17-.63.59-.63,1.01,0,.46.38.6,1.09.6h2.45c1.58,0,2.75.59,2.75,2.09,0,1.6-1.69,3.06-4.18,3.06-2.32,0-3.74-.98-3.74-2.28h-.02ZM409.72,67.76c0-.54-.17-1.31-1.66-1.31h-2.96c-.28.41-.44.89-.44,1.52,0,.82.94,1.66,2.49,1.66,1.66,0,2.58-.96,2.58-1.86h0ZM408.34,60.93c0-1.25-.4-2.34-1.58-2.34s-1.64,1.06-1.64,2.32c0,1.13.43,2.29,1.61,2.29s1.61-1.1,1.61-2.28h0Z"/>
    <path class="st0" d="M412.78,63.72v-3.93c0-.77-.16-.85-.71-.85h-.51v-.6l2.81-.22v5.89c0,.9.4,1.67,1.41,1.67.9,0,1.72-.36,2.3-.84v-5.05c0-.77-.16-.85-.71-.85h-.51v-.6l2.81-.22v6.76c0,.77.16.85.71.85h.51v.6l-2.81.22v-1.06c-.7.6-1.53,1.15-2.75,1.15-1.95,0-2.56-1.41-2.56-2.92h0Z"/>
    <path class="st0" d="M421.73,64.49c0-1.91,1.66-2.45,5.04-3.08v-.93c0-.94-.55-1.71-1.76-1.71-.89,0-1.31.19-1.76.46.4.16.6.49.6.8,0,.42-.33.84-.93.84-.55,0-.85-.36-.85-.85,0-.87,1.41-2,3.21-2,2.21,0,3.06.89,3.06,2.77v4.18c0,.46.28.65.6.65s.68-.17.9-.3v.57c-.4.38-1.15.71-1.69.71-.63,0-1.29-.31-1.39-1.1-.63.66-1.55,1.1-2.62,1.1-1.45,0-2.42-.9-2.42-2.1h0ZM426.77,64.83v-2.81c-2.45.44-3.35.9-3.35,2.13,0,.94.49,1.52,1.41,1.52.63,0,1.47-.38,1.94-.84Z"/>
    <path class="st0" d="M430.13,68.02c0-.87.89-1.55,1.57-1.64-.82-.22-1.13-.87-1.13-1.34,0-.77.61-1.36,1.42-1.71-.84-.42-1.45-1.25-1.45-2.39,0-1.58,1.31-2.94,3.25-2.94,1.03,0,1.95.3,2.46.9.44-.75.94-.9,1.39-.9.4,0,.75.25.75.71,0,.33-.17.73-.66.73-.3,0-.49-.14-.76-.44l-.4.35c.24.41.4.98.4,1.58,0,1.58-1.26,2.82-3.16,2.82-.52,0-.93-.05-1.39-.22-.28.17-.63.59-.63,1.01,0,.46.38.6,1.09.6h2.45c1.58,0,2.75.59,2.75,2.09,0,1.6-1.69,3.06-4.18,3.06-2.32,0-3.74-.98-3.74-2.28h-.02ZM436.75,67.76c0-.54-.17-1.31-1.66-1.31h-2.96c-.28.41-.44.89-.44,1.52,0,.82.94,1.66,2.49,1.66,1.66,0,2.58-.96,2.58-1.86h0ZM435.37,60.93c0-1.25-.4-2.34-1.58-2.34s-1.64,1.06-1.64,2.32c0,1.13.43,2.29,1.61,2.29s1.61-1.1,1.61-2.28h0Z"/>
    <path class="st0" d="M438.73,62.27c0-2.37,1.6-4.27,3.82-4.27s3.43,1.12,3.43,3.85h-5.59c.02,2.39.92,3.76,2.7,3.76,1.33,0,2.29-.93,2.78-1.41h.12v.8c-.65.61-1.71,1.57-3.52,1.57-2.48,0-3.74-2.13-3.74-4.31ZM444.36,61.23c-.03-1.22-.27-2.63-1.78-2.63s-2,1.52-2.13,2.63h3.92,0Z"/>
    <path class="st0" d="M451.58,63.6c0-1.85,1.33-2.73,2.61-3.31-.65-.9-1.06-1.41-1.06-2.39,0-1.1.96-2.42,2.73-2.42,1.44,0,2.54.75,2.54,2.09s-1.09,2.18-2.28,2.77c.79.99,1.88,2.19,2.73,3.17.4-.63.87-1.57.87-2.37,0-.36-.11-.7-.65-.7h-.41v-.61h3.31v.61h-.38c-.63,0-.85.36-1.08,1.1-.12.43-.51,1.39-1.25,2.43.31.35.61.65.85.89.46.47.84.92,1.44.92h.63v.61h-2.73l-1.23-1.33c-.82.9-1.76,1.53-3.38,1.53s-3.29-1.08-3.29-3h.02ZM457.87,64.64c-1.13-1.28-2.42-2.7-3.29-3.87-.92.44-1.36,1.28-1.36,2.28,0,1.13.89,2.49,2.56,2.49.79,0,1.31-.25,2.09-.9h0ZM457.07,57.5c0-.63-.33-1.43-1.28-1.43-.85,0-1.25.73-1.25,1.29,0,.85.55,1.66,1.2,2.51,1.09-.61,1.33-1.57,1.33-2.37Z"/>
    <path class="st0" d="M467.37,65.79h.77c.52,0,.75-.16.75-.92v-8.12c0-.76-.22-.92-.75-.92h-.77v-.6h4.83v.6h-.85c-.52,0-.75.16-.75.92v8.1c0,.76.22.92.75.92h1.13c1.85,0,2.28-.85,2.79-2.72h.7l-.49,3.33h-8.12v-.6h0Z"/>
    <path class="st0" d="M476.64,65.79h.54c.52,0,.68-.09.68-.85v-5.16c0-.77-.16-.85-.71-.85h-.51v-.6l2.81-.22v6.83c0,.76.16.85.68.85h.54v.6h-4.02v-.6h0ZM477.49,55.48c0-.59.46-1.04,1.04-1.04s1.04.46,1.04,1.04-.46,1.04-1.04,1.04-1.04-.46-1.04-1.04Z"/>
    <path class="st0" d="M482.26,64.68v-5.71h-1.22v-.51c1.42-.3,1.88-1.45,2.21-2.73h.59v2.56h2.02v.68h-2.02v5.14c0,.79.11,1.62,1.17,1.62.41,0,.75-.11,1.08-.31v.66c-.6.33-1.06.51-1.8.51-1.44,0-2.02-.59-2.02-1.91h0Z"/>
    <path class="st0" d="M486.81,62.27c0-2.37,1.6-4.27,3.82-4.27s3.43,1.12,3.43,3.85h-5.59c.02,2.39.92,3.76,2.7,3.76,1.33,0,2.29-.93,2.78-1.41h.12v.8c-.65.61-1.71,1.57-3.52,1.57-2.48,0-3.74-2.13-3.74-4.31ZM492.45,61.23c-.03-1.22-.27-2.63-1.78-2.63s-2,1.52-2.13,2.63h3.92,0Z"/>
    <path class="st0" d="M494.91,65.79h.54c.52,0,.68-.09.68-.85v-5.16c0-.77-.16-.85-.71-.85h-.51v-.6l2.81-.22v1.55c.77-.98,1.52-1.64,2.42-1.64.65,0,1.09.51,1.09,1.13,0,.79-.42,1.12-.87,1.12-.55,0-.84-.3-.84-.8,0-.14.02-.3.07-.47-.59.12-1.41.8-1.86,1.34v4.61c0,.76.16.85.68.85h.75v.6h-4.23v-.6h0Z"/>
    <path class="st0" d="M501.7,64.49c0-1.91,1.66-2.45,5.04-3.08v-.93c0-.94-.55-1.71-1.76-1.71-.89,0-1.31.19-1.76.46.4.16.6.49.6.8,0,.42-.33.84-.93.84-.55,0-.85-.36-.85-.85,0-.87,1.41-2,3.21-2,2.21,0,3.06.89,3.06,2.77v4.18c0,.46.28.65.6.65s.68-.17.9-.3v.57c-.4.38-1.15.71-1.69.71-.63,0-1.29-.31-1.39-1.1-.63.66-1.55,1.1-2.62,1.1-1.45,0-2.42-.9-2.42-2.1h0ZM506.74,64.83v-2.81c-2.45.44-3.35.9-3.35,2.13,0,.94.49,1.52,1.41,1.52.63,0,1.47-.38,1.94-.84h0Z"/>
    <path class="st0" d="M511.12,64.68v-5.71h-1.22v-.51c1.42-.3,1.88-1.45,2.21-2.73h.59v2.56h2.02v.68h-2.02v5.14c0,.79.11,1.62,1.17,1.62.41,0,.75-.11,1.08-.31v.66c-.6.33-1.06.51-1.8.51-1.44,0-2.02-.59-2.02-1.91h0Z"/>
    <path class="st0" d="M516.45,63.72v-3.93c0-.77-.16-.85-.71-.85h-.51v-.6l2.81-.22v5.89c0,.9.4,1.67,1.41,1.67.9,0,1.72-.36,2.3-.84v-5.05c0-.77-.16-.85-.71-.85h-.51v-.6l2.81-.22v6.76c0,.77.16.85.71.85h.51v.6l-2.81.22v-1.06c-.7.6-1.53,1.15-2.75,1.15-1.95,0-2.56-1.41-2.56-2.92h0Z"/>
    <path class="st0" d="M525.25,65.79h.54c.52,0,.68-.09.68-.85v-5.16c0-.77-.16-.85-.71-.85h-.51v-.6l2.81-.22v1.55c.77-.98,1.52-1.64,2.42-1.64.65,0,1.09.51,1.09,1.13,0,.79-.42,1.12-.87,1.12-.55,0-.84-.3-.84-.8,0-.14.02-.3.07-.47-.59.12-1.41.8-1.86,1.34v4.61c0,.76.16.85.68.85h.75v.6h-4.23v-.6h0Z"/>
    <path class="st0" d="M532.18,62.27c0-2.37,1.6-4.27,3.82-4.27s3.43,1.12,3.43,3.85h-5.59c.02,2.39.92,3.76,2.7,3.76,1.33,0,2.29-.93,2.78-1.41h.12v.8c-.65.61-1.71,1.57-3.52,1.57-2.48,0-3.74-2.13-3.74-4.31ZM537.82,61.23c-.03-1.22-.27-2.63-1.78-2.63s-2,1.52-2.13,2.63h3.92,0Z"/>
  </g>
</svg>