<?xml version="1.0" encoding="UTF-8"?>
<svg id="Layer_1" xmlns="http://www.w3.org/2000/svg" version="1.1" viewBox="0 0 486.7 71.12">
  <!-- Generator: Adobe Illustrator 29.6.1, SVG Export Plug-In . SVG Version: 2.1.1 Build 9)  -->
  <defs>
    <style>
      .st0 {
        fill: #6a6260;
      }

      .st1 {
        fill: none;
        stroke: #6a6260;
        stroke-miterlimit: 10;
      }
    </style>
  </defs>
  <g>
    <path class="st0" d="M9.42,56.64c-.15-.76-.27-1.13-.54-1.54-.3-.53-.73-.69-2.18-.69h-1.45c-.55,0-.62.04-.62.6v4.56h1.98c1.74,0,1.82-.17,2.07-1.4h.53v3.68h-.53c-.25-1.3-.33-1.53-2.07-1.53h-1.98v3.47c0,1.65.15,1.76,1.9,1.88v.54H1.32v-.54c1.53-.12,1.69-.23,1.69-1.88v-7.62c0-1.67-.16-1.77-1.63-1.88v-.54h8.43c0,.69.09,1.92.19,2.82l-.58.08h0Z"/>
    <path class="st0" d="M16.98,66.43c-.29,0-.68-.18-.9-.37-.25-.27-.36-.54-.46-.86-.77.52-1.68,1.23-2.26,1.23-1.36,0-2.3-1.13-2.3-2.34,0-.94.5-1.54,1.55-1.9,1.15-.38,2.55-.9,2.97-1.24v-.35c0-1.38-.65-2.17-1.61-2.17-.38,0-.67.15-.86.39-.25.25-.42.67-.58,1.26-.07.31-.28.44-.55.44-.35,0-.84-.38-.84-.82,0-.29.24-.5.61-.77.54-.38,1.78-1.13,2.87-1.34.58,0,1.15.17,1.57.52.67.56.86,1.34.86,2.34v3.56c0,.87.34,1.15.67,1.15.24,0,.5-.1.69-.21l.19.5-1.63.98h0ZM15.58,61.6c-.4.21-1.32.61-1.72.81-.75.35-1.17.7-1.17,1.4,0,.99.77,1.48,1.36,1.48.5-.02,1.17-.35,1.53-.69v-2.99h0Z"/>
    <path class="st0" d="M26.54,64.47c-.85,1.11-2.14,1.96-3.27,1.96-2.41,0-3.83-1.96-3.83-4.01,0-1.47.63-2.76,1.92-3.76,1-.76,2.15-1.07,2.89-1.07s1.4.25,1.71.5c.25.21.31.38.31.59,0,.4-.42.82-.63.82-.09,0-.19-.06-.36-.21-.58-.54-1.26-.78-1.92-.78-1.27,0-2.38,1.05-2.38,3.06,0,2.67,1.82,3.55,2.9,3.55.82,0,1.45-.23,2.34-1.05l.33.4s-.01,0,0,0h0Z"/>
    <path class="st0" d="M36.88,65.75c-.89.13-1.87.4-2.82.69l-.12-.12v-1.35c-.43.33-.89.67-1.42,1-.56.32-.96.48-1.47.48-1.29,0-2.37-.79-2.37-2.86v-3.75c0-1.06-.08-1.13-1.17-1.34v-.44c.91-.05,1.82-.18,2.75-.34-.06.6-.06,1.49-.06,2.8v2.57c0,1.71.82,2.17,1.69,2.17.69,0,1.42-.29,2.06-.93v-4.47c0-1.09-.11-1.17-1.48-1.36v-.44c1-.05,1.98-.13,3-.34v6.41c0,.96.15,1.09.89,1.13l.53.04v.48h0v-.03s0,0-.01,0Z"/>
    <path class="st0" d="M37.5,66.2v-.5c1.21-.11,1.38-.23,1.38-1.49v-9.07c0-1.3-.11-1.36-1.31-1.45v-.46c.98-.12,2.17-.44,2.82-.67v11.65c0,1.26.16,1.38,1.38,1.49v.5h-4.27Z"/>
    <path class="st0" d="M46.26,66.18c-.34.18-.65.25-.81.25-1.22,0-1.89-.77-1.89-2.28v-5.58h-1.31l-.08-.2.51-.55h.89v-1.4l1.25-1.27.27.04v2.63h2.18c.15.19.11.61-.13.75h-2.05v4.92c0,1.56.64,1.84,1.12,1.84s.93-.19,1.2-.33l.15.5-1.29.67h0Z"/>
    <path class="st0" d="M56.91,58.3c-1.02.16-1.2.31-1.71,1.4-.46,1.01-1.07,2.61-2.4,5.77-1.27,3.06-1.69,4.15-1.96,5.19-.11.37-.36.46-.63.46-.54,0-1.08-.46-1.08-.92,0-.31.18-.47.48-.68.6-.39.98-.87,1.42-1.71.36-.67.51-1.07.61-1.33.08-.29.08-.54-.03-.86-.78-2.18-1.62-4.5-2.2-5.86-.4-1.05-.61-1.3-1.65-1.46v-.47h3.89v.47c-.89.16-.98.35-.73,1.05l1.72,4.81c.54-1.3,1.38-3.56,1.78-4.77.22-.73.09-.94-1-1.09v-.47h3.47v.47s.02,0,.02,0Z"/>
    <path class="st0" d="M69.96,61.87c0,3.09-2.27,4.56-4.18,4.56-2.63,0-4.18-2.11-4.18-4.24,0-3.16,2.44-4.6,4.18-4.6,2.38,0,4.18,1.9,4.18,4.28M63.38,61.58c0,2.42,1.04,4.22,2.63,4.22,1.17,0,2.15-.88,2.15-3.51,0-2.24-.88-4.06-2.55-4.06-1.2,0-2.22,1.18-2.22,3.35"/>
    <path class="st0" d="M72.38,57.83v-.42c0-.6.06-1.15.2-1.58.12-.42.44-1.36,1.46-2.24.69-.59,1.38-.94,2.11-1.03.66.02,1.22.29,1.51.65.18.21.2.46.11.67-.07.15-.18.31-.38.46-.15.13-.33.13-.51-.06-.37-.35-.91-.71-1.55-.71-.49,0-.8.23-1.03.58-.25.36-.44,1.29-.42,2.92v.77h2.24c.13.16.02.63-.18.75h-2.07v5.51c0,1.42.13,1.48,1.65,1.64v.48h-4.53v-.5c1.24-.11,1.38-.21,1.38-1.48v-5.64h-1.36l-.06-.2.51-.55h.92s0-.02,0-.02Z"/>
    <path class="st0" d="M90.41,66.38v-.57c1.21-.15,1.36-.33,1.12-1.11-.25-.74-.61-1.74-1.02-2.87h-4.11c-.29.84-.56,1.64-.81,2.44-.4,1.2-.26,1.39,1.21,1.55v.57h-4.28v-.57c1.27-.18,1.53-.31,2.2-2.03l4.03-10.19.69-.19c1.21,3.35,2.51,7.03,3.76,10.4.61,1.68.88,1.88,2.15,2.01v.57h-4.95,0ZM88.56,56.13h-.06c-.6,1.62-1.18,3.26-1.77,4.84h3.49l-1.66-4.84Z"/>
    <path class="st0" d="M99.34,59.66c.61-1.03,1.43-2.07,2.34-2.07.7,0,1.16.53,1.16,1.02,0,.45-.28.86-.68,1.05-.23.1-.41.06-.53-.06-.29-.27-.54-.39-.87-.39-.47,0-1.06.51-1.46,1.55v3.59c0,1.27.1,1.38,1.61,1.5v.53h-4.65v-.53c1.2-.12,1.32-.24,1.32-1.5v-4.08c0-1.25-.09-1.31-1.16-1.48v-.45c.99-.15,1.89-.39,2.88-.78v2.1s.04,0,.04,0Z"/>
    <path class="st0" d="M107.71,66.36c-.33.18-.63.25-.79.25-1.3,0-2.01-.76-2.01-2.35v-5.64h-1.33l-.09-.21.53-.59h.89v-1.43l1.44-1.33.26.06v2.69h2.16c.19.2.14.64-.11.8h-2.05v4.98c0,1.56.66,1.83,1.14,1.83s.88-.16,1.15-.29l.18.53-1.38.68h0v.02h0Z"/>
    <path class="st0" d="M115,60.18c-.38-1.15-1.05-1.94-2.01-1.94-.7,0-1.21.55-1.21,1.29,0,.82.71,1.27,1.61,1.66,1.5.63,2.5,1.31,2.5,2.69,0,1.81-1.68,2.73-3.26,2.73-1.01,0-1.93-.37-2.28-.66-.14-.27-.32-1.62-.33-2.36l.55-.08c.35,1.27,1.23,2.44,2.42,2.44.7,0,1.33-.53,1.33-1.31,0-.82-.5-1.27-1.53-1.76-1.12-.53-2.47-1.19-2.47-2.71,0-1.41,1.18-2.58,3.02-2.58.84,0,1.38.18,1.78.35.15.43.37,1.64.42,2.09l-.53.14h0Z"/>
    <path class="st0" d="M47.15,1.61c1.86-.75,1.49,1,1.51,1,.06,2.03-.92,2.34-.9,2.34-2.07.9-1.86,1.71-1.86,1.71,0,1.27,1.86,1.09,1.86,1.09,2.3.02,2.13.88,2.13.87-.02,1.15-2.28,1.09-2.27,1.11-1.61-.04-1.17,1.5-1.17,1.48,0,1.46,2.17,1.71,2.17,1.71,1.32.56-2.09,2.86-2.09,2.86-2.49,1.54-2.63-1.19-2.63-1.21-.62-6.49-.96-6.67-.96-6.68-1.62-3.96.96-5.03.96-5.03,0,0,3.27-1.25,3.25-1.25h0ZM54.77,2.03c-.61.75-1.17.06-1.15.08-.41-.87-.9-.69-.9-.69-1.06.1-.36,3.11-.39,3.05,0,.9-1.37,2.38-1.37,2.38-.78.96,0,1.77,0,1.77.75.44,2.4-1.65,2.4-1.65.96-1,1.58-.88,1.62-.88.48-.02,2.63,1.21,2.63,1.21.8.23,1-.58,1.05-.58.56-.56-2.34-2.34-2.33-2.34-.52-.33.69-1.27.75-1.29.82-.75-.54-1.96-.54-1.96-.79-.9-1.23,0-1.23,0,0,0-.54.9-.56.9,0,0,.02,0,.02,0ZM52.77,11.12s-2.43,2.09-1.94,2.67c0,.02.36.96,1.52-.15-.02-.02,1.78-2.21,2.67-1.58,0,0,1.69,1.62,2.67.59.02.03,1.02-.7-.29-1.53-.02.02-1.46-.81-.33-1.4-.02,0,1.13-.6.18-1.75-.04-.02-.91-1.21-1.25.27,0,0-.93,1.71-1.58,1.23.02,0-1.36-1.4-1.86-1.29,0,0-.85.42-.48,1.82,0,.02.23.75.69,1.11h0ZM64.65,1.94c-.5-.1-1.03-.16-1.51-.33-.41-.14-1.16-.86-1.58-.65-.28.14-.26.71-.27.96-.03,1.04.35,2.04,1.26,2.63,1.18.76.26,3-1.09,2.08-1.56-1.05-1.13,1.1-1.13,1.08.04,1.38.91,1.44.89,1.44,1.19.4.65,1.31.65,1.31-.19,1.11-1.02.96-1.02.96h-.06c-1.35-.14.14,1.3.14,1.26,1,1.06,1.98.92,1.98.92,1.61,0,2.21-3.53,2.21-3.53.54-2.27,1.54-4.99,1.56-5.01.77-1.4.04-2.35-1.1-2.83-.28-.12-.59-.21-.91-.27h0s-.02-.02-.02-.02ZM40.52,29.57s-.6,8.98,1.89,10.22c.03,0,1.26.62.57-1.27,0,0-.35-2.84-.15-5.53,0,0-.27-10.91,3.57-12.56-.04,0,4.11-2.34,8.45-2.31.84.14,1.89-.1,2.75-.1,1.61,0,3.19.08,4.78.3.69.09,1.68.31,2.09.95.4.63.44,1.43.58,2.14.12.67.28,1.33.39,2.01.14.83.26,1.67.34,2.51.09.89.28,1.9.17,2.79,0,0-.71,5.83,1.05,6.49.66.25.57-1.89.58-2.14.05-4.03,0-8.06,0-12.09v-1.05s.65-4.76-3.46-4.65c0-.08-5.07.31-9.1-.27-1.84-.26-3.72-.33-5.37.73-.44.29-.59.53-1.1.52-.96,0-1.91.3-2.62.96-.32.29-.34.43-.77.44-2.24.07-4.07,1.56-4.47,3.81-.47,2.62-.16,5.44-.15,8.09h-.02,0ZM56.19,32.11v3.5c-.2,4.66-5.23,8.61-5.23,8.64-4.55,3.63-9.25,4.07-9.25,4.07-1.84.04-1.76-.49-1.76-.49-.12-1.11,1.84-1.61,1.88-1.65,3.69-.58,5.53-2.15,5.53-2.19,6.42-4.53,5.42-9.76,5.42-9.76.04-1.19-4.03-1.5-3.99-1.5-2.27-.31-1.73-2.42-1.73-2.42.15-3.38,1.73-1.38,1.73-1.38,0,0,2.06,1.41,2.06,1.42,1.56,1,1.17-.77,1.17-.77,0-.8-3.88-4.42-3.88-4.42-1.27-1.19-.96-1.65-.96-1.69.58-.92,1.8-.15,1.84-.15-.62-.58-.27-.96-.27-.92,2.11-2.19,9.02-2,9.07-2,2.03.11,1.15,1.84,1.15,1.84l1.38,1.11c2.26,2.03-4.23,4.19-4.23,4.19-1.11.46-.3,2.15-.34,2.11.58,1.15,3.03-1.3,2.99-1.32,1.31-2.08,2.61.59,2.65.55,1.88,2.53-5.22,3.23-5.22,3.23h-.01ZM55.64,26.14c.29.03.63-.03.83-.25-.28-.58-.57-.7.14-.99.42-.18.85-.42,1.2-.72.29-.26.47-.55.68-.86.23-.33-.22-.34-.44-.33-1.16.02-2.38.47-3.48.78-.47.13-3.13.65-2.93,1.38.04.15.14.18.24.28h0c.12.12.86,1.47,1.52,1.47.46,0,.76-.96,1.27-1.02.32-.04.64.24.96.27h0ZM82.62,9.49s3.27-.8,3.3-.77c5.15-.46,3.92,2.88,3.96,2.84-.65,1.33-.69,3.45-.69,3.45-.58,3.53-6.76,5.03-6.76,5.03,0,0-.04,2.57.04,2.57,2.38-1.27,3.88-1.23,3.88-1.23,3.53-.38,1.65,4.65,1.69,4.65-.42,3.06-3.76,4.18-3.8,4.18-1.28.39-1.8,1.26-1.7,2.58.12,1.58-.17,3.15-.09,4.73.03.6-.55.92-.88,1.36-.42.56-.72,1.22-.79,1.91-.12,1.11.42,3.26-.68,4.06-1.69,1.23-1.96-3.49-1.96-3.49l-.03-13.14c0-.65-.03-1.3-.04-1.95-.07-3.11-.12-6.21-.19-9.32-.03-1.68-.06-3.35-.1-5.03-.01-.62-.04-1.25-.05-1.87-.05-2.26.04-4.23,1.68-5.98,1.67-1.78,3.97-2.04,6.24-2.4,1.31-.21,3.7-.85,4.05,1.05,0,0,.34,1.88.3,1.8.14,2.07-5.44,1.54-5.4,1.54-2.46.35-1.96,3.42-1.96,3.42h-.02ZM82.4,26.35s-.1,1.01,1.17,1.02c-.04.02,1.23.29,1.27-1.44.04.04.37-2.23-1.02-1.19-.06,0-1.41.54-1.42,1.62h0ZM83.15,16.74s2.19.46,2.31-1.61c0-.04.61-2.31-.5-1.84,0,.04-1.8.81-1.8.81,0,0-1.69,2.11,0,2.65h0ZM91.74,17.97c-.09,1.8.63,2,.59,1.96,1.04.27.96-1.54,1-1.65.35-1.8,2.19-7.83,2.19-7.87.88-1.69,2.46-1.8,2.46-1.84,2.72-.5,3.88-1.62,3.8-1.58.82-.65,1.26-.04,1.3,0,.38.42,3.73,2.73,3.76,2.73,1.54,1.07,1.38,1.88,1.38,1.88,0,0,0,8.1.04,8.18-.42,2.31,0,2.38,0,2.42,2.11.73,2.38-4.26,2.38-4.26,0-3.34.92-6.03.92-6.11,1.23-3.07-2.26-4.65-2.26-4.61,0-.13-1.27-.87-1.43-.99-.45-.34-.88-.69-1.3-1.06-.63-.55-1.73-1.26-2.09-2.02-.19-.4-.27-.8-.71-.98-.52-.21-1.19-.03-1.72,0-.76.05-1.64.45-2.33.76-1.21.54-2.43,1.06-3.62,1.64-.18.09-1.87.72-1.89.93-2.84,1.84-2.46,6.87-2.46,6.87,0,0,.04,5.65-.02,5.61h.01ZM96.52,12.87s-1.23.46-.23,2.31c0-.04.35,1.61,3.5,1.46,0,.04,6.68.52,6.87-1.62,0,.05.23-1.34-2.65-1.78-.04-.01-5.03-1.13-7.49-.36h0ZM101.02,22.93s-.08,1.84,1.54,3.96c-.04.19,1.76,1.5,0,3.11,0,0-4.07,3.19-2.92,7.72-.03,0,.34,4.42,8.37,7.69,0,0,6.91,3.45,7.84,1.5-.04.04.42-.04-.84-.54.04,0-8.33-2.96-11.36-7.84,0,.08-1.58-3.27.61-5.07-.04.04,2.58-1.84,2.42-4.53-.03-.52.01-.97-.14-1.49-.16-.57-.4-1.1-.73-1.6-.31-.45-.81-.94-.98-1.47-.26-.81.02-2.06.8-2.49.68-.38,1.57-.38,2.18-.91.32-.27.41-.71.24-1.1-.38-.9-1.3-.99-2.14-1.05-1.31-.09-2.62-.02-3.93.08,0,.04-2.96.42-6.26.08-.08,0-2-1.34-2.53,1.84-.04-.04-.92,4.34,1.58,2.96l1.14-.55s-.03,1.67-3.75,4.74c-1.23,1.01-1.7,2.53-1.91,4.06-.32,2.31-.38,4.63-.74,6.93-.06.37-.38,1.25-.24,1.61.12.3.63.27.9.08.95-.68.83-2.17.84-3.16,0-.87.03-1.74.12-2.61.28-2.73,1.75-5.65,4.37-6.8-.04,0,2.96-.92,4.22-3.99,0,.04.31-2.3,1.31-1.15h-.01ZM15.24.22c-.59.68-.71,1.75-.78,2.62-.06.62-.09,1.25-.14,1.87-.16,1.71-4.3,4.03-4.34,4.04-1.07.54-2.06,1.2-2.99,1.94-1.43,1.14-2.69,2.48-3.8,3.94-.95,1.24-1.77,2.62-2.34,4.08-.16.42-.37,1.11-.47,1.55C.07,21.55-.02,22.55,0,23.88,0,24.34,0,24.82.17,25.26c.09.24.24.47.46.61.14.08.61.26.77.16.21-.12.36-.55.38-.78.05-.6.18-1.11.18-1.08.55-1.44,1.09-4.11,1.12-4.14.17-.62.4-1.24.7-1.81.23-.44.51-.85.78-1.27,1.36-2.1,2.49-2.42,4.02-3.41.56-.36,1.08-.79,1.63-1.16.71-.47,1.44-.92,2.18-1.35.52-.31,1.05-.61,1.58-.91.44-.26.92-.45,1.36-.7.27-.15.51-.32.83-.26.33.06.59.3.89.43.95.43,1.87,1.03,2.77,1.57.1.06,1.42.81,1.49.87,1.43,1.03,2.27,1.91,2.48,2.12.9.93,1.71,2.01,2.2,3.2.49,1.21.65,2.54.87,3.82.07.41.05,1.06.23,1.43.49,1.01.07,1.1.1,1.16-.13.67.2.45.2.45.18-.38.47.07.47.04.26.42.62-.21.66-.21.44-.93-.07-1.16-.07-1.2-.65-.26-.31-.65-.31-.65.35-.27.59-.61.7-1.03.24-.87.16-1.85.02-2.73-.2-1.2-.44-2.43-.88-3.57-.5-1.31-1.36-2.45-2.29-3.49-.43-.47-2.06-2.12-2.68-2.5-2.69-1.64-4.31-2.98-4.27-2.95-.61-.63-.61-1.17-.61-1.17.31-1.49.03-2.31.03-2.31-.26-.68-.64-1.38-1.22-1.84-.22-.17-.54-.41-.87-.53-.31-.11-.63-.11-.86.15,0,0,.03,0,.03,0ZM11.38,13.06s-.92-.66-1.61,1.78c0-.02-.84,2.41-.2,3.37,0,0,.4.74,1.92,1.49,0,.02.32.13-.03.57,0,0-1.75,2.01-4.4,7.63-.01.02-2.43,4.06-3.41,11.12,0,0-.78,4.37-.06,7.96.03.02.25,1.22.86,1.43,0-.02-.01.63.55.73.22.07.41-.57.46-.69.08-.22.14-.44.23-.66.16-.41.09-.74.04-1.17-.05-.45-.09-.9-.09-1.35,0-.25.01-.5.04-.75.06-.7.24-1.39.36-2.08.11-.66.32-1.23.44-1.89.31-1.57.55-3.21,1-4.75.2-.68.42-1.38.74-2.01.01,0,.36-1.39,1.19-3,1.18-2.26,2.95-5.12,4.11-7.48.02,0,.83-1.64,1.12-1.77.38-.16,1.91,1.19,4.47,4.2,0-.02,2.59,2.85,4.38,6.82,0,.02,1.9,3.95,2.04,10.52.02.02.1,4.47,1.01,2.93.01-.04.91-1.31.82-4.16.03-.02-.54-7.82-.91-9.55-.16-.8-.4-1.59-.64-2.37-.54-1.67-1.15-3.33-2.06-4.84-.64-1.07-1.45-2.05-2.19-3.06-.58-.79-1.21-1.53-1.89-2.23-.55-.58-1.13-1.13-1.73-1.65,0,0,.75-.95,1.93-.84-.05,0,1.72.27,1.83-1.69.02,0-.37-2.43-1.87-3.07,0,0-.37-.38-1.53.77,0,.03-2.73,2.07-2.73,2.07,0,0-.34.7-1.17.09,0,.02-1.66-.83-2.44-1.83-.03-.02-.57-.62-.57-.62h-.01s0,.03,0,.03Z"/>
  </g>
  <g>
    <path class="st0" d="M247.67,1.75v3.43h4.84l.95-1.05,2.04,1.56c-.14.16-.42.34-.83.42v6.64c-.02.14-1.01.52-1.64.52h-.34v-1.65h-5.01v6.98c0,.24-.85.73-1.61.73h-.4v-7.71h-4.98v1.27c0,.2-.85.66-1.66.66h-.29V4.29l2.13.87h4.82V.9l2.74.28c-.06.28-.19.48-.73.55l-.02.02h0ZM245.67,11.04v-5.29h-4.98v5.29h4.98ZM252.69,5.75h-5.01v5.29h5.01v-5.29Z"/>
    <path class="st0" d="M262.52,1.33l1.92.85h12.45l.93-1.05,1.92,1.52c-.14.16-.45.31-.85.42v15.49c-.02.16-.85.64-1.52.64h-.28v-1.33h-12.81v.77c0,.24-.69.69-1.47.69h-.29V1.33h0ZM277.1,2.74h-12.81v14.58h12.81V2.74h0ZM270.79,12.49l.06.26c-1.01.53-2.52,1.27-4.64,2.2-.08.26-.24.42-.44.48l-1.03-1.97c1.09-.12,3.56-.51,6.05-.97h0ZM272.81,3.49c-.04.24-.24.45-.66.48l.04,1.76h2.02l.44-.55c-.12-.02-.22-.06-.34-.12-.22-.66-.87-1.39-1.4-1.8l.18-.16c2.34.16,2.72,1.29,2.3,1.8.36.28.9.73,1.27,1.09-.06.22-.24.31-.52.31h-3.93c.1,1.56.29,3.09.71,4.44.57-1.09,1.05-2.3,1.39-3.63l2.18.9c-.1.24-.36.4-.79.34-.57,1.56-1.29,2.9-2.14,4.01.34.69.77,1.31,1.31,1.82.24.26.34.26.48-.06.22-.42.52-1.23.76-1.92l.24.04-.29,2.64c.5.81.57,1.19.36,1.45-.6.64-1.75.04-2.4-.61-.61-.61-1.13-1.31-1.55-2.06-1.27,1.31-2.77,2.26-4.46,2.96l-.2-.26c1.52-.93,2.93-2.24,4.11-3.89-.73-1.78-1.11-3.87-1.27-6.14h-5.65l-.16-.57h5.77c-.04-.85-.08-1.75-.08-2.66l2.3.42h-.02ZM265.69,7.18l1.45.61h1.37l.68-.69,1.49,1.09c-.1.12-.34.26-.61.29v2.97c-.02.14-.71.48-1.17.48h-.22v-.61h-1.61v.57c0,.1-.61.42-1.17.42h-.19v-5.14h-.02ZM268.67,10.75v-2.38h-1.61v2.38h1.61Z"/>
    <path class="st0" d="M293.49,4.9c-.04.22-.24.31-.52.31h-7.38l-.16-.57h5.33l.97-1.23s1.09.85,1.75,1.49h0ZM292.52,9.97l-.02-.04h2.32c.24-1.03.52-2.36.77-3.71h-2.13l-.18-.57h2.4l.48-2.68h-3.08l-.16-.57h7.61l1.01-1.35s1.17.93,1.85,1.61c-.04.22-.26.31-.52.31h-4.92l-.5,2.68h2.18l.9-.93,1.82,1.37c-.12.16-.42.29-.79.38v3.47h.22l.9-1.23s.99.87,1.56,1.49c-.04.22-.22.31-.5.31h-11.11l-.1-.36c-.06.18-.22.24-.45.24h-5.69l-.16-.57h3.95l.85-1.09s.87.69,1.47,1.25h.03,0ZM292.62,7.44c-.06.22-.24.31-.52.31h-5.69l-.16-.57h3.95l.85-1.09s.97.76,1.56,1.35h.01ZM286.71,19.19h-.24v-7.54l1.75.73h2l.83-.92,1.8,1.37c-.12.16-.42.29-.77.38v4.7c-.02.14-.83.51-1.4.51h-.28v-.95h-2.26v1.17c0,.16-.71.53-1.43.53v.02h0ZM288.73,3.91c-.16-.92-.85-2.02-1.47-2.68l.18-.1c4.58.6,3.06,3.95,1.29,2.77h0ZM290.4,12.97h-2.26v3.95h2.26v-3.95ZM294.13,19.22h-.26v-7.64l1.88.79h4.48l.9-.99,1.92,1.49c-.14.16-.44.31-.83.4v5.25c-.02.14-.92.5-1.5.5h-.28v-1.09h-4.77v.69c0,.18-.77.6-1.53.6h0,0ZM295.66,12.94v4.4h4.77v-4.4h-4.77ZM296.56,9.93h3.29v-3.71h-2.5c-.26,1.35-.55,2.7-.79,3.71h0Z"/>
    <path class="st0" d="M327.85,4.5c-.06.22-.28.31-.55.31h-17.63l-.16-.57h15.07l1.17-1.43s1.29.97,2.11,1.69h0ZM325.02,7.39c-.04.22-.24.31-.53.31h-11.64l-.16-.57h9.28l1.07-1.31s1.21.9,1.98,1.56h0ZM325.07,10.28c-.06.22-.26.31-.53.31h-11.7l-.16-.57h9.34l1.07-1.31s1.21.9,1.98,1.56h0ZM313.16,19.29h-.26v-7.22l2.02.83h7.4l.95-1.05,2.02,1.55c-.12.16-.42.31-.81.4v4.84c-.02.14-1.01.48-1.64.48h-.31v-1.11h-7.74v.68c0,.18-.83.61-1.63.61h0ZM322.52,13.49h-7.74v3.95h7.74v-3.95ZM318.03,3.81c-.12-1.01-.83-2.16-1.53-2.82l.18-.14c4.77.64,3.15,4.22,1.35,2.96h0Z"/>
    <path class="st0" d="M345.73,7.48h2.02l1.17-1.11,1.87,1.75c-.16.22-.38.26-.87.29-.9,2.48-2.14,4.66-4.01,6.43,1.78,1.25,3.89,2.14,6.3,2.76l-.06.22c-.93.08-1.66.64-2.04,1.55-2.24-.81-4.13-1.89-5.65-3.32-2.04,1.5-4.68,2.61-8.09,3.29l-.14-.28c3.01-.93,5.43-2.28,7.3-3.98-1.76-2.06-2.96-4.76-3.63-8.37-.5,5.12-1.9,9.49-6.38,12.59l-.19-.18c4.08-4.38,4.84-10.03,4.84-16.32h-3.81l-.18-.57h11.44l.92-.9,1.78,1.63c-.14.16-.45.26-.81.28-.44,1.13-1.21,2.99-1.76,4.24h-.01ZM345.68,2.79h-5.53l-.1,2.11c.73,4.01,2.34,6.9,4.66,8.98,1.47-1.69,2.5-3.63,3.15-5.85h-2.24l-.64.66-1.72-1.11c.16-.14.42-.28.66-.38.57-1.21,1.33-3.13,1.76-4.4h-.01Z"/>
    <path class="st0" d="M375.77,5.59c-.06.22-.24.31-.53.31h-2.72c-.77,3.25-2.18,6.03-4.44,8.27,2.26,1.55,4.98,2.6,7.95,3.25l-.06.24c-.95.1-1.69.69-2.04,1.66-2.84-.9-5.25-2.16-7.19-3.97-2.28,1.78-5.27,3.13-9.14,3.98l-.12-.28c3.53-1.17,6.22-2.77,8.25-4.76-1.89-2.13-3.23-4.86-3.98-8.41h-3.95l-.18-.57h14.71l1.23-1.63s1.4,1.11,2.22,1.89v.02ZM362.13,5.91c.9,3.08,2.5,5.45,4.64,7.28,1.76-2.11,2.85-4.54,3.39-7.28,0,0-8.03,0-8.03,0ZM366.79,4.64c-.29-1.23-1.35-2.68-2.32-3.55l.18-.14c5.59,1.03,4.11,5.01,2.14,3.69h0Z"/>
    <path class="st0" d="M383.54,7.24c.16.38.28.76.34,1.11h.45l-.24-6.66,1.66.38c.66-.42,1.29-.9,1.65-1.19l1.59,1.23c-.1.12-.31.14-.6.04-.61.18-1.59.42-2.58.55l.06,1.5h.79l.68-.85s.79.61,1.27,1.11c-.04.22-.22.31-.48.31h-2.24l.06,1.52h.76l.71-.9s.79.64,1.29,1.15c-.06.22-.24.31-.5.31h-2.24l.04,1.47h9.14l.08-1.47h-1.87l-.18-.57h2.08l.08-1.52h-1.92l-.18-.57h2.14l.08-1.52h-2.22l-.18-.55h2.26l.77-.92,1.76,1.4c-.14.16-.31.22-.68.26l-.29,5.48h.1l1.05-1.03,1.85,1.76c-.16.14-.36.18-.76.2-.66.48-1.78,1.17-2.54,1.55l-.22-.14c.2-.44.45-1.17.66-1.76h-13.07c.1,1.11-.24,1.98-1.05,2.36-1.33.61-2.24-.99-.77-1.78.52-.28,1.13-1.07,1.11-2.24l.28-.02h.02ZM393.42,10.67l1.09-1.05,1.87,1.66c-.16.16-.38.2-.79.22-.9.38-2.14.85-3.33,1.23h.04c-.04.28-.24.42-.66.48v.81h4.68l1.11-1.47s1.27,1.01,2.02,1.72c-.06.22-.26.31-.53.31h-7.28v2.34c0,1.39-.31,2.18-2.64,2.4-.06-.6-.18-1.03-.48-1.35-.34-.29-.81-.5-1.8-.66v-.28s2.22.14,2.64.14c.31,0,.42-.1.42-.36v-2.24h-7.77l-.16-.57h7.93v-1.52l1.56.14c.6-.42,1.21-.93,1.71-1.39h-7.42l-.18-.57h7.97l-.02.02h0ZM393.42,5.3c-.1.2-.31.24-.66.14-.22.28-.5.57-.81.85,1.07.93.57,2.02-.34,1.63-.14-.29-.36-.6-.64-.9-.73.48-1.56.9-2.38,1.17l-.18-.29c.66-.42,1.33-.95,1.88-1.52-.4-.36-.85-.68-1.25-.92l.18-.2c.69.1,1.25.24,1.71.42.31-.4.6-.79.79-1.19l1.69.81h0ZM393.1,1.88c-.1.2-.31.24-.66.14-.18.24-.42.5-.69.73,1.05.79.64,1.8-.22,1.49-.16-.24-.4-.52-.69-.77-.66.45-1.39.85-2.11,1.15l-.2-.29c.55-.4,1.11-.9,1.61-1.45-.4-.29-.79-.55-1.15-.73l.18-.22c.6.06,1.09.16,1.5.29.29-.4.55-.79.76-1.17l1.66.83h0Z"/>
    <path class="st0" d="M412.51,15.07c-1.5,1.29-4.06,2.74-6.66,3.51l-.16-.26c2.13-1.23,4.3-3.25,5.35-4.8l2.22,1.39c-.14.2-.31.28-.76.16h0ZM421.15,13.44c-.16-.61-.52-1.31-.95-1.96-1.09.22-2.4.45-3.93.73v4.82c0,1.29-.34,2.11-2.64,2.3-.04-.55-.14-.99-.42-1.25-.29-.26-.73-.48-1.71-.6v-.28s1.98.12,2.4.12c.31,0,.42-.1.42-.34v-4.46c-1.59.28-3.33.55-5.19.83-.14.26-.31.42-.5.5l-1.01-2.14s.55-.06.83-.16c1.89-.69,4.22-1.98,6.27-3.33-1.39.34-3.13.73-5.03,1.11-.12.2-.26.34-.4.4l-.97-2.02s.42-.04.61-.14c1.82-.71,4.2-2.58,5.4-3.79-2.36.61-5.01,1.15-7.5,1.45l-.1-.31c3.95-.92,8.72-2.74,11.11-4.14l1.98,1.63c-.18.2-.55.22-1.13.04-1.05.4-2.34.79-3.75,1.19l1.8,1.05c-.12.2-.4.34-.83.22-1.27.9-3.51,2.08-5.58,2.87,1.47-.06,3.47-.2,5.55-.34,1.23-.87,2.26-1.71,2.93-2.38l2.08,1.61c-.14.18-.45.29-.92.12-2.08,1.49-6.27,3.55-9.93,4.92,2.42-.12,6.05-.36,9.87-.61-.55-.79-1.21-1.55-1.8-2.11l.22-.14c5.85,1.89,4.66,5.83,2.8,4.6v-.02h.01ZM421.83,18.37c-.9-1.56-3.06-3.49-4.7-4.6l.18-.2c7.4,1.5,6.7,5.79,4.53,4.8h-.01Z"/>
  </g>
  <g>
    <path class="st0" d="M239.61,41.84h.84c.57,0,.81-.17.81-1v-8.81c0-.83-.24-1-.81-1h-.84v-.65h5.41c3.75,0,6.25,2.02,6.25,5.77s-2.02,6.32-6.99,6.32h-4.67v-.65h0ZM244.34,41.82c3.97,0,4.86-2.35,4.86-5.71,0-3.61-1.36-5.03-5.46-5.03h-.62v9.75c0,.83.4,1,.96,1h.26Z"/>
    <path class="st0" d="M252.71,38.02c0-2.57,1.73-4.63,4.14-4.63s3.72,1.21,3.72,4.18h-6.07c.02,2.59,1,4.08,2.93,4.08,1.44,0,2.48-1.01,3.02-1.53h.13v.87c-.7.66-1.85,1.7-3.82,1.7-2.69,0-4.06-2.31-4.06-4.67h0ZM258.83,36.89c-.04-1.32-.29-2.86-1.93-2.86s-2.17,1.64-2.31,2.86h4.25,0Z"/>
    <path class="st0" d="M261.37,45.83h.58c.57,0,.74-.1.74-.93v-9.6c0-.84-.17-.93-.77-.93h-.55v-.65l3.05-.24v1.15c.75-.65,1.59-1.25,2.91-1.25,2.28,0,3.5,2.04,3.5,4.5.02,2.47-1.64,4.74-3.84,4.74-1.32,0-1.78-.36-2.57-.87v3.14c0,.83.17.93.74.93h.75v.65h-4.54s0-.65,0-.65ZM268.96,38.02c0-2.33-.85-3.58-2.19-3.58-.98,0-1.72.4-2.35.91v5.72c.65.41,1.1.6,2.17.6,1.21,0,2.36-1.32,2.36-3.65h0Z"/>
    <path class="st0" d="M272.13,40.42c0-2.08,1.8-2.66,5.46-3.34v-1.01c0-1.02-.6-1.85-1.9-1.85-.96,0-1.42.21-1.9.49.43.17.65.53.65.87,0,.46-.36.91-1.01.91-.6,0-.93-.4-.93-.93,0-.94,1.53-2.17,3.48-2.17,2.4,0,3.32.96,3.32,3v4.54c0,.49.31.7.65.7s.74-.19.98-.32v.62c-.43.41-1.25.77-1.83.77-.68,0-1.4-.34-1.51-1.2-.68.72-1.68,1.2-2.84,1.2-1.57,0-2.62-.98-2.62-2.28h0ZM277.59,40.8v-3.05c-2.65.48-3.63.98-3.63,2.31,0,1.02.53,1.64,1.53,1.64.68,0,1.59-.41,2.1-.91Z"/>
    <path class="st0" d="M281.28,41.84h.58c.57,0,.74-.1.74-.93v-5.6c0-.84-.17-.93-.77-.93h-.55v-.65l3.05-.24v1.68c.84-1.06,1.64-1.78,2.62-1.78.7,0,1.19.55,1.19,1.23,0,.85-.46,1.21-.94,1.21-.6,0-.91-.32-.91-.87,0-.15.02-.32.07-.51-.64.13-1.53.87-2.02,1.46v5.01c0,.83.17.93.74.93h.81v.65h-4.59v-.65h0Z"/>
    <path class="st0" d="M289.99,40.62v-6.2h-1.32v-.55c1.55-.32,2.04-1.57,2.4-2.97h.64v2.78h2.19v.74h-2.19v5.58c0,.85.12,1.76,1.27,1.76.45,0,.81-.12,1.17-.34v.72c-.65.36-1.15.55-1.95.55-1.56,0-2.19-.64-2.19-2.08h0Z"/>
    <path class="st0" d="M294.68,41.84h.58c.57,0,.74-.1.74-.93v-5.6c0-.84-.17-.93-.77-.93h-.55v-.65l3.05-.24v1.15c.74-.65,1.61-1.25,2.88-1.25s2.06.62,2.4,1.49c.93-.87,1.87-1.49,3.14-1.49,2.1,0,2.69,1.53,2.69,3.17v4.35c0,.83.17.93.74.93h.58v.65h-4.25v-.65h.46c.57,0,.74-.1.74-.93v-4.66c0-.98-.43-1.82-1.47-1.82-.93,0-1.73.48-2.35,1v5.48c0,.83.17.93.74.93h.46v.65h-4.12v-.65h.46c.57,0,.74-.1.74-.93v-4.66c0-.98-.41-1.82-1.46-1.82-.94,0-1.76.4-2.36.91v5.57c0,.83.17.93.74.93h.46v.65h-4.25v-.65h.02Z"/>
    <path class="st0" d="M310.96,38.02c0-2.57,1.73-4.63,4.14-4.63s3.72,1.21,3.72,4.18h-6.07c.02,2.59,1,4.08,2.93,4.08,1.44,0,2.48-1.01,3.02-1.53h.13v.87c-.7.66-1.85,1.7-3.82,1.7-2.69,0-4.06-2.31-4.06-4.67ZM317.07,36.89c-.04-1.32-.29-2.86-1.93-2.86s-2.17,1.64-2.31,2.86h4.25,0Z"/>
    <path class="st0" d="M319.75,41.84h.58c.57,0,.74-.1.74-.93v-5.6c0-.84-.17-.93-.77-.93h-.55v-.65l3.05-.24v1.15c.75-.65,1.64-1.25,2.97-1.25,2.14,0,2.79,1.53,2.79,3.17v4.35c0,.83.17.93.74.93h.58v.65h-4.25v-.65h.46c.57,0,.74-.1.74-.93v-4.66c0-.98-.43-1.82-1.53-1.82-.98,0-1.87.4-2.5.91v5.57c0,.83.17.93.74.93h.46v.65h-4.25v-.65h0Z"/>
    <path class="st0" d="M331.6,40.62v-6.2h-1.32v-.55c1.55-.32,2.04-1.57,2.4-2.97h.64v2.78h2.19v.74h-2.19v5.58c0,.85.12,1.76,1.27,1.76.45,0,.81-.12,1.17-.34v.72c-.65.36-1.15.55-1.95.55-1.56,0-2.19-.64-2.19-2.08h0Z"/>
    <path class="st0" d="M341.33,38.05c0-2.67,1.61-4.66,4.33-4.66,2.86,0,4.33,2.19,4.33,4.66,0,2.61-1.7,4.65-4.33,4.65s-4.33-1.85-4.33-4.65ZM348.13,38.05c0-1.78-.43-4.03-2.47-4.03s-2.47,1.99-2.47,4.03c0,1.61.34,4.01,2.47,4.01s2.47-2.57,2.47-4.01Z"/>
    <path class="st0" d="M350.79,41.84h.58c.57,0,.74-.1.74-.93v-6.5h-1.34v-.74h1.34c0-2.59,1.46-4.25,3.48-4.25,1.37,0,1.8.77,1.8,1.25,0,.68-.48,1.01-.94,1.01s-.89-.32-.89-.79c0-.26.09-.57.38-.87-.12-.04-.22-.05-.34-.07-1.7,0-1.78,1.74-1.78,3.72h1.87v.74h-1.83v6.5c0,.83.17.93.74.93h.75v.65h-4.54v-.65h0Z"/>
    <path class="st0" d="M239.83,60.2c0-3.25,1.83-6.41,5.96-6.41.81,0,1.8.24,2.67.7l.41-.6h.62v3.74h-.75c-.19-.72-.19-.93-.46-1.51-.29-.62-.94-1.7-2.7-1.7-2.09,0-3.63,1.83-3.63,5.65s1.82,5.4,3.7,5.4c2.4,0,3.36-1.57,3.53-3.19h.74c-.07,2.1-1.72,4.06-4.21,4.06-3.97,0-5.86-2.76-5.86-6.15h0Z"/>
    <path class="st0" d="M250.7,65.48h.58c.57,0,.74-.1.74-.93v-9.66c0-.84-.17-.93-.77-.93h-.55v-.65l3.05-.24v5.21c.75-.65,1.66-1.25,2.98-1.25,2.1,0,2.78,1.53,2.78,3.17v4.35c0,.83.17.93.74.93h.58v.65h-4.25v-.65h.47c.57,0,.74-.1.74-.93v-4.66c0-.98-.43-1.82-1.53-1.82-.98,0-1.87.4-2.5.91v5.57c0,.83.17.93.74.93h.46v.65h-4.25v-.65h0Z"/>
    <path class="st0" d="M261.47,65.48h.58c.57,0,.74-.1.74-.93v-5.6c0-.84-.17-.93-.77-.93h-.55v-.65l3.05-.24v7.41c0,.83.17.93.74.93h.58v.65h-4.37v-.65h0ZM262.4,54.29c0-.64.49-1.13,1.13-1.13s1.13.49,1.13,1.13-.49,1.13-1.13,1.13-1.13-.49-1.13-1.13Z"/>
    <path class="st0" d="M266.49,65.48h.58c.57,0,.74-.1.74-.93v-5.6c0-.84-.17-.93-.77-.93h-.55v-.65l3.05-.24v1.15c.75-.65,1.64-1.25,2.97-1.25,2.14,0,2.79,1.53,2.79,3.17v4.35c0,.83.17.93.74.93h.58v.65h-4.25v-.65h.47c.57,0,.74-.1.74-.93v-4.66c0-.98-.43-1.82-1.53-1.82-.98,0-1.87.4-2.5.91v5.57c0,.83.17.93.74.93h.47v.65h-4.25v-.65h0Z"/>
    <path class="st0" d="M277.43,61.66c0-2.57,1.73-4.63,4.14-4.63s3.72,1.21,3.72,4.18h-6.07c.02,2.59,1,4.08,2.93,4.08,1.44,0,2.48-1.01,3.02-1.53h.13v.87c-.7.66-1.85,1.7-3.82,1.7-2.69,0-4.06-2.31-4.06-4.67ZM283.54,60.53c-.04-1.32-.29-2.86-1.93-2.86s-2.17,1.64-2.31,2.86h4.25,0Z"/>
    <path class="st0" d="M287.58,65.63l-.29.58h-.53v-3.17h.65c.15.72.36,1.1.81,1.76.47.49.96.91,1.9.91,1.34,0,2-.79,2-1.57,0-1.04-.94-1.38-2.23-1.76-1.37-.41-3-.87-3-2.76,0-1.36,1.44-2.59,3.32-2.59.84,0,1.59.26,2.28.57l.19-.41h.49v2.67h-.65c-.19-.7-.38-1.01-.7-1.51-.26-.28-.79-.66-1.59-.66-1.02,0-1.76.62-1.76,1.36,0,1.04.57,1.37,1.99,1.8,1.8.55,3.17,1.11,3.17,2.83s-1.66,2.69-3.57,2.69c-1.04,0-1.9-.38-2.48-.72h-.02Z"/>
    <path class="st0" d="M294.95,61.66c0-2.57,1.73-4.63,4.14-4.63s3.72,1.21,3.72,4.18h-6.07c.02,2.59,1,4.08,2.93,4.08,1.44,0,2.48-1.01,3.02-1.53h.13v.87c-.7.66-1.85,1.7-3.82,1.7-2.69,0-4.06-2.31-4.06-4.67ZM301.07,60.53c-.04-1.32-.29-2.86-1.93-2.86s-2.17,1.64-2.31,2.86h4.25,0Z"/>
    <path class="st0" d="M308.82,65.48h.84c.57,0,.81-.17.81-1v-8.81c0-.83-.24-1-.81-1h-.84v-.65h5.24v.65h-.93c-.57,0-.81.17-.81,1v8.79c0,.83.24,1,.81,1h1.23c2,0,2.47-.93,3.03-2.95h.75l-.53,3.61h-8.81v-.65h0Z"/>
    <path class="st0" d="M318.87,64.06c0-2.08,1.8-2.66,5.46-3.34v-1.01c0-1.02-.6-1.85-1.9-1.85-.96,0-1.42.21-1.9.49.43.17.65.53.65.87,0,.46-.36.91-1.01.91-.6,0-.93-.4-.93-.93,0-.94,1.53-2.17,3.48-2.17,2.4,0,3.32.96,3.32,3v4.54c0,.49.31.7.65.7s.74-.19.98-.32v.62c-.43.41-1.25.77-1.83.77-.68,0-1.4-.34-1.51-1.2-.68.72-1.68,1.2-2.84,1.2-1.57,0-2.62-.98-2.62-2.28h0ZM324.33,64.43v-3.05c-2.66.48-3.63.98-3.63,2.31,0,1.02.53,1.64,1.53,1.64.68,0,1.59-.41,2.1-.91Z"/>
    <path class="st0" d="M328.02,65.48h.58c.57,0,.74-.1.74-.93v-5.6c0-.84-.17-.93-.77-.93h-.55v-.65l3.05-.24v1.15c.75-.65,1.64-1.25,2.97-1.25,2.14,0,2.79,1.53,2.79,3.17v4.35c0,.83.17.93.74.93h.58v.65h-4.25v-.65h.47c.57,0,.74-.1.74-.93v-4.66c0-.98-.43-1.82-1.53-1.82-.98,0-1.87.4-2.5.91v5.57c0,.83.17.93.74.93h.47v.65h-4.25v-.65h0Z"/>
    <path class="st0" d="M338.77,67.89c0-.94.96-1.68,1.7-1.78-.89-.24-1.23-.94-1.23-1.46,0-.84.66-1.47,1.55-1.85-.91-.46-1.57-1.36-1.57-2.59,0-1.72,1.42-3.19,3.53-3.19,1.11,0,2.12.32,2.67.98.48-.81,1.02-.98,1.51-.98.43,0,.81.27.81.77,0,.36-.19.79-.72.79-.32,0-.53-.15-.83-.48l-.43.38c.26.45.43,1.06.43,1.72,0,1.72-1.37,3.06-3.42,3.06-.57,0-1.01-.05-1.51-.24-.31.19-.68.64-.68,1.1,0,.49.41.65,1.19.65h2.66c1.72,0,2.98.64,2.98,2.26,0,1.73-1.83,3.32-4.54,3.32-2.52,0-4.06-1.06-4.06-2.47h-.03ZM345.94,67.61c0-.58-.19-1.42-1.8-1.42h-3.22c-.31.45-.48.96-.48,1.64,0,.89,1.02,1.8,2.7,1.8,1.8,0,2.79-1.04,2.79-2.02h0ZM344.45,60.2c0-1.36-.43-2.53-1.72-2.53s-1.78,1.15-1.78,2.52c0,1.23.47,2.48,1.74,2.48s1.74-1.2,1.74-2.47h0Z"/>
    <path class="st0" d="M349.27,63.22v-4.27c0-.84-.17-.93-.77-.93h-.55v-.65l3.05-.24v6.39c0,.98.43,1.82,1.53,1.82.98,0,1.87-.4,2.5-.91v-5.48c0-.84-.17-.93-.77-.93h-.55v-.65l3.05-.24v7.33c0,.84.17.93.77.93h.55v.65l-3.05.24v-1.15c-.75.65-1.66,1.25-2.98,1.25-2.12,0-2.78-1.53-2.78-3.17h0Z"/>
    <path class="st0" d="M358.98,64.06c0-2.08,1.8-2.66,5.46-3.34v-1.01c0-1.02-.6-1.85-1.9-1.85-.96,0-1.42.21-1.9.49.43.17.65.53.65.87,0,.46-.36.91-1.01.91-.6,0-.93-.4-.93-.93,0-.94,1.53-2.17,3.48-2.17,2.4,0,3.32.96,3.32,3v4.54c0,.49.31.7.65.7s.74-.19.98-.32v.62c-.43.41-1.25.77-1.83.77-.68,0-1.4-.34-1.51-1.2-.68.72-1.68,1.2-2.84,1.2-1.57,0-2.62-.98-2.62-2.28h0ZM364.45,64.43v-3.05c-2.66.48-3.63.98-3.63,2.31,0,1.02.53,1.64,1.53,1.64.68,0,1.59-.41,2.1-.91Z"/>
    <path class="st0" d="M368.09,67.89c0-.94.96-1.68,1.7-1.78-.89-.24-1.23-.94-1.23-1.46,0-.84.66-1.47,1.55-1.85-.91-.46-1.57-1.36-1.57-2.59,0-1.72,1.42-3.19,3.53-3.19,1.11,0,2.12.32,2.67.98.48-.81,1.02-.98,1.51-.98.43,0,.81.27.81.77,0,.36-.19.79-.72.79-.32,0-.53-.15-.83-.48l-.43.38c.26.45.43,1.06.43,1.72,0,1.72-1.37,3.06-3.42,3.06-.57,0-1.01-.05-1.51-.24-.31.19-.68.64-.68,1.1,0,.49.41.65,1.19.65h2.66c1.72,0,2.98.64,2.98,2.26,0,1.73-1.83,3.32-4.54,3.32-2.52,0-4.06-1.06-4.06-2.47h-.03ZM375.27,67.61c0-.58-.19-1.42-1.8-1.42h-3.22c-.31.45-.48.96-.48,1.64,0,.89,1.02,1.8,2.7,1.8,1.8,0,2.79-1.04,2.79-2.02h0ZM373.78,60.2c0-1.36-.43-2.53-1.72-2.53s-1.78,1.15-1.78,2.52c0,1.23.47,2.48,1.74,2.48s1.74-1.2,1.74-2.47h0Z"/>
    <path class="st0" d="M377.42,61.66c0-2.57,1.73-4.63,4.14-4.63s3.72,1.21,3.72,4.18h-6.07c.02,2.59,1,4.08,2.93,4.08,1.44,0,2.48-1.01,3.02-1.53h.13v.87c-.7.66-1.85,1.7-3.82,1.7-2.69,0-4.06-2.31-4.06-4.67ZM383.53,60.53c-.04-1.32-.29-2.86-1.93-2.86s-2.17,1.64-2.31,2.86h4.25,0Z"/>
    <path class="st0" d="M391.37,63.1c0-2,1.44-2.97,2.83-3.59-.7-.98-1.15-1.53-1.15-2.59,0-1.2,1.04-2.62,2.97-2.62,1.56,0,2.76.81,2.76,2.26s-1.19,2.36-2.47,3c.85,1.08,2.04,2.38,2.97,3.44.43-.68.94-1.7.94-2.57,0-.4-.12-.75-.7-.75h-.45v-.66h3.59v.66h-.41c-.68,0-.93.4-1.17,1.2-.13.47-.55,1.51-1.36,2.64.34.38.66.7.93.96.49.51.91,1,1.56,1h.68v.66h-2.97l-1.34-1.44c-.89.98-1.9,1.66-3.67,1.66s-3.57-1.17-3.57-3.25h.02ZM398.19,64.23c-1.23-1.38-2.62-2.93-3.57-4.2-1,.48-1.47,1.38-1.47,2.47,0,1.23.96,2.7,2.78,2.7.85,0,1.42-.27,2.26-.98h0ZM397.32,56.48c0-.68-.36-1.55-1.38-1.55-.93,0-1.36.79-1.36,1.4,0,.93.6,1.8,1.3,2.72,1.19-.66,1.44-1.7,1.44-2.57Z"/>
    <path class="st0" d="M408.5,65.48h.84c.57,0,.81-.17.81-1v-8.81c0-.83-.24-1-.81-1h-.84v-.65h5.24v.65h-.93c-.57,0-.81.17-.81,1v8.79c0,.83.24,1,.81,1h1.23c2,0,2.47-.93,3.03-2.95h.75l-.53,3.61h-8.81v-.65h0Z"/>
    <path class="st0" d="M418.56,65.48h.58c.57,0,.74-.1.74-.93v-5.6c0-.84-.17-.93-.77-.93h-.55v-.65l3.05-.24v7.41c0,.83.17.93.74.93h.58v.65h-4.37v-.65h0ZM419.48,54.29c0-.64.49-1.13,1.13-1.13s1.13.49,1.13,1.13-.49,1.13-1.13,1.13-1.13-.49-1.13-1.13Z"/>
    <path class="st0" d="M424.66,64.26v-6.2h-1.32v-.55c1.55-.32,2.04-1.57,2.4-2.97h.64v2.78h2.19v.74h-2.19v5.58c0,.85.12,1.76,1.27,1.76.45,0,.81-.12,1.17-.34v.72c-.65.36-1.15.55-1.95.55-1.56,0-2.19-.64-2.19-2.08h0Z"/>
    <path class="st0" d="M429.59,61.66c0-2.57,1.73-4.63,4.14-4.63s3.72,1.21,3.72,4.18h-6.07c.02,2.59,1,4.08,2.93,4.08,1.44,0,2.48-1.01,3.02-1.53h.13v.87c-.7.66-1.85,1.7-3.82,1.7-2.69,0-4.06-2.31-4.06-4.67ZM435.71,60.53c-.04-1.32-.29-2.86-1.93-2.86s-2.17,1.64-2.31,2.86h4.25,0Z"/>
    <path class="st0" d="M438.38,65.48h.58c.57,0,.74-.1.74-.93v-5.6c0-.84-.17-.93-.77-.93h-.55v-.65l3.05-.24v1.68c.84-1.06,1.64-1.78,2.62-1.78.7,0,1.19.55,1.19,1.23,0,.85-.46,1.21-.94,1.21-.6,0-.91-.32-.91-.87,0-.15.02-.32.07-.51-.64.13-1.53.87-2.02,1.46v5.01c0,.83.17.93.74.93h.81v.65h-4.59v-.65h0Z"/>
    <path class="st0" d="M445.75,64.06c0-2.08,1.8-2.66,5.46-3.34v-1.01c0-1.02-.6-1.85-1.9-1.85-.96,0-1.42.21-1.9.49.43.17.65.53.65.87,0,.46-.36.91-1.01.91-.6,0-.93-.4-.93-.93,0-.94,1.53-2.17,3.48-2.17,2.4,0,3.32.96,3.32,3v4.54c0,.49.31.7.65.7s.74-.19.98-.32v.62c-.43.41-1.25.77-1.83.77-.68,0-1.4-.34-1.51-1.2-.68.72-1.68,1.2-2.84,1.2-1.57,0-2.62-.98-2.62-2.28h0ZM451.21,64.43v-3.05c-2.66.48-3.63.98-3.63,2.31,0,1.02.53,1.64,1.53,1.64.68,0,1.59-.41,2.1-.91h0Z"/>
    <path class="st0" d="M455.97,64.26v-6.2h-1.32v-.55c1.55-.32,2.04-1.57,2.4-2.97h.64v2.78h2.19v.74h-2.19v5.58c0,.85.12,1.76,1.27,1.76.45,0,.81-.12,1.17-.34v.72c-.65.36-1.15.55-1.95.55-1.56,0-2.19-.64-2.19-2.08h0Z"/>
    <path class="st0" d="M461.75,63.22v-4.27c0-.84-.17-.93-.77-.93h-.55v-.65l3.05-.24v6.39c0,.98.43,1.82,1.53,1.82.98,0,1.87-.4,2.5-.91v-5.48c0-.84-.17-.93-.77-.93h-.55v-.65l3.05-.24v7.33c0,.84.17.93.77.93h.55v.65l-3.05.24v-1.15c-.75.65-1.66,1.25-2.98,1.25-2.12,0-2.78-1.53-2.78-3.17h0Z"/>
    <path class="st0" d="M471.3,65.48h.58c.57,0,.74-.1.74-.93v-5.6c0-.84-.17-.93-.77-.93h-.55v-.65l3.05-.24v1.68c.84-1.06,1.64-1.78,2.62-1.78.7,0,1.19.55,1.19,1.23,0,.85-.46,1.21-.94,1.21-.6,0-.91-.32-.91-.87,0-.15.02-.32.07-.51-.64.13-1.53.87-2.02,1.46v5.01c0,.83.17.93.74.93h.81v.65h-4.59v-.65h0Z"/>
    <path class="st0" d="M478.82,61.66c0-2.57,1.73-4.63,4.14-4.63s3.72,1.21,3.72,4.18h-6.07c.02,2.59,1,4.08,2.93,4.08,1.44,0,2.48-1.01,3.02-1.53h.13v.87c-.7.66-1.85,1.7-3.82,1.7-2.69,0-4.06-2.31-4.06-4.67ZM484.94,60.53c-.04-1.32-.29-2.86-1.93-2.86s-2.17,1.64-2.31,2.86h4.25,0Z"/>
  </g>
  <line class="st1" x1="177.32" x2="177.32" y2="71.12"/>
</svg>