<?xml version="1.0" encoding="UTF-8"?>
<svg id="Layer_1" xmlns="http://www.w3.org/2000/svg" version="1.1" viewBox="0 0 410.1 71.12">
  <!-- Generator: Adobe Illustrator 29.5.0, SVG Export Plug-In . SVG Version: 2.1.0 Build 137)  -->
  <defs>
    <style>
      .st0 {
        fill: #6a6260;
      }
    </style>
  </defs>
  <g>
    <path class="st0" d="M9.42,56.64c-.15-.76-.27-1.13-.54-1.54-.3-.53-.73-.69-2.18-.69h-1.45c-.55,0-.62.04-.62.6v4.56h1.98c1.74,0,1.82-.17,2.07-1.4h.53v3.68h-.53c-.25-1.3-.33-1.53-2.07-1.53h-1.98v3.47c0,1.65.15,1.76,1.9,1.88v.54H1.32v-.54c1.53-.12,1.69-.23,1.69-1.88v-7.62c0-1.67-.16-1.77-1.63-1.88v-.54h8.43c0,.69.09,1.92.19,2.82l-.58.08h0Z"/>
    <path class="st0" d="M16.98,66.43c-.29,0-.68-.18-.9-.37-.25-.27-.36-.54-.46-.86-.77.52-1.68,1.23-2.26,1.23-1.36,0-2.3-1.13-2.3-2.34,0-.94.5-1.54,1.55-1.9,1.15-.38,2.55-.9,2.97-1.24v-.35c0-1.38-.65-2.17-1.61-2.17-.38,0-.67.15-.86.39-.25.25-.42.67-.58,1.26-.07.31-.28.44-.55.44-.35,0-.84-.38-.84-.82,0-.29.24-.5.61-.77.54-.38,1.78-1.13,2.87-1.34.58,0,1.15.17,1.57.52.67.56.86,1.34.86,2.34v3.56c0,.87.34,1.15.67,1.15.24,0,.5-.1.69-.21l.19.5-1.63.98h0ZM15.58,61.6c-.4.21-1.32.61-1.72.81-.75.35-1.17.7-1.17,1.4,0,.99.77,1.48,1.36,1.48.5-.02,1.17-.35,1.53-.69v-2.99h0Z"/>
    <path class="st0" d="M26.54,64.47c-.85,1.11-2.14,1.96-3.27,1.96-2.41,0-3.83-1.96-3.83-4.01,0-1.47.63-2.76,1.92-3.76,1-.76,2.15-1.07,2.89-1.07s1.4.25,1.71.5c.25.21.31.38.31.59,0,.4-.42.82-.63.82-.09,0-.19-.06-.36-.21-.58-.54-1.26-.78-1.92-.78-1.27,0-2.38,1.05-2.38,3.06,0,2.67,1.82,3.55,2.9,3.55.82,0,1.45-.23,2.34-1.05l.33.4s-.01,0,0,0Z"/>
    <path class="st0" d="M36.88,65.75c-.89.13-1.87.4-2.82.69l-.12-.12v-1.35c-.43.33-.89.67-1.42,1-.56.32-.96.48-1.47.48-1.29,0-2.37-.79-2.37-2.86v-3.75c0-1.06-.08-1.13-1.17-1.34v-.44c.91-.05,1.82-.18,2.75-.34-.06.6-.06,1.49-.06,2.8v2.57c0,1.71.82,2.17,1.69,2.17.69,0,1.42-.29,2.06-.93v-4.47c0-1.09-.11-1.17-1.48-1.36v-.44c1-.05,1.98-.13,3-.34v6.41c0,.96.15,1.09.89,1.13l.53.04v.48h0v-.03h-.01Z"/>
    <path class="st0" d="M37.5,66.2v-.5c1.21-.11,1.38-.23,1.38-1.49v-9.07c0-1.3-.11-1.36-1.31-1.45v-.46c.98-.12,2.17-.44,2.82-.67v11.65c0,1.26.16,1.38,1.38,1.49v.5h-4.27Z"/>
    <path class="st0" d="M46.26,66.18c-.34.18-.65.25-.81.25-1.22,0-1.89-.77-1.89-2.28v-5.58h-1.31l-.08-.2.51-.55h.89v-1.4l1.25-1.27.27.04v2.63h2.18c.15.19.11.61-.13.75h-2.05v4.92c0,1.56.64,1.84,1.12,1.84s.93-.19,1.2-.33l.15.5-1.29.67h0Z"/>
    <path class="st0" d="M56.91,58.3c-1.02.16-1.2.31-1.71,1.4-.46,1.01-1.07,2.61-2.4,5.77-1.27,3.06-1.69,4.15-1.96,5.19-.11.37-.36.46-.63.46-.54,0-1.08-.46-1.08-.92,0-.31.18-.47.48-.68.6-.39.98-.87,1.42-1.71.36-.67.51-1.07.61-1.33.08-.29.08-.54-.03-.86-.78-2.18-1.62-4.5-2.2-5.86-.4-1.05-.61-1.3-1.65-1.46v-.47h3.89v.47c-.89.16-.98.35-.73,1.05l1.72,4.81c.54-1.3,1.38-3.56,1.78-4.77.22-.73.09-.94-1-1.09v-.47h3.47v.47s.02,0,.02,0Z"/>
    <path class="st0" d="M69.96,61.87c0,3.09-2.27,4.56-4.18,4.56-2.63,0-4.18-2.11-4.18-4.24,0-3.16,2.44-4.6,4.18-4.6,2.38,0,4.18,1.9,4.18,4.28M63.38,61.58c0,2.42,1.04,4.22,2.63,4.22,1.17,0,2.15-.88,2.15-3.51,0-2.24-.88-4.06-2.55-4.06-1.2,0-2.22,1.18-2.22,3.35"/>
    <path class="st0" d="M72.38,57.83v-.42c0-.6.06-1.15.2-1.58.12-.42.44-1.36,1.46-2.24.69-.59,1.38-.94,2.11-1.03.66.02,1.22.29,1.51.65.18.21.2.46.11.67-.07.15-.18.31-.38.46-.15.13-.33.13-.51-.06-.37-.35-.91-.71-1.55-.71-.49,0-.8.23-1.03.58-.25.36-.44,1.29-.42,2.92v.77h2.24c.13.16.02.63-.18.75h-2.07v5.51c0,1.42.13,1.48,1.65,1.64v.48h-4.53v-.5c1.24-.11,1.38-.21,1.38-1.48v-5.64h-1.36l-.06-.2.51-.55h.92s0-.02,0-.02Z"/>
    <path class="st0" d="M90.41,66.38v-.57c1.21-.15,1.36-.33,1.12-1.11-.25-.74-.61-1.74-1.02-2.87h-4.11c-.29.84-.56,1.64-.81,2.44-.4,1.2-.26,1.39,1.21,1.55v.57h-4.28v-.57c1.27-.18,1.53-.31,2.2-2.03l4.03-10.19.69-.19c1.21,3.35,2.51,7.03,3.76,10.4.61,1.68.88,1.88,2.15,2.01v.57h-4.95,0ZM88.56,56.13h-.06c-.6,1.62-1.18,3.26-1.77,4.84h3.49l-1.66-4.84Z"/>
    <path class="st0" d="M99.34,59.66c.61-1.03,1.43-2.07,2.34-2.07.7,0,1.16.53,1.16,1.02,0,.45-.28.86-.68,1.05-.23.1-.41.06-.53-.06-.29-.27-.54-.39-.87-.39-.47,0-1.06.51-1.46,1.55v3.59c0,1.27.1,1.38,1.61,1.5v.53h-4.65v-.53c1.2-.12,1.32-.24,1.32-1.5v-4.08c0-1.25-.09-1.31-1.16-1.48v-.45c.99-.15,1.89-.39,2.88-.78v2.1s.04,0,.04,0Z"/>
    <path class="st0" d="M107.71,66.36c-.33.18-.63.25-.79.25-1.3,0-2.01-.76-2.01-2.35v-5.64h-1.33l-.09-.21.53-.59h.89v-1.43l1.44-1.33.26.06v2.69h2.16c.19.2.14.64-.11.8h-2.05v4.98c0,1.56.66,1.83,1.14,1.83s.88-.16,1.15-.29l.18.53-1.38.68h0v.02h0Z"/>
    <path class="st0" d="M115,60.18c-.38-1.15-1.05-1.94-2.01-1.94-.7,0-1.21.55-1.21,1.29,0,.82.71,1.27,1.61,1.66,1.5.63,2.5,1.31,2.5,2.69,0,1.81-1.68,2.73-3.26,2.73-1.01,0-1.93-.37-2.28-.66-.14-.27-.32-1.62-.33-2.36l.55-.08c.35,1.27,1.23,2.44,2.42,2.44.7,0,1.33-.53,1.33-1.31,0-.82-.5-1.27-1.53-1.76-1.12-.53-2.47-1.19-2.47-2.71,0-1.41,1.18-2.58,3.02-2.58.84,0,1.38.18,1.78.35.15.43.37,1.64.42,2.09l-.53.14h0Z"/>
    <path class="st0" d="M47.15,1.61c1.86-.75,1.49,1,1.51,1,.06,2.03-.92,2.34-.9,2.34-2.07.9-1.86,1.71-1.86,1.71,0,1.27,1.86,1.09,1.86,1.09,2.3.02,2.13.88,2.13.87-.02,1.15-2.28,1.09-2.27,1.11-1.61-.04-1.17,1.5-1.17,1.48,0,1.46,2.17,1.71,2.17,1.71,1.32.56-2.09,2.86-2.09,2.86-2.49,1.54-2.63-1.19-2.63-1.21-.62-6.49-.96-6.67-.96-6.68-1.62-3.96.96-5.03.96-5.03,0,0,3.27-1.25,3.25-1.25h0ZM54.77,2.03c-.61.75-1.17.06-1.15.08-.41-.87-.9-.69-.9-.69-1.06.1-.36,3.11-.39,3.05,0,.9-1.37,2.38-1.37,2.38-.78.96,0,1.77,0,1.77.75.44,2.4-1.65,2.4-1.65.96-1,1.58-.88,1.62-.88.48-.02,2.63,1.21,2.63,1.21.8.23,1-.58,1.05-.58.56-.56-2.34-2.34-2.33-2.34-.52-.33.69-1.27.75-1.29.82-.75-.54-1.96-.54-1.96-.79-.9-1.23,0-1.23,0,0,0-.54.9-.56.9,0,0,.02,0,.02,0ZM52.77,11.12s-2.43,2.09-1.94,2.67c0,.02.36.96,1.52-.15-.02-.02,1.78-2.21,2.67-1.58,0,0,1.69,1.62,2.67.59.02.03,1.02-.7-.29-1.53-.02.02-1.46-.81-.33-1.4-.02,0,1.13-.6.18-1.75-.04-.02-.91-1.21-1.25.27,0,0-.93,1.71-1.58,1.23.02,0-1.36-1.4-1.86-1.29,0,0-.85.42-.48,1.82,0,.02.23.75.69,1.11h0ZM64.65,1.94c-.5-.1-1.03-.16-1.51-.33-.41-.14-1.16-.86-1.58-.65-.28.14-.26.71-.27.96-.03,1.04.35,2.04,1.26,2.63,1.18.76.26,3-1.09,2.08-1.56-1.05-1.13,1.1-1.13,1.08.04,1.38.91,1.44.89,1.44,1.19.4.65,1.31.65,1.31-.19,1.11-1.02.96-1.02.96h-.06c-1.35-.14.14,1.3.14,1.26,1,1.06,1.98.92,1.98.92,1.61,0,2.21-3.53,2.21-3.53.54-2.27,1.54-4.99,1.56-5.01.77-1.4.04-2.35-1.1-2.83-.28-.12-.59-.21-.91-.27h0s-.02-.02-.02-.02ZM40.52,29.57s-.6,8.98,1.89,10.22c.03,0,1.26.62.57-1.27,0,0-.35-2.84-.15-5.53,0,0-.27-10.91,3.57-12.56-.04,0,4.11-2.34,8.45-2.31.84.14,1.89-.1,2.75-.1,1.61,0,3.19.08,4.78.3.69.09,1.68.31,2.09.95.4.63.44,1.43.58,2.14.12.67.28,1.33.39,2.01.14.83.26,1.67.34,2.51.09.89.28,1.9.17,2.79,0,0-.71,5.83,1.05,6.49.66.25.57-1.89.58-2.14.05-4.03,0-8.06,0-12.09v-1.05s.65-4.76-3.46-4.65c0-.08-5.07.31-9.1-.27-1.84-.26-3.72-.33-5.37.73-.44.29-.59.53-1.1.52-.96,0-1.91.3-2.62.96-.32.29-.34.43-.77.44-2.24.07-4.07,1.56-4.47,3.81-.47,2.62-.16,5.44-.15,8.09h-.02,0ZM56.19,32.11v3.5c-.2,4.66-5.23,8.61-5.23,8.64-4.55,3.63-9.25,4.07-9.25,4.07-1.84.04-1.76-.49-1.76-.49-.12-1.11,1.84-1.61,1.88-1.65,3.69-.58,5.53-2.15,5.53-2.19,6.42-4.53,5.42-9.76,5.42-9.76.04-1.19-4.03-1.5-3.99-1.5-2.27-.31-1.73-2.42-1.73-2.42.15-3.38,1.73-1.38,1.73-1.38,0,0,2.06,1.41,2.06,1.42,1.56,1,1.17-.77,1.17-.77,0-.8-3.88-4.42-3.88-4.42-1.27-1.19-.96-1.65-.96-1.69.58-.92,1.8-.15,1.84-.15-.62-.58-.27-.96-.27-.92,2.11-2.19,9.02-2,9.07-2,2.03.11,1.15,1.84,1.15,1.84l1.38,1.11c2.26,2.03-4.23,4.19-4.23,4.19-1.11.46-.3,2.15-.34,2.11.58,1.15,3.03-1.3,2.99-1.32,1.31-2.08,2.61.59,2.65.55,1.88,2.53-5.22,3.23-5.22,3.23,0,0,0,0-.01,0ZM55.64,26.14c.29.03.63-.03.83-.25-.28-.58-.57-.7.14-.99.42-.18.85-.42,1.2-.72.29-.26.47-.55.68-.86.23-.33-.22-.34-.44-.33-1.16.02-2.38.47-3.48.78-.47.13-3.13.65-2.93,1.38.04.15.14.18.24.28h0c.12.12.86,1.47,1.52,1.47.46,0,.76-.96,1.27-1.02.32-.04.64.24.96.27h0ZM82.62,9.49s3.27-.8,3.3-.77c5.15-.46,3.92,2.88,3.96,2.84-.65,1.33-.69,3.45-.69,3.45-.58,3.53-6.76,5.03-6.76,5.03,0,0-.04,2.57.04,2.57,2.38-1.27,3.88-1.23,3.88-1.23,3.53-.38,1.65,4.65,1.69,4.65-.42,3.06-3.76,4.18-3.8,4.18-1.28.39-1.8,1.26-1.7,2.58.12,1.58-.17,3.15-.09,4.73.03.6-.55.92-.88,1.36-.42.56-.72,1.22-.79,1.91-.12,1.11.42,3.26-.68,4.06-1.69,1.23-1.96-3.49-1.96-3.49l-.03-13.14c0-.65-.03-1.3-.04-1.95-.07-3.11-.12-6.21-.19-9.32-.03-1.68-.06-3.35-.1-5.03-.01-.62-.04-1.25-.05-1.87-.05-2.26.04-4.23,1.68-5.98,1.67-1.78,3.97-2.04,6.24-2.4,1.31-.21,3.7-.85,4.05,1.05,0,0,.34,1.88.3,1.8.14,2.07-5.44,1.54-5.4,1.54-2.46.35-1.96,3.42-1.96,3.42h-.02ZM82.4,26.35s-.1,1.01,1.17,1.02c-.04.02,1.23.29,1.27-1.44.04.04.37-2.23-1.02-1.19-.06,0-1.41.54-1.42,1.62h0ZM83.15,16.74s2.19.46,2.31-1.61c0-.04.61-2.31-.5-1.84,0,.04-1.8.81-1.8.81,0,0-1.69,2.11,0,2.65h0ZM91.74,17.97c-.09,1.8.63,2,.59,1.96,1.04.27.96-1.54,1-1.65.35-1.8,2.19-7.83,2.19-7.87.88-1.69,2.46-1.8,2.46-1.84,2.72-.5,3.88-1.62,3.8-1.58.82-.65,1.26-.04,1.3,0,.38.42,3.73,2.73,3.76,2.73,1.54,1.07,1.38,1.88,1.38,1.88,0,0,0,8.1.04,8.18-.42,2.31,0,2.38,0,2.42,2.11.73,2.38-4.26,2.38-4.26,0-3.34.92-6.03.92-6.11,1.23-3.07-2.26-4.65-2.26-4.61,0-.13-1.27-.87-1.43-.99-.45-.34-.88-.69-1.3-1.06-.63-.55-1.73-1.26-2.09-2.02-.19-.4-.27-.8-.71-.98-.52-.21-1.19-.03-1.72,0-.76.05-1.64.45-2.33.76-1.21.54-2.43,1.06-3.62,1.64-.18.09-1.87.72-1.89.93-2.84,1.84-2.46,6.87-2.46,6.87,0,0,.04,5.65-.02,5.61h.01ZM96.52,12.87s-1.23.46-.23,2.31c0-.04.35,1.61,3.5,1.46,0,.04,6.68.52,6.87-1.62,0,.05.23-1.34-2.65-1.78-.04-.01-5.03-1.13-7.49-.36h0ZM101.02,22.93s-.08,1.84,1.54,3.96c-.04.19,1.76,1.5,0,3.11,0,0-4.07,3.19-2.92,7.72-.03,0,.34,4.42,8.37,7.69,0,0,6.91,3.45,7.84,1.5-.04.04.42-.04-.84-.54.04,0-8.33-2.96-11.36-7.84,0,.08-1.58-3.27.61-5.07-.04.04,2.58-1.84,2.42-4.53-.03-.52.01-.97-.14-1.49-.16-.57-.4-1.1-.73-1.6-.31-.45-.81-.94-.98-1.47-.26-.81.02-2.06.8-2.49.68-.38,1.57-.38,2.18-.91.32-.27.41-.71.24-1.1-.38-.9-1.3-.99-2.14-1.05-1.31-.09-2.62-.02-3.93.08,0,.04-2.96.42-6.26.08-.08,0-2-1.34-2.53,1.84-.04-.04-.92,4.34,1.58,2.96l1.14-.55s-.03,1.67-3.75,4.74c-1.23,1.01-1.7,2.53-1.91,4.06-.32,2.31-.38,4.63-.74,6.93-.06.37-.38,1.25-.24,1.61.12.3.63.27.9.08.95-.68.83-2.17.84-3.16,0-.87.03-1.74.12-2.61.28-2.73,1.75-5.65,4.37-6.8-.04,0,2.96-.92,4.22-3.99,0,.04.31-2.3,1.31-1.15h-.01ZM15.24.22c-.59.68-.71,1.75-.78,2.62-.06.62-.09,1.25-.14,1.87-.16,1.71-4.3,4.03-4.34,4.04-1.07.54-2.06,1.2-2.99,1.94-1.43,1.14-2.69,2.48-3.8,3.94-.95,1.24-1.77,2.62-2.34,4.08-.16.42-.37,1.11-.47,1.55-.31,1.29-.4,2.29-.38,3.62,0,.46,0,.94.17,1.38.09.24.24.47.46.61.14.08.61.26.77.16.21-.12.36-.55.38-.78.05-.6.18-1.11.18-1.08.55-1.44,1.09-4.11,1.12-4.14.17-.62.4-1.24.7-1.81.23-.44.51-.85.78-1.27,1.36-2.1,2.49-2.42,4.02-3.41.56-.36,1.08-.79,1.63-1.16.71-.47,1.44-.92,2.18-1.35.52-.31,1.05-.61,1.58-.91.44-.26.92-.45,1.36-.7.27-.15.51-.32.83-.26.33.06.59.3.89.43.95.43,1.87,1.03,2.77,1.57.1.06,1.42.81,1.49.87,1.43,1.03,2.27,1.91,2.48,2.12.9.93,1.71,2.01,2.2,3.2.49,1.21.65,2.54.87,3.82.07.41.05,1.06.23,1.43.49,1.01.07,1.1.1,1.16-.13.67.2.45.2.45.18-.38.47.07.47.04.26.42.62-.21.66-.21.44-.93-.07-1.16-.07-1.2-.65-.26-.31-.65-.31-.65.35-.27.59-.61.7-1.03.24-.87.16-1.85.02-2.73-.2-1.2-.44-2.43-.88-3.57-.5-1.31-1.36-2.45-2.29-3.49-.43-.47-2.06-2.12-2.68-2.5-2.69-1.64-4.31-2.98-4.27-2.95-.61-.63-.61-1.17-.61-1.17.31-1.49.03-2.31.03-2.31-.26-.68-.64-1.38-1.22-1.84-.22-.17-.54-.41-.87-.53-.31-.11-.63-.11-.86.15h.03ZM11.38,13.06s-.92-.66-1.61,1.78c0-.02-.84,2.41-.2,3.37,0,0,.4.74,1.92,1.49,0,.02.32.13-.03.57,0,0-1.75,2.01-4.4,7.63-.01.02-2.43,4.06-3.41,11.12,0,0-.78,4.37-.06,7.96.03.02.25,1.22.86,1.43,0-.02-.01.63.55.73.22.07.41-.57.46-.69.08-.22.14-.44.23-.66.16-.41.09-.74.04-1.17-.05-.45-.09-.9-.09-1.35,0-.25.01-.5.04-.75.06-.7.24-1.39.36-2.08.11-.66.32-1.23.44-1.89.31-1.57.55-3.21,1-4.75.2-.68.42-1.38.74-2.01.01,0,.36-1.39,1.19-3,1.18-2.26,2.95-5.12,4.11-7.48.02,0,.83-1.64,1.12-1.77.38-.16,1.91,1.19,4.47,4.2,0-.02,2.59,2.85,4.38,6.82,0,.02,1.9,3.95,2.04,10.52.02.02.1,4.47,1.01,2.93.01-.04.91-1.31.82-4.16.03-.02-.54-7.82-.91-9.55-.16-.8-.4-1.59-.64-2.37-.54-1.67-1.15-3.33-2.06-4.84-.64-1.07-1.45-2.05-2.19-3.06-.58-.79-1.21-1.53-1.89-2.23-.55-.58-1.13-1.13-1.73-1.65,0,0,.75-.95,1.93-.84-.05,0,1.72.27,1.83-1.69.02,0-.37-2.43-1.87-3.07,0,0-.37-.38-1.53.77,0,.03-2.73,2.07-2.73,2.07,0,0-.34.7-1.17.09,0,.02-1.66-.83-2.44-1.83-.03-.02-.57-.62-.57-.62h-.01s0,.03,0,.03Z"/>
  </g>
  <g>
    <g>
      <path class="st0" d="M180.57,35.73h4.65c4.21,0,5.99,2.82,5.99,6.23,0,3.76-2.17,6.39-5.84,6.39h-4.79v-12.63ZM185.27,46.75c2.33,0,4.11-1.49,4.11-4.68,0-3.5-2.14-4.74-4.58-4.74h-2.49v9.42h2.96Z"/>
      <path class="st0" d="M193.85,35.73h8.08v1.6h-6.35v3.74h6.02v1.67h-6.02v3.98h6.51v1.63h-8.24v-12.63Z"/>
      <path class="st0" d="M204.76,35.73h4.63c1.7,0,4.26.87,4.26,3.87s-2.62,4.02-4.1,4.02h-3.06v4.74h-1.73v-12.63ZM209.13,41.95c1.41,0,2.69-.63,2.69-2.31s-1.34-2.3-2.74-2.3h-2.59v4.61h2.64Z"/>
      <path class="st0" d="M218.59,35.73h1.99l4.97,12.63h-1.86l-1.55-3.89h-5.17c-.52,1.3-1,2.59-1.52,3.89h-1.83l4.97-12.63ZM221.52,42.8c-.63-1.59-1.31-3.34-1.93-5h-.03l-1.96,5h3.92Z"/>
      <path class="st0" d="M227.54,35.73h4.63c1.6,0,4.26.87,4.26,3.9,0,2.27-1.39,3.55-3.08,3.8v.02c1.1,1.63,2.2,3.27,3.29,4.91h-1.96l-3.19-4.79h-2.22v4.79h-1.73v-12.63ZM231.91,42.03c1.41,0,2.69-.68,2.69-2.35s-1.34-2.36-2.74-2.36h-2.59v4.71h2.64Z"/>
      <path class="st0" d="M237.62,37.33v-1.6h9.88v1.6h-4.06v11.02h-1.75v-11.02h-4.06Z"/>
      <path class="st0" d="M249.59,35.73h2.14c1.51,3.33,3.01,6.69,4.5,10.02h.03c1.51-3.33,3-6.69,4.5-10.02h2.15v12.63h-1.76v-9.33h-.07c-1.38,3.11-2.77,6.22-4.14,9.33h-1.39c-1.38-3.11-2.77-6.22-4.14-9.33h-.05v9.33h-1.76v-12.63Z"/>
      <path class="st0" d="M266.29,35.73h8.08v1.6h-6.35v3.74h6.02v1.67h-6.02v3.98h6.51v1.63h-8.24v-12.63Z"/>
      <path class="st0" d="M277.21,35.73h1.83c2.2,3.19,4.4,6.33,6.62,9.67h.03v-9.67h1.73v12.63h-1.83c-2.19-3.14-4.4-6.23-6.62-9.52h-.03v9.52h-1.73v-12.63Z"/>
      <path class="st0" d="M289.51,37.33v-1.6h9.88v1.6h-4.06v11.02h-1.75v-11.02h-4.06Z"/>
      <path class="st0" d="M304.52,42.06c0-3.84,2.85-6.59,6.36-6.59s6.36,2.83,6.36,6.59-2.82,6.57-6.36,6.57-6.36-2.72-6.36-6.57ZM310.89,47c2.48,0,4.5-2.09,4.5-4.94s-2.01-4.95-4.5-4.95-4.53,2.07-4.53,4.95,2.07,4.94,4.53,4.94Z"/>
      <path class="st0" d="M319.85,35.73h7.93v1.64h-6.2v3.9h5.88v1.67h-5.88v5.42h-1.73v-12.63Z"/>
      <path class="st0" d="M333.45,42.04c0-4.1,2.95-6.57,6.36-6.57,2.51,0,4.83,1.36,5.67,3.82l-1.6.65c-.7-1.73-2.2-2.83-4.08-2.83-2.49,0-4.52,1.89-4.52,5,0,3.42,2.43,4.89,4.7,4.89s3.77-1.44,4.37-3.46l1.6.57c-.91,2.83-3.06,4.53-6.04,4.53-3.77,0-6.46-2.67-6.46-6.59Z"/>
      <path class="st0" d="M348.08,35.73h1.73v5.49h6.57v-5.49h1.73v12.63h-1.73v-5.47h-6.57v5.47h-1.73v-12.63Z"/>
      <path class="st0" d="M361.52,35.73h1.73v12.63h-1.73v-12.63Z"/>
      <path class="st0" d="M366.65,35.73h1.83c2.2,3.19,4.4,6.33,6.62,9.67h.03v-9.67h1.73v12.63h-1.83c-2.19-3.14-4.4-6.23-6.62-9.52h-.03v9.52h-1.73v-12.63Z"/>
      <path class="st0" d="M380.26,35.73h8.08v1.6h-6.35v3.74h6.02v1.67h-6.02v3.98h6.51v1.63h-8.24v-12.63Z"/>
      <path class="st0" d="M390.19,44.91l1.62-.57c.52,1.91,1.85,2.69,3.24,2.69,1.28,0,2.59-.62,2.59-2.02s-1.26-1.72-2.41-2.07l-1.17-.36c-1.25-.39-3.43-1.2-3.43-3.58s2.01-3.53,4.23-3.53,3.79,1.23,4.27,2.98l-1.59.65c-.42-1.23-1.38-2.04-2.77-2.04s-2.31.73-2.31,1.81c0,1.36,1.55,1.88,2.44,2.17l1.28.4c1.29.42,3.33.99,3.33,3.33s-1.91,3.85-4.45,3.85c-2.15,0-4.19-1.12-4.87-3.72Z"/>
      <path class="st0" d="M402.02,35.73h8.08v1.6h-6.35v3.74h6.02v1.67h-6.02v3.98h6.51v1.63h-8.24v-12.63Z"/>
      <path class="st0" d="M180.57,57.32h1.73v10.99h6.04v1.63h-7.77v-12.63Z"/>
      <path class="st0" d="M194.06,57.32h1.99l4.97,12.63h-1.86l-1.55-3.89h-5.16c-.52,1.3-1,2.59-1.52,3.89h-1.83l4.97-12.63ZM196.99,64.39c-.63-1.59-1.31-3.33-1.93-5h-.03l-1.96,5h3.92Z"/>
      <path class="st0" d="M203.01,57.32h1.83c2.2,3.19,4.4,6.33,6.62,9.67h.03v-9.67h1.73v12.63h-1.83c-2.19-3.14-4.4-6.23-6.62-9.52h-.03v9.52h-1.73v-12.63Z"/>
      <path class="st0" d="M215.85,63.66c0-4.05,2.88-6.61,6.35-6.61,2.57,0,4.86,1.41,5.68,3.82l-1.6.65c-.71-1.73-2.19-2.83-4.06-2.83-2.46,0-4.53,1.86-4.53,5,0,3.48,2.53,4.89,4.71,4.89s3.82-1.46,4.08-3.53h-3.9v-1.46h5.63v6.35h-1.36c-.03-.79-.05-1.62-.08-2.41h-.08c-.87,1.7-2.41,2.69-4.6,2.69-3.64,0-6.23-2.72-6.23-6.56Z"/>
      <path class="st0" d="M230.95,65.18v-7.87h1.75v7.74c0,2.3.96,3.55,2.93,3.55s2.91-1.25,2.91-3.55v-7.74h1.75v7.87c0,2.44-.99,5.04-4.69,5.04-3.5,0-4.65-2.33-4.65-5.04Z"/>
      <path class="st0" d="M246.82,57.32h1.99l4.97,12.63h-1.86l-1.55-3.89h-5.17c-.52,1.3-1,2.59-1.52,3.89h-1.83l4.97-12.63ZM249.75,64.39c-.63-1.59-1.31-3.33-1.93-5h-.03l-1.96,5h3.92Z"/>
      <path class="st0" d="M254.62,63.66c0-4.05,2.88-6.61,6.35-6.61,2.57,0,4.86,1.41,5.68,3.82l-1.6.65c-.71-1.73-2.19-2.83-4.06-2.83-2.46,0-4.53,1.86-4.53,5,0,3.48,2.53,4.89,4.71,4.89s3.82-1.46,4.08-3.53h-3.9v-1.46h5.63v6.35h-1.36c-.03-.79-.05-1.62-.08-2.41h-.08c-.87,1.7-2.41,2.69-4.6,2.69-3.64,0-6.23-2.72-6.23-6.56Z"/>
      <path class="st0" d="M269.87,57.32h8.08v1.6h-6.35v3.74h6.02v1.67h-6.02v3.98h6.51v1.63h-8.24v-12.63Z"/>
      <path class="st0" d="M284.35,66.98c0-1.72,1.29-2.78,2.61-3.63-.81-.88-1.7-2.01-1.7-3.3,0-1.67,1.38-3,3.32-3,2.07,0,3.27,1.52,3.27,3.03s-1.28,2.67-2.53,3.46l2.27,2.38c.32-.7.57-1.49.76-2.33l1.55.32c-.29,1.18-.68,2.27-1.17,3.17l2.72,2.83h-2.14l-1.52-1.57c-.94,1.17-2.12,1.86-3.63,1.86-2.1,0-3.82-1.23-3.82-3.24ZM288.26,68.7c1.02,0,1.83-.57,2.44-1.44l-2.78-2.87c-1.02.66-1.86,1.31-1.86,2.4,0,1.17.97,1.91,2.2,1.91ZM288.38,62.56c1.07-.73,1.73-1.31,1.73-2.36s-.68-1.65-1.59-1.65c-.86,0-1.52.57-1.52,1.51s.65,1.73,1.38,2.51Z"/>
      <path class="st0" d="M300.86,57.32h1.73v10.99h6.04v1.63h-7.77v-12.63Z"/>
      <path class="st0" d="M310.72,57.32h1.73v12.63h-1.73v-12.63Z"/>
      <path class="st0" d="M314.54,58.92v-1.6h9.88v1.6h-4.06v11.03h-1.75v-11.03h-4.06Z"/>
      <path class="st0" d="M326.5,57.32h8.08v1.6h-6.35v3.74h6.02v1.67h-6.02v3.98h6.51v1.63h-8.24v-12.63Z"/>
      <path class="st0" d="M337.41,57.32h4.63c1.6,0,4.26.87,4.26,3.9,0,2.27-1.39,3.55-3.08,3.8v.02c1.1,1.63,2.2,3.27,3.29,4.91h-1.96l-3.19-4.79h-2.22v4.79h-1.73v-12.63ZM341.78,63.61c1.41,0,2.69-.68,2.69-2.35s-1.34-2.36-2.74-2.36h-2.59v4.71h2.64Z"/>
      <path class="st0" d="M352.56,57.32h1.99l4.97,12.63h-1.86l-1.55-3.89h-5.17c-.52,1.3-1,2.59-1.52,3.89h-1.83l4.97-12.63ZM355.5,64.39c-.63-1.59-1.31-3.33-1.93-5h-.03l-1.96,5h3.92Z"/>
      <path class="st0" d="M358.73,58.92v-1.6h9.88v1.6h-4.06v11.03h-1.75v-11.03h-4.06Z"/>
      <path class="st0" d="M370.55,65.18v-7.87h1.75v7.74c0,2.3.96,3.55,2.93,3.55s2.91-1.25,2.91-3.55v-7.74h1.75v7.87c0,2.44-.99,5.04-4.69,5.04-3.5,0-4.65-2.33-4.65-5.04Z"/>
      <path class="st0" d="M383.15,57.32h4.63c1.6,0,4.26.87,4.26,3.9,0,2.27-1.39,3.55-3.08,3.8v.02c1.1,1.63,2.2,3.27,3.29,4.91h-1.96l-3.19-4.79h-2.22v4.79h-1.73v-12.63ZM387.52,63.61c1.41,0,2.69-.68,2.69-2.35s-1.34-2.36-2.74-2.36h-2.59v4.71h2.64Z"/>
      <path class="st0" d="M394.77,57.32h8.08v1.6h-6.35v3.74h6.02v1.67h-6.02v3.98h6.51v1.63h-8.24v-12.63Z"/>
    </g>
    <g>
      <path class="st0" d="M192.17,1.06v4.43h9.12v12.37h-2.43v-1.46h-6.68v8.58h-2.51v-8.58h-6.66v1.46h-2.43V5.48h9.09V1.06h2.51ZM189.66,14.01v-6.15h-6.66v6.15h6.66ZM198.86,14.01v-6.15h-6.68v6.15h6.68Z"/>
      <path class="st0" d="M231.17,24.82h-2.41v-.97h-16.8v.97h-2.41V2.05h21.61v22.76ZM228.76,21.59V4.31h-16.8v17.28h16.8ZM220.01,18.59c-2,.46-4.25.87-6.76,1.18l-.31-2.07c2.69-.26,5.04-.56,7.07-.97v1.87ZM220.78,6.66c-.03-.64-.03-1.28-.03-1.95h2.18c0,.69,0,1.33.03,1.95h1.87c-.23-.59-.49-1.13-.74-1.64l1.89-.31c.23.56.46,1.23.69,1.95h1.28v2.15h-4.94c.05,1.79.18,3.28.38,4.4.05.41.1.77.15,1.13.67-1.38,1.23-2.94,1.69-4.71l1.79.92c-.77,2.71-1.69,4.94-2.76,6.73,0,.05.03.1.05.13.36.92.72,1.38,1.02,1.38.36,0,.74-1.02,1.2-3.07l1.74.97c-.72,2.87-1.64,4.33-2.71,4.33-.79,0-1.56-.54-2.28-1.61-.1-.13-.18-.26-.23-.38-.77.92-1.56,1.66-2.41,2.25l-1.2-1.79c.97-.67,1.87-1.56,2.66-2.66-.26-.72-.46-1.54-.64-2.41-.31-1.49-.51-3.35-.61-5.61h-7.86v-2.15h7.78ZM219.88,10.22v5.5h-6.27v-5.5h6.27ZM217.91,11.94h-2.33v2.07h2.33v-2.07Z"/>
      <path class="st0" d="M241.77,4.1c-.41-.85-.85-1.66-1.36-2.43l2.25-.67c.62,1.15,1.1,2.18,1.41,3.1h2.59v2.2h-8.4v-2.2h3.51ZM241.21,24.76h-2.23v-9.35h7.14v8.96h-2.18v-1.08h-2.74v1.46ZM245.87,7.99v2.1h-6.68v-2.1h6.68ZM245.87,11.6v2.1h-6.68v-2.1h6.68ZM243.95,17.57h-2.74v3.53h2.74v-3.53ZM260.8,2v2.18h-6.5l-.46,2.36h5.89v4.94h1.79v2.23h-14.21v-2.23h3.28l.56-2.84h-2.77v-2.1h3.17l.46-2.36h-4.53v-2.18h13.31ZM260.11,24.84h-2.25v-1.02h-7.04v1.02h-2.3v-9.12h11.6v9.12ZM257.85,21.67v-3.79h-7.04v3.79h7.04ZM257.49,11.48v-2.84h-4.07l-.56,2.84h4.63Z"/>
      <path class="st0" d="M278.26,4.08c-.36-.82-.77-1.64-1.23-2.43l2.56-.69c.56,1.13.97,2.15,1.25,3.07l-.13.05h10.11v2.28h-23.12v-2.28h10.55ZM288.09,24.84h-2.38v-1.02h-12.9v1.02h-2.38v-8.63h17.67v8.63ZM287.58,8.17v2.18h-16.62v-2.18h16.62ZM287.58,12.09v2.18h-16.62v-2.18h16.62ZM285.71,21.51v-3h-12.9v3h12.9Z"/>
      <path class="st0" d="M299.03,4.46v-2.38h15.67v1.59c-.46,2.05-.95,3.84-1.41,5.38h5.09v1.43c-.74,3.41-2.28,6.3-4.61,8.65,1.84,1.31,3.99,2.48,6.45,3.53l-1.61,2.18c-2.61-1.2-4.87-2.53-6.73-4.02-2.23,1.72-4.94,3.1-8.17,4.15l-1.41-2.25c3-1,5.5-2.2,7.55-3.64-2.02-1.97-3.58-4.15-4.69-6.53-.92,5.27-3.05,9.35-6.38,12.19l-1.87-1.64c4.12-3.46,6.22-8.99,6.3-16.57v-2.07h-4.2ZM315.82,11.27h-5.56c.54-1.56,1.13-3.84,1.77-6.81h-6.35v2.07c0,.46-.03.9-.03,1.33.92,3.71,2.95,6.94,6.09,9.68,1.95-1.82,3.3-3.92,4.07-6.27Z"/>
      <path class="st0" d="M337.18,5.28c-.67-1.23-1.49-2.38-2.46-3.48l2.43-.9c.92,1.23,1.79,2.69,2.59,4.38h9.7v2.41h-3.92c-1.23,3.89-3.05,7.14-5.45,9.78,2.66,2.18,5.99,3.99,9.93,5.43l-1.36,2.05c-4.12-1.54-7.55-3.46-10.27-5.76-2.89,2.56-6.45,4.46-10.68,5.68l-1.31-2.15c4.15-1.08,7.55-2.77,10.27-5.1-2.82-2.82-4.79-6.15-5.89-9.93h-3.92v-2.41h10.32ZM338.36,15.96c2.07-2.28,3.64-5.04,4.66-8.27h-9.91c1.08,3.15,2.82,5.91,5.25,8.27Z"/>
      <path class="st0" d="M374.59,14.32v1.79c-1.66.72-3.53,1.43-5.58,2.1v.44h9.86v1.97h-9.86v1.87c0,1.43-.77,2.18-2.3,2.18h-2.94l-.54-1.97c.84.05,1.77.08,2.77.08.54,0,.82-.33.82-.97v-1.18h-10.45v-1.97h10.45v-1.28c1.64-.49,3-.9,4.04-1.25h-10.52v-1.79h14.26ZM360.28,8.28h3.58v1.66h-3.43l.1,1.36h14.08l.1-1.36h-3.41v-1.66h3.53l.08-1.25h-3.53v-1.66h3.64l.1-1.43h-3.97v-1.95h6.25l-.59,9.32h1.77v4.3h-2.33v-2.51h-17.31v2.48h-2.33v-4.28h1.74l-.67-8.86c1.84-.2,3.69-.59,5.56-1.15l.77,1.84c-.84.31-2.2.61-4.07.95l.1,1.28h3.74v1.66h-3.61l.1,1.25ZM367.65,3.05c.51-.46.97-.95,1.41-1.46l1.36.82c-.49.59-.95,1.1-1.41,1.56.56.41,1.1.82,1.59,1.23l-1.02,1.02,1.15.74c-.51.61-1.02,1.15-1.54,1.59.61.41,1.15.84,1.66,1.28l-1.15,1.15c-.54-.49-1.13-.97-1.79-1.43-.69.46-1.54.92-2.54,1.41l-.9-1.43c.69-.26,1.36-.56,2-.92-.54-.36-1.1-.69-1.66-1l1.13-1.1c.67.36,1.31.74,1.89,1.13.51-.44.97-.92,1.43-1.43-.46-.41-.97-.82-1.54-1.23-.72.49-1.59,1-2.64,1.51l-.9-1.43c.77-.26,1.49-.61,2.18-1.02-.56-.38-1.18-.77-1.79-1.13l1.1-1.05c.69.41,1.36.79,1.97,1.2Z"/>
      <path class="st0" d="M393.56,18.75c-1.72,2.12-3.84,3.99-6.38,5.58l-1.49-1.95c2.46-1.43,4.53-3.12,6.22-5.07l1.64,1.43ZM393.26,24.59l-.51-2.28c.9.1,1.77.15,2.61.15.51,0,.77-.31.77-.9v-5.25c-2.54.15-5.3.28-8.27.41l-.69-2.12c.77-.05,1.46-.21,2.1-.44,2.2-.69,4.63-1.77,7.3-3.23-2.64.18-5.25.33-7.86.46l-.36-2.05c3.3-.84,6.55-2.46,9.78-4.84l-.31.08c-2.18.56-5.22,1.18-9.17,1.84l-1.23-2.02c3.02-.33,5.86-.82,8.5-1.43,2.2-.51,4.28-1.15,6.2-1.87l2.1,1.31c-1.97.84-3.97,1.54-5.99,2.07l1.77,1.25c-1.92,1.46-3.94,2.69-6.04,3.69,2-.15,3.99-.33,5.97-.49,1.05-.67,2.12-1.38,3.25-2.15l2.33,1.13c-4.48,2.92-8.4,5.12-11.75,6.58,3.64-.2,6.86-.46,9.63-.74-.56-.77-1.13-1.51-1.71-2.23l1.77-1.1c2.02,2.41,3.58,4.51,4.66,6.3l-1.92,1.31c-.43-.77-.92-1.56-1.46-2.38-1.84.18-3.89.36-6.15.51v5.99c0,1.61-.79,2.43-2.38,2.43h-2.92ZM408.06,22.69l-1.71,1.69c-1.43-1.79-3.43-3.71-5.99-5.79l1.59-1.51c2.41,1.87,4.46,3.74,6.12,5.61Z"/>
    </g>
  </g>
</svg>